<svg xmlns="http://www.w3.org/2000/svg" viewBox="0 0 2048 2048">
<g transform="translate(1024.0, 1024.0) scale(0.9496136012364761, -0.9496136012364761) translate(-893.0, -970.5)">
<path fill="#101010" d="M607 594Q898 682 1166 589Q1150 636 1136 712Q1025 688 904 685Q782 680 651 706Q634 662 629 650Q625 643 607 594ZM636 506Q636 485 722 480Q790 476 882 476Q1003 476 1042 477Q1128 479 1128 500Q1128 522 1042 524Q1003 525 882 525Q760 525 722 526Q636 528 636 506ZM1133 1296H1047Q972 1296 941 1300V1449H799V1302Q734 1302 704 1303H603V1162Q642 1159 688 1161Q703 1162 799 1162V1029H941V1165H1077Q1113 1164 1135 1165ZM1088 279Q1266 279 1312 299Q1356 319 1468 304Q1606 281 1639 269Q1681 253 1783 199Q1783 197 1783.5 186.0Q1784 175 1784.5 151.0Q1785 127 1785 101Q1786 71 1786 4Q1737 18 1659.0 56.0Q1581 94 1523 104Q1418 140 1337 132Q1244 124 1082 121Q973 146 901 229V274V318Q883 318 880 319V274V229Q842 212 824 187Q805 160 689 123Q528 124 478 137Q426 149 310 134Q251 123 150 69Q48 15 0 0V94V189Q56 200 145 244Q235 289 290 306Q408 331 489 322Q590 309 683 291Q744 290 763 301Q768 304 810 328Q735 346 638 381Q536 418 461 483Q498 560 513 616Q530 680 554 736Q356 967 344 1058Q331 1145 343 1259Q418 1405 516 1495Q614 1585 768 1714Q704 1753 704 1824Q704 1872 764 1907Q822 1941 870 1941Q917 1941 966 1901Q1017 1860 1017 1812Q1017 1757 953 1705Q1132 1569 1231 1487Q1326 1407 1404 1241Q1400 1130 1389 1040Q1378 949 1219 760Q1248 696 1258 631Q1267 569 1288 489Q1218 421 1132 380Q1042 339 975 325Q1000 310 1008 304Q1016 298 1088 279Z"/>
</g>
</svg>