<svg xmlns="http://www.w3.org/2000/svg" viewBox="0 0 2048 2048">
<g transform="translate(1024.0, 1024.0) scale(0.910837733100991, -0.910837733100991) translate(-837.0196078431372, -1011.1842105263158)">
<path fill="#101010" d="M420 410V385Q639 448 843 441Q1051 433 1250 373Q1252 409 1251 410Q1249 413 1248 450Q1099 490 881 499Q664 508 441 456Q438 421 432 419Q429 419 428 423Q422 431 421 417ZM869 1525Q869 1498 848 1354Q843 1317 838.5 1291.0Q834 1265 830.5 1247.5Q827 1230 823.0 1222.0Q819 1214 816 1215Q804 1220 781 1369Q758 1524 758 1537Q758 1553 775 1589Q793 1621 811 1627Q829 1631 848 1592Q869 1551 869 1525ZM1478 1154Q1480 1112 1406 980Q1333 851 1213 714Q1141 706 1070 715Q1058 717 927 731Q935 880 968 1000Q1002 1122 1037 1228Q1067 1280 1121 1365Q1171 1442 1298 1424Q1429 1406 1453 1308Q1478 1212 1478 1154ZM607 1240Q631 1151 673 969Q714 790 703 722Q640 717 575 705Q506 693 457 724Q325 833 272 956Q219 1083 219 1185Q219 1266 287 1340Q354 1412 399 1412Q439 1412 513 1368Q585 1322 607 1240ZM767 2023H875V1918H991V1841H875V1743Q929 1743 961 1727Q996 1711 1001 1624Q992 1563 989 1542Q987 1518 967 1473Q1028 1542 1137 1575Q1249 1608 1358 1586Q1470 1564 1560 1478Q1652 1391 1674 1223Q1631 936 1512 811Q1394 686 1357 598Q1355 509 1366 347Q1377 184 1399 45Q1118 -6 802 0Q494 6 281 32Q308 193 309 341Q310 491 318 596Q300 628 243 685Q191 737 131 820Q74 900 33 1007Q-8 1119 2 1248Q25 1382 105 1464Q185 1544 283 1572Q379 1600 481 1577Q579 1554 643 1483Q625 1522 621 1553Q618 1585 606 1621Q621 1700 672 1722Q724 1744 767 1746V1841H651V1918H767ZM137 1179Q149 946 265 833Q384 717 439 657Q523 660 589 656Q658 652 751 669Q763 827 730 970Q699 1109 652 1253Q619 1345 579 1388Q542 1431 456 1467Q324 1499 241 1410Q158 1318 137 1179ZM980 1244Q921 1079 894 967Q868 856 879 674Q996 674 1112 656Q1226 637 1243 657Q1345 783 1425 896Q1504 1007 1547 1148Q1556 1217 1500 1350Q1445 1480 1284 1480Q1180 1480 1119 1440Q1056 1398 980 1244ZM742 1365Q772 1204 822 1087Q858 1180 887 1354Q916 1527 904 1571Q904 1600 882 1628Q862 1658 816 1663Q747 1654 718 1583Q714 1528 742 1365ZM387 197Q633 258 860 255Q1089 252 1269 203Q1272 199 1273 206Q1273 214 1274 221Q1275 232 1275 258Q1093 307 859 311Q632 315 393 258Q393 246 390 228Q387 209 387 197Z"/>
</g>
</svg>