<svg xmlns="http://www.w3.org/2000/svg" viewBox="0 0 2048 2048">
<g transform="translate(1024.0, 1024.0) scale(0.9846153846153848, -0.9846153846153848) translate(-822.0714285714286, -936.0)">
<path fill="#101010" d="M214 796Q157 789 131 771Q106 755 117 728Q132 688 183.0 715.0Q234 742 214 796ZM433 1256Q494 1253 514 1267Q533 1280 536 1346Q550 1367 555 1387Q560 1406 583 1419Q491 1424 449 1368Q406 1313 433 1256ZM900 1511Q1102 1376 1218 1203Q1332 1030 1387 841Q1442 656 1454 456Q1465 241 1465 81H1533Q1520 358 1503 567Q1486 772 1427 946Q1368 1117 1246.0 1266.0Q1124 1415 899 1574ZM452 0Q449 81 464 176Q478 267 504 334Q543 391 620 499Q664 559 689 597Q701 615 714.5 635.0Q728 655 736.0 667.0Q744 679 748 685Q804 770 834 820Q860 926 930 1021Q965 1068 954 1083Q944 1096 888 1080Q864 997 869.0 947.0Q874 897 841 836Q794 770 709.0 765.0Q624 760 498 691Q461 651 429 596Q392 537 353 499Q295 481 273 500Q284 516 303 535Q321 552 324 583Q309 565 274 533Q238 500 196 517Q150 544 80 614Q5 686 0 730Q23 833 106 1001Q194 1174 243 1252Q266 1423 336 1472Q398 1515 474 1572Q418 1688 395 1726Q369 1767 396 1793Q425 1802 507 1753Q592 1702 631 1646L653 1652Q654 1651 660 1651Q678 1752 665 1806Q652 1861 682 1872Q799 1866 838 1756Q876 1645 890 1640Q1045 1584 1124 1521Q1199 1459 1374 1257Q1478 1122 1536 909Q1595 696 1620 494Q1646 292 1644 146Q1642 0 1627 0Z"/>
</g>
</svg>