<svg xmlns="http://www.w3.org/2000/svg" viewBox="0 0 2048 2048">
<g transform="translate(1024.0, 1024.0) scale(1.012191103789127, -1.012191103789127) translate(-727.0, -910.5)">
<path fill="#101010" d="M918 1627Q918 1506 814 1459Q937 1435 1011 1336Q1085 1235 1085 1115Q1085 949 949 849Q1018 820 1099 786Q1177 752 1252 668Q1325 585 1380 428Q1435 273 1454 3Q1400 0 1172 0Q1143 0 689 2Q549 2 446 3H225H0Q17 441 182 621Q346 800 492 855Q364 956 364 1115Q364 1238 445 1340Q525 1442 651 1466Q543 1517 543 1627Q543 1709 598 1764Q654 1821 727 1821Q802 1821 860.0 1764.0Q918 1707 918 1627Z"/>
</g>
</svg>