<svg xmlns="http://www.w3.org/2000/svg" viewBox="0 0 2048 2048">
<g transform="translate(1024.0, 1024.0) scale(0.9724189830022576, -0.9724189830022576) translate(-911.0, -948.0603773584905)">
<path fill="#101010" d="M1668 1287Q1609 1095 1529 850Q1459 639 1426 639Q1426 602 1421 364Q1416 167 1467 42Q1197 -5 887 1Q579 7 381 31Q412 244 415 378Q417 602 417 627Q404 626 388 651Q369 680 350 728Q328 779 302 857Q245 1030 151 1327Q124 1321 62 1343Q0 1366 0 1452Q4 1542 57 1574Q110 1605 154 1605Q178 1605 238 1581Q297 1558 297 1479Q298 1425 275 1392Q251 1361 235 1351Q294 1260 315 1228Q344 1188 369 1147Q386 1122 428 1051Q476 971 527 885Q504 1065 491 1265Q477 1470 465 1530Q426 1530 401 1572Q374 1612 374 1635Q377 1713 419 1747Q461 1780 514 1783Q538 1783 598.0 1765.0Q658 1747 663 1660Q663 1641 646 1596Q628 1552 580 1542Q616 1472 683 1258Q748 1047 783 966L875 1636Q827 1633 794 1681Q760 1727 760 1750Q757 1816 808 1855Q857 1895 920 1895Q976 1901 1023 1862Q1071 1825 1069 1759Q1069 1729 1046 1685Q1024 1642 978 1636L1065 951L1273 1530Q1244 1545 1223 1568Q1197 1593 1207 1642Q1214 1727 1276 1751Q1340 1774 1362 1774Q1388 1774 1449 1740Q1511 1707 1511 1627Q1513 1555 1472 1532Q1430 1508 1381 1514L1308 881L1595 1317Q1570 1332 1549 1362Q1527 1390 1532 1421Q1540 1478 1588 1516Q1634 1554 1692 1553Q1815 1550 1822 1397Q1817 1275 1668 1287ZM484 195Q732 251 950 246Q1173 243 1353 198Q1356 216 1350 239Q1344 263 1344 273Q1164 318 942 321Q724 325 489 274Q489 273 488.5 268.0Q488 263 487.5 253.5Q487 244 487 234Q484 206 484 195ZM495 543Q743 603 911 615Q1077 627 1344 563Q1344 586 1343 593Q1341 619 1341 625Q1156 685 934 684Q710 684 492 611Q492 606 494 576Q495 569 495 543ZM490 367Q686 423 889 435Q1093 446 1342 380V408L1340 414L1338 441Q1119 492 915 496Q705 499 489 438Q489 407 490 401Z"/>
</g>
</svg>