<svg xmlns="http://www.w3.org/2000/svg" viewBox="0 0 2048 2048">
<g transform="translate(1024.0, 1024.0) scale(1.0407679277244495, -1.0407679277244495) translate(-780.0, -885.5)">
<path fill="#101010" d="M0 0V213L117 216V399L216 401L369 573V1259L244 1421L168 1423L169 1766H391L392 1636L591 1634L593 1771H1029L1033 1650L1202 1648V1771H1403V1428L1319 1427L1202 1271V568L1363 379L1443 382V208H1560V0ZM499 1411Q353 1411 353 1399Q354 1395 372 1389Q439 1367 511 1367L1112 1366Q1163 1366 1211 1389Q1239 1402 1198 1407Q1195 1408 1193 1408Q1167 1411 1117 1411ZM403 483 359 445H1208L1180 483ZM224 320V276H1348L1353 320ZM95 129V96H1493V129ZM241 1534 242 1490H1341V1534Z"/>
</g>
</svg>