<svg xmlns="http://www.w3.org/2000/svg" viewBox="0 0 2048 2048">
<g transform="translate(1024.0, 1024.0) scale(0.9893719806763285, -0.9893719806763285) translate(-856.0, -931.5)">
<path fill="#f9f9f9" d="M841 1699Q898 1710 906 1751Q891 1804 837 1808Q767 1798 759 1743Q776 1698 841 1699ZM446 1188Q421 1079 459 1012Q496 946 627 781Q797 820 887 813Q987 806 1101 787Q1171 897 1195 937Q1223 983 1232 1011Q1241 1037 1239 1067Q1237 1102 1243 1163Q1212 1301 1087.0 1426.0Q962 1551 836 1617Q731 1556 626 1446Q520 1336 446 1188ZM671 405Q769 393 841 393Q905 393 1003 407Q1093 420 1093 442Q1093 463 1003 478Q905 492 841 492Q775 492 671 475Q573 458 573.0 437.0Q573 416 671 405ZM1084 1090Q1064 1088 1032 1090H903V965H767V1089Q677 1089 662 1088Q620 1086 582 1089V1222H679H767V1364H903L902 1226Q916 1223 996 1225Q1029 1226 1085 1226ZM1044 268Q1214 268 1259 288Q1299 307 1409 292Q1534 271 1573 258Q1607 247 1712 191Q1712 126 1711 97Q1711 72 1710.5 49.5Q1710 27 1709.5 16.0Q1709 5 1709 3Q1662 17 1590 54Q1516 90 1462 100Q1359 134 1284 127Q1195 119 1039 116Q935 140 865 219V262V305Q847 305 844 306V263V220Q807 205 791 180Q774 154 662 118Q505 118 459 131Q412 143 298 129Q240 118 144 67Q52 17 0 0V91V181Q47 190 139 234Q232 280 278 293Q395 317 469 308Q527 302 656 279Q713 277 732 289Q735 290 777 315Q711 329 613 366Q515 401 443 464Q477 537 492 591Q506 644 532 706Q341 929 330 1015Q318 1097 329 1208Q385 1369 483.0 1461.0Q581 1553 737 1646Q676 1671 676 1750Q676 1795 733 1830Q790 1863 835 1863Q878 1863 928 1824Q977 1785 977 1739Q977 1669 915 1637Q1107 1540 1204 1448Q1301 1355 1348 1191Q1344 1084 1348 1011Q1351 935 1170 730Q1197 664 1207 606Q1216 542 1237 469Q1167 403 1088 365Q1007 325 936 312Q963 297 968 292Q975 286 1044 268ZM59 94Q60 90 65 93Q227 204 328 207Q449 209 572 199Q630 199 698 208Q765 217 819 253V255V258V261V263V273Q819 267 819 279Q745 239 689 236Q646 232 578 232Q427 242 318 224Q211 205 59 132Q50 127 54 108Q56 97 59 94ZM1139 219Q1079 208 1047 214Q1011 219 911 279V256V233Q977 181 1026 183H1132Q1271 197 1385 207Q1481 216 1645 106Q1650 107 1651 122Q1651 142 1645 146Q1519 220 1416 230Q1304 241 1139 219ZM609 691 545 515Q678 554 837.0 560.0Q996 566 1125 521Q1114 551 1110 609Q1105 670 1096 697Z"/>
</g>
</svg>