<svg xmlns="http://www.w3.org/2000/svg" viewBox="0 0 2048 2048">
<g transform="translate(1024.0, 1024.0) scale(0.9733497623657806, -0.9733497623657806) translate(-781.4615384615385, -947.1666666666666)">
<path fill="#f9f9f9" d="M716 1894H816V1796H924V1724H816V1633Q864 1632 898 1617Q931 1600 934 1520Q926 1469 923 1443Q921 1419 903 1379Q957 1442 1062 1474Q1160 1505 1268 1485Q1369 1466 1457 1384Q1542 1302 1563 1145Q1522 878 1412 760Q1301 642 1266 561Q1266 476 1275 325Q1286 174 1305 43Q1044 -5 748 1Q452 6 262 31Q288 169 289 319Q289 445 297 559Q259 623 122 769Q-16 917 2 1169Q25 1295 98 1371Q173 1446 265 1473Q359 1499 449 1478Q541 1456 600 1389Q582 1423 580 1454Q577 1484 565 1518Q580 1594 628 1613Q678 1633 716 1635V1724H607V1796H716ZM774 162Q633 162 513 147Q395 132 381 100Q444 88 560 80Q688 72 792 72Q886 71 1021 79Q1129 86 1189 106Q1165 133 1040 148Q908 162 774 162ZM392 367Q524 409 781 406Q1037 403 1166 355Q1169 380 1167 422Q1167 429 1165 491Q1032 519 813 517Q599 515 401 497Q400 467 394 434Q392 418 392 367ZM128 1104Q140 885 248 781Q356 676 410 616Q488 619 550 615Q620 610 700 627Q712 776 682 909Q645 1061 608 1174Q578 1260 541 1300Q505 1339 426 1374Q303 1404 214.0 1339.0Q125 1274 128 1104ZM914 1165Q864 1022 835 906Q811 799 821 631Q918 632 1038 615Q1145 598 1160 616Q1240 714 1330 839Q1404 943 1444 1075Q1453 1186 1400 1287Q1349 1386 1198 1386Q1103 1386 1045 1349Q986 1311 914 1165ZM693 1278Q722 1121 767 1018Q801 1105 828 1268Q855 1428 843 1471Q843 1497 824 1525Q804 1554 762 1558Q699 1549 670 1483Q666 1435 693 1278ZM366 191Q600 248 808 245Q1021 242 1190 196Q1191 193 1193 198Q1194 203 1194 225Q1195 241 1195 271Q1026 317 808 321Q596 324 372 271Q372 260 369 231Q366 203 366 191Z"/>
</g>
</svg>