<svg xmlns="http://www.w3.org/2000/svg" viewBox="0 0 2048 2048">
<g transform="translate(1024.0, 1024.0) scale(1.0257095158597664, -1.0257095158597664) translate(-791.3076923076923, -898.5)">
<path fill="#f9f9f9" d="M1444 91Q1442 142 1438 268Q1433 398 1412 548Q1391 703 1346 865Q1300 1026 1216 1150Q1086 1317 1016 1371Q940 1431 795 1486Q779 1479 785 1460Q790 1438 778 1413Q784 1461 783 1465Q781 1470 783 1506Q775 1543 763 1619Q753 1683 697 1689Q694 1644 691 1611Q691 1610 690.5 1606.0Q690 1602 689.5 1594.0Q689 1586 689 1578Q688 1572 686.5 1554.0Q685 1536 684 1529Q681 1529 641 1521Q635 1520 621 1516Q618 1515 611.5 1513.5Q605 1512 602 1511Q597 1510 591 1508Q590 1509 588.0 1512.0Q586 1515 581.5 1521.0Q577 1527 573 1533Q560 1548 545 1569Q514 1609 496 1606Q481 1584 502 1549Q523 1514 534 1481Q502 1427 427 1398Q353 1369 331 1240Q299 1147 207 976Q110 793 80 696Q83 657 130.0 610.0Q177 563 207 551Q249 562 287 600Q333 646 339 653Q358 628 355 600Q350 574 355 565Q364 589 382.0 646.0Q400 703 419 722Q527 768 592 780Q661 794 749 867Q792 969 808 1068Q823 1164 864 1175Q890 1136 901 1082Q911 1032 899 781Q853 686 791 603Q741 539 583 311Q565 262 562 211Q562 209 561.0 196.5Q560 184 558.0 152.0Q556 120 554 91ZM515 1293Q512 1229 494 1216Q478 1203 416 1206Q390 1260 431 1314Q472 1366 560 1362Q537 1350 533 1331Q528 1312 515 1293ZM131 687Q116 689 126 714Q137 740 188 746Q185 718 179 701Q173 683 131 687ZM434 0Q431 78 446 169Q460 262 484 321Q511 358 536.5 394.5Q562 431 576.5 451.5Q591 472 596 479Q660 569 662 574Q697 623 719 659Q781 755 801 788Q833 920 837 933Q848 976 853 1037Q829 954 826 937Q823 919 796 827Q749 764 674 747Q597 730 479 664Q437 619 412 573Q382 522 340 480Q284 464 262 480Q274 496 292 513Q309 530 312 560Q299 544 263 512Q228 480 188 497Q146 520 77 589Q5 658 0 701Q23 803 103 961Q182 1120 233 1203Q256 1366 323 1413Q389 1460 455 1509Q406 1613 380 1657Q355 1696 381 1722Q407 1731 487 1684Q567 1636 606 1580L628 1587H627Q628 1586 634 1586Q651 1683 639 1734Q627 1787 655 1797Q768 1792 805 1686Q842 1580 854 1575Q1004 1520 1086 1467Q1168 1413 1319 1207Q1427 1080 1484 876Q1541 674 1564 477Q1586 282 1582 141Q1578 0 1563 0Z"/>
</g>
</svg>