<svg xmlns="http://www.w3.org/2000/svg" viewBox="0 0 2048 2048">
<g transform="translate(1024.0, 1024.0) scale(1.0127472527472527, -1.0127472527472527) translate(-727.5, -910.0)">
<path fill="#f9f9f9" d="M918 1626Q918 1506 814 1459Q937 1435 1011 1336Q1085 1235 1085 1114Q1085 951 949 848Q1054 806 1099 787Q1180 752 1252 668Q1325 583 1380 428Q1435 272 1455 3Q1400 0 1173 0Q1144 0 690 2Q558 2 455 3Q275 3 226 4Q7 4 0 3Q17 441 182.0 621.0Q347 801 493 854Q364 956 364 1114Q364 1238 445.0 1340.0Q526 1442 651 1465Q543 1516 543 1626Q543 1708 598 1763Q654 1820 728 1820Q802 1820 860 1763Q918 1706 918 1626ZM620 1613Q620 1557 656.0 1518.0Q692 1479 736 1458Q619 1437 543 1340Q465 1242 465 1128Q465 1057 542 962Q619 868 673 825Q606 801 520 762Q435 723 358 646Q280 568 225 441Q170 314 162 111Q169 112 341 112Q379 111 520 111Q601 110 705 110Q794 109 1086 109Q1250 108 1317 111Q1299 360 1239 494Q1178 626 1100 692Q1018 757 937 778Q862 796 789 825Q846 868 919 961Q992 1052 992 1128Q992 1240 921 1338Q849 1435 736 1458Q838 1504 838 1612Q838 1687 822 1706Q805 1726 734 1747Q671 1717 645 1702Q620 1686 620 1613Z"/>
</g>
</svg>