<svg xmlns="http://www.w3.org/2000/svg" viewBox="0 0 2048 2048">
<g transform="translate(1024.0, 1024.0) scale(1.013001565312318, -1.013001565312318) translate(-874.5, -910.0656634746922)">
<path fill="#f9f9f9" d="M470 489Q707 546 871 555Q1041 563 1290 502Q1290 536 1289 551Q1289 563 1288.5 575.0Q1288 587 1287.5 593.0Q1287 599 1287 600Q1113 657 896 657Q676 657 472 587Q472 551 471.0 537.0Q470 523 470 489ZM464 187Q705 240 911 236Q1128 232 1298 189Q1302 204 1299 252Q1295 287 1295 306Q1121 348 907 349Q690 350 470 301Q470 290 467 243Q464 197 464 187ZM470 347Q656 401 855 409Q1055 417 1293 354Q1295 383 1293.0 400.0Q1291 417 1290 450Q1082 499 881 501Q682 502 469 442Q469 406 470 394ZM1305 133Q1243 153 1134 167Q1028 180 900 184Q777 187 664.0 178.0Q551 169 488 145Q464 136 461 119Q456 102 482 91Q651 62 909 68Q1176 73 1303 91Q1326 94 1326.0 110.0Q1326 126 1305 133ZM1601 1236Q1538 1025 1463 812Q1429 713 1404 659Q1392 634 1383.0 622.5Q1374 611 1369 613Q1369 584 1368 554Q1367 538 1366.5 506.0Q1366 474 1366 457Q1365 439 1364.5 403.0Q1364 367 1364 349Q1360 166 1408 40Q1147 -5 851 1Q560 6 365 29Q407 258 400 381Q393 508 400 601Q340 634 278 840Q273 856 259.5 900.0Q246 944 238 972Q229 1002 212.5 1055.5Q196 1109 189 1132Q184 1148 145 1274Q117 1269 60 1290Q0 1310 0 1394Q3 1481 54.0 1511.0Q105 1541 147 1541Q168 1541 228 1518Q285 1495 284 1419Q286 1362 264 1336Q242 1308 225 1297Q241 1272 302 1179Q303 1178 309.0 1169.0Q315 1160 319 1154Q326 1143 338 1125Q342 1118 354 1101Q382 1055 411 1009Q426 984 448 947Q474 904 505 849Q483 1029 471 1215Q458 1406 446 1469Q410 1469 385 1509Q359 1550 359 1570Q361 1644 402 1678Q442 1709 493 1711Q512 1711 574 1694Q632 1677 636 1593Q636 1569 620 1531Q604 1490 557 1480Q591 1413 654 1209Q718 1002 751 927L839 1570Q792 1568 761 1613Q729 1660 729 1679Q726 1744 775 1781Q825 1819 883 1819Q939 1825 982 1788Q1028 1750 1026 1688Q1026 1658 1004 1618Q982 1576 938 1571L1022 913L1222 1469Q1197 1483 1174 1506Q1148 1532 1158 1576Q1166 1658 1224 1681Q1280 1703 1307 1703Q1329 1703 1391 1671Q1451 1638 1451 1562Q1453 1494 1413 1471Q1373 1449 1325 1453L1255 846L1531 1264Q1507 1279 1487 1308Q1466 1337 1470 1364Q1478 1418 1524.0 1455.0Q1570 1492 1624 1491Q1742 1489 1749 1341Q1744 1224 1601 1236ZM1560 1353Q1560 1322 1580 1311Q1599 1301 1619 1301Q1636 1301 1659 1315Q1679 1329 1679 1353Q1679 1375 1664 1399Q1648 1423 1627.0 1423.0Q1606 1423 1583.0 1403.0Q1560 1383 1560 1353ZM1310 1510Q1338 1510 1355 1531Q1371 1549 1369 1573Q1367 1593 1350 1616Q1332 1637 1307 1637Q1248 1637 1248 1570Q1248 1508 1310 1510ZM814 1689Q814 1653 838 1639Q861 1625 887 1625Q951 1625 957 1691Q958 1719 932 1735Q903 1752 884 1752Q861 1752 839 1739Q814 1726 814 1689ZM462 1539Q473 1526 496 1528Q556 1532 556 1585Q556 1633 499 1633Q444 1633 448 1581Q449 1553 462 1539ZM150 1365Q199 1365 199 1407Q199 1412 194 1444Q190 1469 153 1469Q91 1469 91 1407Q91 1365 150 1365ZM781 723 987 718Q978 753 963 870Q952 953 931 1115Q915 1239 904 1348Q892 1451 892 1464ZM581 685Q604 690 668 706Q731 722 751 724Q734 803 655 1007Q573 1219 551 1304Q554 1196 563 994Q572 790 581 685ZM443 620Q464 638 500 657Q538 676 557 675Q514 750 417 890Q319 1032 270 1119Q294 1020 354 873Q416 720 443 620ZM1001 713 1182 688Q1188 724 1199 826Q1201 840 1204.5 878.5Q1208 917 1210 937Q1217 1008 1219 1029Q1222 1069 1228 1127Q1229 1147 1231.5 1177.5Q1234 1208 1235 1218Q1242 1302 1244 1314ZM1193 677Q1210 670 1265 656Q1319 642 1345 647Q1351 683 1379 763Q1413 862 1436 920Q1448 957 1489 1062Q1513 1123 1515 1137Q1469 1045 1348 895Q1219 733 1193 677Z"/>
</g>
</svg>