<svg xmlns="http://www.w3.org/2000/svg" viewBox="0 0 2048 2048">
<g transform="translate(1024.0, 1024.0) scale(1.0867924528301887, -1.0867924528301887) translate(-749.0, -848.0)">
<path fill="#f9f9f9" d="M0 0V211L112 208V384L207 386L354 551V1204Q308 1264 294.0 1283.0Q280 1302 234 1362Q199 1362 189 1361Q167 1360 145 1361V1695H392V1577L569 1578V1696H942L941 1579L1111 1580V1696H1363V1360L1293 1362Q1252 1326 1224 1293Q1182 1244 1154 1215V546L1308 365L1385 368V200H1498V0ZM479 1355Q403 1355 365.5 1349.0Q328 1343 329 1330Q329 1323 340 1315Q390 1274 458 1274H1067Q1119 1274 1163 1315Q1194 1346 1126 1353Q1096 1355 1072 1355ZM451 1210V530H1068L1069 1210ZM387 465 290 368H1219L1133 465ZM215 308V217H1299V308ZM91 125V65H1433V125ZM210 1636V1425H1299V1637L1186 1636L1185 1522H867V1636H652L650 1520L314 1521L316 1637Z"/>
</g>
</svg>