<svg xmlns="http://www.w3.org/2000/svg" viewBox="0 0 2048 2048">
<g transform="translate(1024.0, 1024.0) scale(1.1476961394769614, -1.1476961394769614) translate(-1023.5, -1006.0)">
<path fill="#101010" d="M1582 1195H462Q443 1375 392 1555Q643 1458 915 1442Q915 1449 915.0 1456.5Q915 1464 915 1473Q915 1547 893 1629Q888 1657 888 1674Q888 1729 927.5 1769.0Q967 1809 1024 1809Q1080 1809 1119.5 1769.0Q1159 1729 1159 1674Q1159 1657 1154 1629Q1132 1547 1132 1473Q1132 1452 1133 1442Q1404 1458 1656 1555Q1601 1369 1582 1195ZM1578 1128Q1571 1028 1571 956Q1571 932 1573 921H477Q477 929 476.5 938.0Q476 947 476 956Q476 1048 469 1128ZM1575 853Q1575 835 1576.0 818.0Q1577 801 1578 785H468Q470 801 471.0 818.0Q472 835 475 853ZM1587 717Q1596 612 1617 513L428 514Q453 613 464 717ZM1630 442Q1645 380 1665.0 320.0Q1685 260 1706 203H1024H341Q385 322 416 442Z"/>
</g>
</svg>