<svg xmlns="http://www.w3.org/2000/svg" viewBox="0 0 2048 2048">
<g transform="translate(1024.0, 1024.0) scale(1.0820076313472262, -1.0820076313472262) translate(-1022.75, -1022.5)">
<path fill="#101010" d="M341 1508Q308 1520 277 1432Q243 1344 276 1331Q308 1318 341 1408Q371 1497 341 1508ZM1868 888H656Q689 978 689 1085Q689 1212 637 1316Q600 1298 557 1292Q503 1265 500 1204Q496 1151 519 1126Q542 1057 533 974Q526 914 487.0 873.5Q448 833 397 833Q391 833 386.5 833.0Q382 833 377 833Q309 836 252.0 859.5Q195 883 171 928V1749Q230 1750 292 1713Q292 1715 292.0 1717.0Q292 1719 292 1721Q292 1786 314 1841Q320 1842 352 1842Q432 1842 495.0 1795.0Q558 1748 583 1678Q820 1693 1034.0 1530.5Q1248 1368 1299 1031Q1367 1044 1438.0 1044.0Q1509 1044 1581 1044Q1624 1044 1670.5 1040.0Q1717 1036 1756 1024Q1847 978 1868 888ZM1850 442Q1822 298 1761 203H375Q375 323 411 442ZM1873 821Q1876 801 1873 782Q1874 754 1873 749H581Q607 785 628 821ZM436 513Q466 588 526 681H1872Q1870 585 1861 513Z"/>
</g>
</svg>