<svg xmlns="http://www.w3.org/2000/svg" viewBox="0 0 2048 2048">
<g transform="translate(1024.0, 1024.0) scale(1.3346850108616943, -1.3346850108616943) translate(-1024.0, -893.5)">
<path fill="#101010" d="M1436 1092H612Q603 1203 580 1331H910Q899 1382 893 1404Q888 1432 888 1449Q888 1504 927.5 1544.0Q967 1584 1024 1584Q1080 1584 1119.5 1544.0Q1159 1504 1159 1449Q1159 1432 1154 1404Q1142 1358 1138 1331H1468Q1444 1203 1436 1092ZM613 1024H1436Q1435 1006 1434.0 989.0Q1433 972 1433 956Q1433 898 1434 871H612Q615 911 615 956Q615 1001 613 1024ZM1445 734H602Q608 780 609 803H1439Q1440 768 1445 734ZM592 665H1454Q1465 588 1483 513H565Q574 550 580.0 588.0Q586 626 592 665ZM548 442H1500Q1535 313 1582 203H1024H466Q512 313 548 442Z"/>
</g>
</svg>