<svg xmlns="http://www.w3.org/2000/svg" viewBox="0 0 2048 2048">
<g transform="translate(1024.0, 1024.0) scale(1.1349753694581282, -1.1349753694581282) translate(-1024.5, -1015.0)">
<path fill="#101010" d="M1436 956 1550 513H494L612 956ZM1400 1091 1418 1024H628L647 1092ZM1575 442 1637 203H407L473 442ZM1074 1452Q1058 1477 1058 1509Q1058 1537 1069 1566L1095 1622Q1137 1713 1220.5 1770.0Q1304 1827 1408 1827Q1535 1827 1630.0 1742.5Q1725 1658 1746 1532L1814 1149L1467 1242Q1456 1245 1446 1245Q1379 1245 1379 1177Q1379 1168 1381 1164L1383 1160H665L668 1167Q669 1171 669 1177Q669 1245 601 1245Q591 1245 581 1242L235 1149L302 1532Q321 1658 416.5 1742.5Q512 1827 640 1827Q743 1827 827.0 1770.0Q911 1713 953 1622L979 1565Q990 1538 990 1509Q990 1476 973 1452Q944 1427 944 1393Q944 1314 1024 1314Q1103 1314 1103 1393Q1103 1428 1074 1452Z"/>
</g>
</svg>