<svg xmlns="http://www.w3.org/2000/svg" viewBox="0 0 2048 2048">
<g transform="translate(1024.0, 1024.0) scale(1.124588163514338, -1.124588163514338) translate(-1023.0, -1022.5)">
<path fill="#f9f9f9" d="M1598 1513Q1534 1445 1471.0 1377.0Q1408 1309 1345 1241L1566 203H448L666 1227L668 1503Q668 1642 767.5 1742.0Q867 1842 1008 1842Q1150 1842 1244 1735Q1240 1633 1274 1560Q1297 1548 1404.5 1535.0Q1512 1522 1598 1513ZM1454 1461Q1397 1463 1316.5 1475.5Q1236 1488 1221 1503Q1180 1605 1180 1698Q1108 1774 1008 1774Q895 1774 815.0 1694.0Q735 1614 735 1503V1296H1301Q1340 1337 1377.5 1377.5Q1415 1418 1454 1461ZM1482 271 1443 443H571L533 271ZM1305 1091H707L583 511H1429ZM1290 1159 1275 1227H734L720 1159Z"/>
</g>
</svg>