<svg xmlns="http://www.w3.org/2000/svg" viewBox="0 0 2048 2048">
<g transform="translate(1024.0, 1024.0) scale(1.1476961394769614, -1.1476961394769614) translate(-1023.5, -1006.0)">
<path fill="#f9f9f9" d="M1024 203H341Q476 563 476 956Q476 1264 392 1555Q643 1458 915 1442Q915 1449 915.0 1456.5Q915 1464 915 1473Q915 1547 893 1629Q888 1657 888 1674Q888 1729 927.5 1769.0Q967 1809 1024 1809Q1080 1809 1119.5 1769.0Q1159 1729 1159 1674Q1159 1657 1154 1629Q1132 1547 1132 1473Q1132 1452 1133 1442Q1404 1458 1656 1555Q1571 1261 1571 956Q1571 567 1706 203ZM1513 1195Q1526 1326 1555 1452Q1318 1381 1070 1374Q1065 1435 1065 1473Q1065 1545 1086 1638Q1092 1670 1092 1674Q1092 1742 1024 1742Q956 1742 956 1674Q956 1662 962 1638Q983 1545 983 1473Q983 1458 981.0 1429.5Q979 1401 979 1374Q729 1381 492 1452Q522 1318 535 1195ZM544 1128Q547 1085 547.5 1041.5Q548 998 548 956Q548 947 548.0 938.0Q548 929 548 921H1501Q1500 933 1500 956Q1500 1048 1507 1128ZM1503 852 546 853Q544 817 540 785H1508Q1503 821 1503 852ZM535 717Q525 622 501 513H1545Q1525 601 1512 717ZM1561 442H489Q479 399 466.0 357.0Q453 315 441 274H1024H1607Q1582 347 1561 442Z"/>
</g>
</svg>