<svg xmlns="http://www.w3.org/2000/svg" viewBox="0 0 2048 2048">
<g transform="translate(1024.0, 1024.0) scale(1.0813275226282266, -1.0813275226282266) translate(-1023.2857142857143, -1022.5)">
<path fill="#f9f9f9" d="M1783 442H489Q458 349 452 274H1722Q1760 347 1783 442ZM1797 513Q1807 585 1811 681H619Q547 590 514 513ZM1809 749Q1808 767 1808.0 785.0Q1808 803 1808 821H706Q697 803 686.5 784.0Q676 765 668 749ZM358 1497Q384 1486 358 1409Q328 1332 302 1343Q273 1352 302 1430Q328 1506 358 1497ZM1800 888Q1785 927 1742 958Q1708 970 1665.0 973.5Q1622 977 1581 977Q1494 977 1407.5 977.5Q1321 978 1244 954Q1238 989 1235 1004Q1181 1340 977.5 1493.0Q774 1646 533 1602Q528 1668 480.5 1717.5Q433 1767 365 1773Q359 1747 359 1721Q359 1679 375 1636Q378 1630 378 1621Q378 1582 342 1582Q319 1582 313 1602Q282 1649 240 1664V971Q256 909 381 902Q384 902 388.5 902.0Q393 902 399 902Q462 917 473 976Q478 1005 474.5 1035.5Q471 1066 466 1086Q429 1145 432 1207Q438 1318 540 1357Q617 1367 659 1417Q757 1278 757 1085Q757 1034 753.0 984.5Q749 935 734 888ZM1761 203H375Q375 358 430.0 497.5Q485 637 581 748Q689 902 689 1085Q689 1212 637 1316Q600 1298 557 1292Q503 1265 500 1204Q496 1151 519 1126Q542 1057 533 974Q526 914 487.0 873.5Q448 833 397 833Q391 833 386.5 833.0Q382 833 377 833Q309 836 252.0 859.5Q195 883 171 928V1749Q230 1750 292 1713Q292 1715 292.0 1717.0Q292 1719 292 1721Q292 1786 314 1841Q320 1842 352 1842Q432 1842 495.0 1795.0Q558 1748 583 1678Q820 1693 1034.0 1530.5Q1248 1368 1299 1031Q1367 1044 1438.0 1044.0Q1509 1044 1581 1044Q1624 1044 1670.5 1040.0Q1717 1036 1756 1024Q1875 964 1875 841Q1875 826 1875.5 811.5Q1876 797 1873 782Q1873 782 1873 759Q1873 606 1856.0 464.5Q1839 323 1761 203Z"/>
</g>
</svg>