<svg xmlns="http://www.w3.org/2000/svg" viewBox="0 0 2048 2048">
<g transform="translate(1024.0, 1024.0) scale(1.2773388773388774, -1.2773388773388774) translate(-1023.5, -924.5)">
<path fill="#f9f9f9" d="M1024 203V274H1520L1449 442H1024V514Q1121 514 1219.0 514.0Q1317 514 1416 514Q1370 624 1323.5 734.5Q1277 845 1232 956Q1179 956 1127.0 956.0Q1075 956 1024 956V1024Q1068 1024 1112.0 1024.0Q1156 1024 1201 1024Q1193 1041 1185.5 1057.5Q1178 1074 1171 1092Q1134 1092 1097.0 1092.0Q1060 1092 1024 1092V1160H1145L1103 1257Q1194 1305 1194 1408Q1194 1478 1144.0 1528.5Q1094 1579 1024 1579V1646Q1122 1646 1192.0 1576.0Q1262 1506 1262 1408Q1262 1302 1185 1234L1624 203ZM1024 203H423L863 1234Q786 1301 786 1408Q786 1506 855.5 1576.0Q925 1646 1024 1646V1579Q953 1579 903.0 1528.5Q853 1478 853 1408Q853 1305 944 1257L903 1160H1024V1092Q987 1092 950.0 1092.0Q913 1092 876 1092Q868 1074 860.5 1057.5Q853 1041 846 1024Q891 1024 935.0 1024.0Q979 1024 1024 1024V956Q972 956 919.5 956.0Q867 956 816 956Q769 845 723.0 734.5Q677 624 631 514Q730 514 828.0 514.0Q926 514 1024 514V442H599L528 274H1024Z"/>
</g>
</svg>