<svg xmlns="http://www.w3.org/2000/svg" viewBox="0 0 2048 2048">
<g transform="translate(1024.0, 1024.0) scale(1.3346850108616943, -1.3346850108616943) translate(-1024.0, -893.5)">
<path fill="#f9f9f9" d="M1024 274H1480Q1451 356 1429 442H621Q609 398 595.0 356.0Q581 314 567 274ZM637 513H1415Q1406 550 1398.0 588.0Q1390 626 1385 665H665Q651 578 637 513ZM672 734 1377 733Q1373 756 1372 803H677Q676 780 672 734ZM1367 871Q1365 899 1365 956Q1365 1001 1366 1024H681Q683 978 683 956Q683 927 681 871ZM1138 1331H1468Q1433 1146 1433 956Q1433 560 1582 203H1024H466Q615 564 615 956Q615 1146 580 1331H910Q899 1382 893 1404Q888 1432 888 1449Q888 1504 927.5 1544.0Q967 1584 1024 1584Q1080 1584 1119.5 1544.0Q1159 1504 1159 1449Q1159 1432 1154 1404Q1142 1358 1138 1331ZM1065 1263Q1066 1327 1086 1413Q1092 1443 1092 1449Q1092 1516 1024 1516Q956 1516 956 1449Q956 1435 962 1413Q980 1334 983 1263H659Q672 1179 677 1092H1372Q1375 1135 1378.5 1178.0Q1382 1221 1388 1263Z"/>
</g>
</svg>