<svg xmlns="http://www.w3.org/2000/svg" viewBox="0 0 2048 2048">
<g transform="translate(1024.0, 1024.0) scale(1.1349753694581282, -1.1349753694581282) translate(-1024.5, -1015.0)">
<path fill="#f9f9f9" d="M1312 1160Q1311 1166 1311 1177Q1311 1233 1350.5 1273.0Q1390 1313 1446 1313Q1456 1313 1478 1311L1724 1246L1670 1559Q1646 1646 1573.5 1702.5Q1501 1759 1408 1759Q1243 1759 1166 1611L1131 1536Q1125 1522 1125 1509Q1125 1490 1137 1470Q1159 1433 1159 1393Q1159 1337 1119.5 1297.0Q1080 1257 1024 1257Q967 1257 927.5 1297.0Q888 1337 888 1393Q888 1432 911 1470Q922 1488 922 1509Q922 1522 916 1536L881 1611Q805 1759 640 1759Q546 1759 474.0 1702.5Q402 1646 378 1559L324 1246L569 1310Q587 1313 601 1313Q657 1313 697.0 1273.0Q737 1233 737 1177Q737 1172 737.5 1168.0Q738 1164 738 1160ZM1347 1024 1328 1092H718L702 1024ZM1482 513 1365 956H684L565 513ZM1546 274 1502 442H548L503 274ZM407 203 668 1167Q669 1171 669 1177Q669 1245 601 1245Q591 1245 581 1242L235 1149L302 1532Q321 1658 416.5 1742.5Q512 1827 640 1827Q743 1827 827.0 1770.0Q911 1713 953 1622L979 1565Q990 1538 990 1509Q990 1473 971 1437Q956 1415 956 1393Q956 1325 1024 1325Q1092 1325 1092 1393Q1092 1415 1077 1437Q1058 1473 1058 1509Q1058 1537 1069 1566L1095 1622Q1137 1713 1220.5 1770.0Q1304 1827 1408 1827Q1535 1827 1630.0 1742.5Q1725 1658 1746 1532L1814 1149L1467 1242Q1456 1245 1446 1245Q1379 1245 1379 1177Q1379 1168 1381 1164L1637 203Z"/>
</g>
</svg>