<svg xmlns="http://www.w3.org/2000/svg" viewBox="0 0 2048 2048">
<g transform="translate(1024.0, 1024.0) scale(1.3128205128205128, -1.3128205128205128) translate(-683.0, -702.0)">
<path fill="#101010" d="M876 432Q884 388 898 358H468Q483 396 490 432ZM872 450Q773 482 682 482Q592 482 493 450L455 530Q576 571 682 570Q799 568 910 530ZM522 270Q518 266 517 263L514 257Q485 213 455 207Q424 201 381 201H173Q107 201 54 149Q0 96 0 0H413Q513 0 598 71Q682 142 682 236Q682 142 766 71Q851 0 953 0H1366Q1366 97 1311.0 149.0Q1256 201 1193 201H984Q942 201 910 207Q879 213 852 257Q848 263 844 270H1015Q959 368 956 462Q1050 560 1091 648Q1130 734 1095 834Q1069 912 997 991Q927 1069 738 1197Q754 1207 776 1227Q800 1248 800 1293Q800 1341 765 1373Q731 1404 682 1404Q634 1404 600 1373Q565 1341 565 1293Q565 1248 589 1227Q611 1207 627 1197Q440 1071 368 991Q296 912 270 834Q234 734 274 648Q315 559 410 462Q406 368 350 270ZM635 956H730V868H826V778H730V632H635V778H540V868H635Z"/>
</g>
</svg>