<svg xmlns="http://www.w3.org/2000/svg" viewBox="0 0 2048 2048">
<g transform="translate(1024.0, 1024.0) scale(1.314689872939927, -1.314689872939927) translate(-701.0018248175182, -683.5)">
<path fill="#101010" d="M1014 400Q1215 609 1213 749Q1211 846 1074 889Q1016 908 965.0 851.5Q914 795 869 662Q840 582 839 459Q931 442 1014 400ZM388 400Q187 609 189 749Q191 846 328 889Q386 908 437.0 851.5Q488 795 533 662Q562 582 563 459Q471 442 388 400ZM477 211 379 145H674L555 218L700 318L845 218L729 145H1028L927 210L1040 284L1061 91H347L366 281ZM1181 0 1130 304Q1403 543 1402 751Q1401 1017 1075 1076Q993 1091 857 971Q796 1061 740 1081V1203H842V1288H740V1367H662V1288H560V1203H662V1081Q604 1060 546 972Q400 1085 327 1076Q0 1034 0 751Q0 547 272 304L221 0ZM746 378Q755 601 776 664Q892 1006 1076 982Q1284 955 1304 749Q1323 535 1040 301Q873 363 746 378ZM603 908Q670 995 701 995Q733 995 799 908Q720 788 701 716Q681 792 603 908ZM656 378Q534 363 366 301Q81 614 98 749Q125 957 326 982Q496 1004 626 664Q641 624 656 378ZM702 848Q710 875 725 899Q712 922 701 923Q692 923 679 899Q690 881 702 848Z"/>
</g>
</svg>