<svg xmlns="http://www.w3.org/2000/svg" viewBox="0 0 2048 2048">
<g transform="translate(1024.0, 1024.0) scale(1.3279538904899135, -1.3279538904899135) translate(-619.0, -694.0)">
<path fill="#101010" d="M193 839 234 797 160 719 99 779ZM605 985Q627 951 608.0 934.0Q589 917 528 917H406L448 978Q531 1098 605 985ZM0 832 10 584 111 655 154 614 58 545 238 444Q241 454 247 472Q258 503 285 529Q314 558 373 578Q470 607 530 600Q596 592 688 648Q783 707 823 868Q824 852 832 838Q838 824 838 810Q838 676 783 617Q730 560 668.0 537.0Q606 514 552 512L500 511Q485 501 456 482Q416 456 387 450Q274 356 234 252Q194 151 202 0L1238 1Q1208 68 1190 159Q1172 243 1186 356Q1223 650 1146 859Q1070 1064 786 1207L706 1388L610 1260Q528 1204 426 1140Q334 1083 330 1050ZM1107 57Q951 104 948 288Q946 410 958 562Q968 703 945 854Q938 909 754 1139Q968 1047 1017 909Q1067 769 1059 616Q1051 477 1036 314Q1022 164 1107 57Z"/>
</g>
</svg>