<svg xmlns="http://www.w3.org/2000/svg" viewBox="0 0 2048 2048">
<g transform="translate(1024.0, 1024.0) scale(1.4924696356275304, -1.4924696356275304) translate(-481.4192799070848, -617.5)">
<path fill="#101010" d="M963 0V62Q966 128 928 177Q891 223 824 267Q726 342 680 447Q634 551 616 670H854L618 869Q690 930 690 1027Q690 1113 629.0 1174.0Q568 1235 482 1235Q395 1235 334.0 1174.0Q273 1113 273 1027Q273 932 345 869L108 670H347Q327 549 282 447Q236 342 138 267Q71 223 34 177Q-4 128 0 62V0H482Z"/>
</g>
</svg>