<svg xmlns="http://www.w3.org/2000/svg" viewBox="0 0 2048 2048">
<g transform="translate(1024.0, 1024.0) scale(1.2598769651401232, -1.2598769651401232) translate(-731.5, -649.8676470588235)">
<path fill="#101010" d="M391 388Q563 468 732 467Q909 466 1085 380L1072 310Q890 383 732 383Q576 383 398 308ZM509 211 411 145H706L587 218L732 318L877 218L761 145H1060L959 210L1072 284L1093 91H379L398 281ZM1216 0Q1122 192 1168 381Q1216 567 1338 756Q1344 754 1354 754Q1399 754 1431.0 786.0Q1463 818 1463.0 863.0Q1463 908 1431.0 940.0Q1399 972 1354 972Q1308 972 1276.0 940.0Q1244 908 1244 863Q1244 854 1249 832Q1252 818 1263 804L1099 688L1015 1092Q1068 1119 1075 1179Q1079 1214 1050 1254Q1022 1294 978 1299Q932 1303 898 1275Q862 1246 858 1201Q852 1143 896 1107L732 764L566 1107Q610 1143 604 1201Q599 1247 565 1275Q529 1304 485 1299Q441 1295 412 1254Q384 1215 388 1179Q392 1119 448 1092L364 688L200 804Q207 815 213 832Q218 847 218 863Q218 908 186 940Q152 972 108.0 972.0Q64 972 32.0 940.0Q0 908 0.0 863.0Q0 818 32.0 786.0Q64 754 108 754Q118 754 124 756Q247 566 293 381Q340 191 246 0H732Z"/>
</g>
</svg>