<svg xmlns="http://www.w3.org/2000/svg" viewBox="0 0 2048 2048">
<g transform="translate(1024.0, 1024.0) scale(1.287899307835156, -1.287899307835156) translate(-683.0, -715.5838926174497)">
<path fill="#f9f9f9" d="M552 868V769H628V631H736V769H816V868H736V954H628V868ZM682 574Q528 576 461 545Q324 677 365 802Q413 952 682 1127Q952 949 1001 801Q1044 668 907 548Q829 574 682 574ZM499 365Q513 415 508 442Q574 470 682 470Q804 470 854 442Q852 410 869 365ZM682 1240Q630 1240 630 1295Q630 1341 682 1341Q736 1341 736 1295Q736 1242 682 1240ZM619 270Q618 172 541 117Q485 77 423 77H95L115 106Q131 128 170 128H370Q458 128 521 156Q561 174 591 270ZM769 270Q784 210 862 156Q903 128 995 128H1195Q1237 128 1256 106Q1268 91 1274 77H942Q878 77 823 117Q746 173 746 270ZM763 1180Q835 1220 835 1292Q835 1436 685 1431Q533 1428 533 1294Q533 1214 603 1180Q431 1068 368 991Q293 903 270 834Q235 731 274 648Q315 559 410 462Q406 368 350 270H513Q499 226 455 207Q442 201 381 201H173Q107 201 54 149Q0 96 0 0H413Q513 0 598 71Q682 142 682 236Q682 142 766 71Q851 0 953 0H1366Q1366 97 1311.0 149.0Q1256 201 1193 201H984Q920 201 910 207Q853 242 844 270H1015Q959 368 956 462Q1050 560 1091 648Q1130 734 1095 834Q1069 912 997 991Q980 1010 763 1180Z"/>
</g>
</svg>