<svg xmlns="http://www.w3.org/2000/svg" viewBox="0 0 2048 2048">
<g transform="translate(1024.0, 1024.0) scale(1.314689872939927, -1.314689872939927) translate(-701.0018248175182, -683.5)">
<path fill="#f9f9f9" d="M1181 0 1130 304Q1403 543 1402 751Q1401 1017 1075 1076Q993 1091 857 971Q796 1061 740 1081V1203H842V1288H740V1367H662V1288H560V1203H662V1081Q604 1060 546 972Q400 1085 327 1076Q0 1034 0 751Q0 547 272 304L221 0ZM746 459Q750 601 776 664Q906 1004 1076 982Q1284 955 1304 749Q1317 615 1068 382Q912 444 746 459ZM603 908Q670 995 701 995Q733 995 799 908Q720 788 701 716Q681 792 603 908ZM656 459Q490 444 334 382Q85 615 98 749Q118 955 326 982Q496 1004 626 664Q652 601 656 459ZM701 128 845 218 701 308 555 218ZM361 139 477 211 365 281Q554 359 701 358Q850 356 1040 283L928 210L1050 131L1061 91H347Z"/>
</g>
</svg>