<svg xmlns="http://www.w3.org/2000/svg" viewBox="0 0 2048 2048">
<g transform="translate(1024.0, 1024.0) scale(1.3279538904899135, -1.3279538904899135) translate(-619.0, -694.0)">
<path fill="#f9f9f9" d="M232 817 259 790 216 727 169 772ZM637 958Q563 1071 481 950L455 912H577Q623 912 638.0 923.5Q653 935 637 958ZM301 97Q301 175 341 242Q392 330 441 366Q547 391 580 464Q598 507 638 553Q649 582 688 587Q760 596 808 665Q875 765 820 885Q743 676 671 675Q616 674 604 658Q561 683 424 680Q337 679 261 627L126 765L91 741V780L391 979Q414 1027 496 1078Q528 1097 580.0 1129.0Q632 1161 653 1173L685 1209L715 1134Q933 1053 1032 801Q1099 632 1048 263Q1042 211 1067 97ZM0 832 10 584 111 656 154 614 58 545 238 444Q241 454 247 472Q258 503 285 529Q314 558 373 578Q429 597 530 580Q497 529 483 509Q451 463 387 450Q274 355 234 253Q194 152 202 0H1238Q1208 69 1190 160Q1172 247 1186 356Q1223 650 1146 859Q1070 1064 786 1207L706 1388L610 1260Q528 1204 426 1140Q334 1083 330 1050Z"/>
</g>
</svg>