<svg xmlns="http://www.w3.org/2000/svg" viewBox="0 0 2048 2048">
<g transform="translate(1024.0, 1024.0) scale(1.4924696356275304, -1.4924696356275304) translate(-481.4192799070848, -617.5)">
<path fill="#f9f9f9" d="M478 883Q371 894 372 1021Q373 1084 400.0 1115.0Q427 1146 482 1145Q582 1144 582 1031Q582 901 485 883L618 749H343ZM105 99Q111 141 203 200Q310 269 371 398Q426 515 440 670H520Q547 477 592 398Q678 245 754 199Q839 146 852 99ZM963 0V62Q966 128 928 177Q891 223 824 267Q726 342 680 447Q634 551 616 670H854L618 869Q690 930 690 1027Q690 1113 629.0 1174.0Q568 1235 482 1235Q395 1235 334.0 1174.0Q273 1113 273 1027Q273 932 345 869L108 670H347Q327 549 282 447Q236 342 138 267Q71 223 34 177Q-4 128 0 62V0H482Z"/>
</g>
</svg>