<svg xmlns="http://www.w3.org/2000/svg" viewBox="0 0 2048 2048">
<g transform="translate(1024.0, 1024.0) scale(1.2598769651401232, -1.2598769651401232) translate(-731.5, -649.8676470588235)">
<path fill="#f9f9f9" d="M732 128 876 218 732 308 586 218ZM392 139 508 211 396 281Q585 359 732 358Q880 356 1071 283L959 210L1081 131L1092 91H378ZM290 634 426 539 516 1000 732 569 942 1000 1038 539 1174 634 1079 385Q927 448 732 450Q539 450 386 385ZM1216 0Q1122 192 1168 381Q1216 567 1338 756Q1344 754 1354 754Q1399 754 1431.0 786.0Q1463 818 1463.0 863.0Q1463 908 1431.0 940.0Q1399 972 1354 972Q1308 972 1276.0 940.0Q1244 908 1244 863Q1244 854 1249 832Q1252 818 1263 804L1099 688L1015 1092Q1068 1119 1075 1179Q1079 1214 1050 1254Q1022 1294 978 1299Q932 1303 898 1275Q862 1246 858 1201Q852 1143 896 1107L732 764L566 1107Q610 1143 604 1201Q599 1247 565 1275Q529 1304 485 1299Q441 1295 412 1254Q384 1215 388 1179Q392 1119 448 1092L364 688L200 804Q207 815 213 832Q218 847 218 863Q218 908 186 940Q152 972 108.0 972.0Q64 972 32.0 940.0Q0 908 0.0 863.0Q0 818 32.0 786.0Q64 754 108 754Q118 754 124 756Q247 566 293 381Q340 191 246 0H732ZM147 863Q147 825 108.0 825.0Q69 825 69 863Q69 902 108.0 902.0Q147 902 147 863ZM535 1191Q535 1153 496.0 1153.0Q457 1153 457 1191Q457 1230 496.0 1230.0Q535 1230 535 1191ZM1393 863Q1393 825 1354.0 825.0Q1315 825 1315 863Q1315 902 1354.0 902.0Q1393 902 1393 863ZM967 1230Q1005 1230 1005 1191Q1005 1153 967 1153Q928 1153 928 1191Q928 1230 967 1230Z"/>
</g>
</svg>