<svg xmlns="http://www.w3.org/2000/svg" viewBox="0 0 2048 2048">
<g transform="translate(1024.0, 1024.0) scale(1.1238233707759775, -1.1238233707759775) translate(-1024.0, -611.9423076923077)">
<path fill="#101010" d="M1290 161 1248 263Q1146 285 1024 285Q903 285 802 263L760 162Q884 193 1024 193Q1162 193 1290 161ZM1206 367 1177 437V464Q1101 475 1024 475Q949 475 872 464L871 437L844 367Q929 382 1024 382Q1120 382 1206 367ZM1171 -11Q1131 19 1091 84H1059Q1059 35 1082 -11ZM965 -11Q988 38 988 84H956Q917 20 875 -11ZM1024 -29Q1010 -86 990.0 -108.0Q970 -130 937 -154Q901 -179 852.0 -196.5Q803 -214 743 -205L462 -166Q445 -164 431.5 -166.0Q418 -168 406 -168Q385 -168 352.5 -177.5Q320 -187 302 -205L205 -46Q223 -26 237.0 -18.0Q251 -10 270 -1Q328 26 394 32Q422 34 449.0 33.0Q476 32 505 35Q559 26 613.5 18.5Q668 11 723 3Q783 3 804 15Q815 21 839.0 37.0Q863 53 887 84Q834 90 779.0 104.5Q724 119 682 135L786 393Q708 438 677.0 465.5Q646 493 628 529Q602 575 594.5 618.0Q587 661 588 695Q589 755 616.5 827.5Q644 900 720 957Q783 1005 843.0 1056.0Q903 1107 962 1175Q888 1213 888 1296Q888 1352 927.5 1392.0Q967 1432 1024 1432Q1080 1432 1120.0 1392.0Q1160 1352 1160 1296Q1160 1214 1086 1175Q1144 1107 1203.5 1056.0Q1263 1005 1328 957Q1403 900 1430.0 827.5Q1457 755 1459 695Q1459 661 1452.0 618.0Q1445 575 1420 529Q1400 493 1369.5 465.5Q1339 438 1262 393L1366 135Q1322 119 1267.0 104.5Q1212 90 1161 84Q1184 53 1208.0 37.0Q1232 21 1244 15Q1265 3 1325 3Q1379 11 1433.5 18.5Q1488 26 1543 35Q1570 32 1597.5 33.0Q1625 34 1654 32Q1718 26 1778 -1Q1796 -10 1810.5 -18.0Q1825 -26 1843 -46L1745 -205Q1727 -187 1694.5 -177.5Q1662 -168 1642 -168Q1629 -168 1615.5 -166.0Q1602 -164 1585 -166L1305 -205Q1245 -214 1193.5 -197.0Q1142 -180 1109 -152Q1076 -125 1056.5 -105.5Q1037 -86 1024 -29ZM987 715V630Q987 593 1024 593Q1061 593 1061 630V716H1151Q1186 716 1186 752Q1186 788 1151 788H1061V878Q1061 915 1024 915Q987 915 987 878V788H899Q864 788 864 752Q864 716 899 716Z"/>
</g>
</svg>