<svg xmlns="http://www.w3.org/2000/svg" viewBox="0 0 2048 2048">
<g transform="translate(1024.0, 1024.0) scale(1.069551820175569, -1.069551820175569) translate(-1023.7843739757457, -603.0)">
<path fill="#101010" d="M1133 444Q1133 473 1139.5 526.5Q1146 580 1160 610Q1197 691 1266 760Q1286 780 1352 814Q1417 846 1491 846Q1547 846 1602.5 826.5Q1658 807 1686 767Q1711 733 1711 657Q1711 597 1662 545Q1630 512 1593.0 478.5Q1556 445 1522 400Q1464 420 1360.5 431.0Q1257 442 1133 444ZM1060 366Q1232 363 1342.0 349.0Q1452 335 1540 316Q1595 370 1662.0 419.0Q1729 468 1756 503Q1804 568 1804 665Q1804 754 1761 814Q1684 927 1526 927Q1434 927 1334 887Q1243 851 1202 809Q1117 727 1078 593Q1063 547 1061.5 476.0Q1060 405 1060 366ZM1518 193Q1334 244 1028 244Q720 244 532 192L547 91Q736 140 1028 140Q1319 140 1502 92ZM1544 -106 1514 12Q1319 57 1024 57Q732 57 536 12L504 -107Q694 -49 1025 -49Q1184 -49 1320.0 -65.0Q1456 -81 1544 -106ZM463 101 430 288Q429 288 427 292Q422 299 398.5 310.5Q375 322 344 350Q300 387 275.5 410.0Q251 433 231 460Q170 544 163 663Q153 778 256 892Q360 1006 537 999Q603 995 692 967Q721 955 751.5 943.5Q782 932 812 920Q828 912 840 904Q835 925 835 946Q835 1024 890.5 1079.0Q946 1134 1024 1135Q1102 1135 1157.0 1079.5Q1212 1024 1212 947Q1212 931 1208 905Q1222 914 1235 920Q1281 940 1356 967Q1442 996 1511 1000Q1688 1008 1791 893Q1892 779 1885 664Q1877 545 1816 461Q1796 434 1771.0 410.5Q1746 387 1704 351Q1671 323 1648.0 311.5Q1625 300 1621 293Q1620 291 1619.0 290.0Q1618 289 1618 288L1586 100L1652 -147Q1602 -192 1428.0 -221.0Q1254 -250 1026 -250Q794 -250 618.0 -219.5Q442 -189 397 -143ZM988 367Q988 407 986.0 477.5Q984 548 971 595Q930 729 847 811Q804 853 715 889Q613 929 522 929Q364 929 288 816Q245 756 245 666Q245 568 293 505Q318 469 389.0 416.0Q460 363 509 318Q596 337 705.5 351.0Q815 365 988 367ZM1024 618Q1031 646 1036 657Q1046 696 1059 723Q1065 740 1076.5 762.5Q1088 785 1101 814Q1109 831 1118.0 855.5Q1127 880 1136 904Q1144 924 1144 947Q1144 996 1109.0 1030.5Q1074 1065 1024 1065Q905 1065 905 946Q905 923 913 903Q935 838 947 813Q960 784 971.0 761.5Q982 739 990 722Q1003 689 1012 656Q1014 650 1024 618ZM1059 1138H988V1269H905Q871 1269 871 1302V1303Q871 1336 905 1336H988V1421Q988 1456 1024 1456Q1059 1456 1059 1421V1336H1145Q1178 1336 1178 1303V1302Q1178 1269 1145 1269L1060 1268ZM912 444Q787 442 683.5 431.0Q580 420 523 400Q493 437 453.5 474.5Q414 512 384 545Q334 596 334 657Q334 732 359 767Q386 807 442.0 826.5Q498 846 555 846Q627 846 693 814Q758 780 779 760Q847 691 885 610Q898 580 904.5 526.5Q911 473 912 444ZM1024 789Q1022 799 1019 806Q1013 826 1009 835Q1006 842 1001.0 852.5Q996 863 991 875Q988 882 983.5 893.5Q979 905 976 915Q973 924 973 934Q973 987 1024 987Q1077 987 1077 935Q1077 922 1073 916Q1059 878 1058 875Q1043 845 1039 836Q1032 820 1030 807Q1027 801 1026.0 796.5Q1025 792 1024 789Z"/>
</g>
</svg>