<svg xmlns="http://www.w3.org/2000/svg" viewBox="0 0 2048 2048">
<g transform="translate(1024.0, 1024.0) scale(1.0816901408450705, -1.0816901408450705) translate(-1025.0, -623.0)">
<path fill="#101010" d="M490 262Q494 271 503 289Q520 331 520 339Q518 367 491 367Q471 367 444 310Q440 302 432 296Q405 268 440 249Q472 230 490 262ZM1080 633Q1150 725 1149 838Q1145 871 1111 871Q1065 871 1075 837Q1078 782 1064 746Q1041 689 1013 661Q998 631 1031 617Q1063 602 1080 633ZM819 1121Q814 1157 821 1199Q761 1187 708 1143Q676 1126 693 1096Q710 1065 740 1086Q761 1097 778.5 1106.5Q796 1116 819 1121ZM1756 -147Q1755 -147 1758.0 -92.5Q1761 -38 1761 25Q1762 150 1761.0 283.5Q1760 417 1725 550Q1691 678 1650.0 768.5Q1609 859 1561 925Q1489 1033 1365.0 1108.0Q1241 1183 1106 1206Q1110 1183 1108.5 1159.0Q1107 1135 1109 1113Q1206 1080 1292.0 1031.0Q1378 982 1418 925Q1466 859 1507.0 768.5Q1548 678 1582 550Q1616 417 1617.0 283.5Q1618 150 1618 25Q1618 -38 1615.0 -92.5Q1612 -147 1615 -147ZM1079 1276Q1236 1266 1370.0 1195.0Q1504 1124 1598 1013Q1664 935 1722.5 825.0Q1781 715 1816 592Q1856 449 1866.5 291.5Q1877 134 1877 0V-218Q1877 -218 1721.5 -218.0Q1566 -218 1318 -218H647Q638 -218 638.5 -169.0Q639 -120 645 -90Q649 -66 664.0 -22.0Q679 22 714 85Q730 117 790.0 178.5Q850 240 928 321Q973 367 998.5 437.0Q1024 507 1020 564Q983 534 939 515Q727 439 632 295Q625 286 587 214Q567 176 553 162Q534 143 498 141Q442 138 411 195Q369 183 336 185Q280 206 255 230Q204 281 188.5 332.0Q173 383 173 442Q173 526 277 664Q399 823 407 906Q407 942 414 987Q420 1018 439 1047Q452 1067 456.5 1074.5Q461 1082 473 1097Q482 1109 488.0 1115.5Q494 1122 503 1133Q514 1146 531 1163Q478 1309 488 1464Q687 1393 822 1241Q855 1354 952 1424Q1032 1368 1079 1276ZM404 440Q433 460 410 488Q386 511 357 492Q296 452 292 387Q293 354 331 356Q367 359 366 393Q374 425 404 440ZM656 938Q678 949 678 949Q708 961 697 993Q685 1023 651 1013Q533 970 488 855Q481 822 512 810Q543 800 554 832Q562 849 566 854Q577 845 595 842Q656 832 666 896Q669 918 656 938Z"/>
</g>
</svg>