<svg xmlns="http://www.w3.org/2000/svg" viewBox="0 0 2048 2048">
<g transform="translate(1024.0, 1024.0) scale(1.1259621258399513, -1.1259621258399513) translate(-1023.5, -602.5)">
<path fill="#101010" d="M1024 -216H484Q444 -116 444 -7Q444 178 549.0 325.0Q654 472 819 535Q748 568 703.5 634.5Q659 701 659 785Q659 890 729.0 967.0Q799 1044 901 1056Q820 1117 820 1217Q820 1301 879.5 1361.0Q939 1421 1024 1421Q1108 1421 1168.0 1361.0Q1228 1301 1228 1217Q1228 1117 1147 1056Q1249 1044 1319.0 967.0Q1389 890 1389 785Q1389 701 1343.5 634.5Q1298 568 1228 535Q1393 472 1498.0 325.0Q1603 178 1603 -7Q1603 -115 1564 -216Z"/>
</g>
</svg>