<svg xmlns="http://www.w3.org/2000/svg" viewBox="0 0 2048 2048">
<g transform="translate(1024.0, 1024.0) scale(0.9963243243243244, -0.9963243243243244) translate(-1025.0, -617.0)">
<path fill="#101010" d="M1588 372Q1505 402 1354.5 421.5Q1204 441 1022 441Q844 441 696.0 422.5Q548 404 463 374L513 283Q597 308 731.0 319.0Q865 330 1024 330Q1183 330 1318.0 319.0Q1453 308 1537 282ZM1814 1040Q1757 1040 1717.0 1079.5Q1677 1119 1677 1176Q1677 1232 1717.0 1272.5Q1757 1313 1814 1313Q1870 1313 1910.0 1272.5Q1950 1232 1950 1176Q1950 1119 1910.0 1079.5Q1870 1040 1814 1040ZM236 1040Q179 1040 139.5 1079.5Q100 1119 100 1176Q100 1232 139.5 1272.5Q179 1313 236 1313Q293 1313 333.0 1272.5Q373 1232 373 1176Q373 1119 333.0 1079.5Q293 1040 236 1040ZM1444 1150Q1387 1150 1347.5 1189.5Q1308 1229 1308 1286Q1308 1342 1347.5 1382.0Q1387 1422 1444 1422Q1501 1422 1541.0 1382.0Q1581 1342 1581 1286Q1581 1229 1541.0 1189.5Q1501 1150 1444 1150ZM604 1150Q547 1150 507.0 1189.5Q467 1229 467 1286Q467 1342 507.0 1382.0Q547 1422 604 1422Q660 1422 700.0 1382.0Q740 1342 740 1286Q740 1229 700.0 1189.5Q660 1150 604 1150ZM1640 -138Q1591 -181 1420.0 -210.0Q1249 -239 1026 -239Q799 -239 627.0 -209.0Q455 -179 410 -134L473 106L445 263L357 416L272 1038L321 1057L595 595L601 1145L669 1157L878 604L990 1199H1059L1171 606L1378 1157L1447 1145L1453 595L1728 1058L1775 1036L1692 417L1603 264L1575 105ZM1544 -106 1514 12Q1319 57 1024 57Q732 57 536 12L504 -107Q694 -49 1025 -49Q1184 -49 1320.0 -65.0Q1456 -81 1544 -106ZM1518 193Q1334 244 1028 244Q720 244 532 192L547 91Q736 140 1028 140Q1319 140 1502 92ZM1024 1200Q967 1200 927.5 1240.0Q888 1280 888 1337Q888 1393 927.5 1433.0Q967 1473 1024 1473Q1080 1473 1120.5 1433.0Q1161 1393 1161 1337Q1161 1280 1120.5 1240.0Q1080 1200 1024 1200Z"/>
</g>
</svg>