<svg xmlns="http://www.w3.org/2000/svg" viewBox="0 0 2048 2048">
<g transform="translate(1024.0, 1024.0) scale(1.1252747252747253, -1.1252747252747253) translate(-1023.5, -603.0)">
<path fill="#101010" d="M1161 1285H1331V1422H1605V1047L1383 876V398L1553 228V23H1706V-216H341V23H494V228L665 398V876L443 1047V1422H716V1285H887V1422H1161ZM564 39V-63H1484V39ZM1024 1131H512V1085L585 1030H1464L1535 1085V1131ZM1024 962H674L734 915V858H1314V915L1374 962ZM1024 416H734V370L674 312H1374L1314 370V416ZM1024 244H610L564 201V143H1484V201L1438 244Z"/>
</g>
</svg>