<svg xmlns="http://www.w3.org/2000/svg" viewBox="0 0 2048 2048">
<g transform="translate(1024.0, 1024.0) scale(1.1238233707759775, -1.1238233707759775) translate(-1024.0, -611.9423076923077)">
<path fill="#f9f9f9" d="M988 717 905 718Q871 718 871 752Q871 786 905 786H988V872Q988 907 1024 907Q1059 907 1059 872V786H1145Q1178 786 1178 752Q1178 718 1145 718H1059V636Q1059 600 1024 600Q988 600 988 636ZM1024 139Q1092 139 1156.5 150.5Q1221 162 1281 178Q1164 209 1024 209Q882 209 767 178Q825 162 890.0 150.5Q955 139 1024 139ZM1024 1228Q1092 1228 1092 1296Q1092 1364 1024 1364Q956 1364 956 1296Q956 1228 1024 1228ZM1024 279Q1141 279 1249 256L1201 379Q1113 393 1024 393Q933 393 846 379L798 256Q905 279 1024 279ZM1024 461Q1121 461 1210 446Q1308 481 1352 555Q1390 619 1390 696Q1390 742 1367.0 797.5Q1344 853 1292 898Q1233 947 1163.0 1005.5Q1093 1064 1024 1142Q954 1064 884.0 1005.5Q814 947 756 898Q703 853 680.5 797.5Q658 742 658 696Q658 619 695 555Q738 481 838 446Q926 461 1024 461ZM988 84H956Q900 -6 849 -29Q825 -41 796.0 -51.0Q767 -61 729 -61Q722 -61 622 -45Q574 -38 546.0 -30.0Q518 -22 502 -20Q445 -13 369 -26Q323 -34 283 -55L331 -133Q343 -121 362.5 -117.5Q382 -114 398 -110Q440 -103 478 -108Q491 -111 529.0 -115.5Q567 -120 630 -130Q705 -141 732 -141Q837 -141 893 -101Q927 -75 957.5 -28.5Q988 18 988 84ZM1024 -29Q1010 -86 990.0 -108.0Q970 -130 937 -154Q901 -179 852.0 -196.5Q803 -214 743 -205L462 -166Q445 -164 431.5 -166.0Q418 -168 406 -168Q385 -168 352.5 -177.5Q320 -187 302 -205L205 -46Q223 -26 237.0 -18.0Q251 -10 270 -1Q328 26 394 32Q422 34 449.0 33.0Q476 32 505 35Q559 26 613.5 18.5Q668 11 723 3Q783 3 804 15Q815 21 839.0 37.0Q863 53 887 84Q834 90 779.0 104.5Q724 119 682 135L786 393Q708 438 677.0 465.5Q646 493 628 529Q602 575 594.5 618.0Q587 661 588 695Q589 755 616.5 827.5Q644 900 720 957Q783 1005 843.0 1056.0Q903 1107 962 1175Q888 1213 888 1296Q888 1352 927.5 1392.0Q967 1432 1024 1432Q1080 1432 1120.0 1392.0Q1160 1352 1160 1296Q1160 1214 1086 1175Q1144 1107 1203.5 1056.0Q1263 1005 1328 957Q1403 900 1430.0 827.5Q1457 755 1459 695Q1459 661 1452.0 618.0Q1445 575 1420 529Q1400 493 1369.5 465.5Q1339 438 1262 393L1366 135Q1322 119 1267.0 104.5Q1212 90 1161 84Q1184 53 1208.0 37.0Q1232 21 1244 15Q1265 3 1325 3Q1379 11 1433.5 18.5Q1488 26 1543 35Q1570 32 1597.5 33.0Q1625 34 1654 32Q1718 26 1778 -1Q1796 -10 1810.5 -18.0Q1825 -26 1843 -46L1745 -205Q1727 -187 1694.5 -177.5Q1662 -168 1642 -168Q1629 -168 1615.5 -166.0Q1602 -164 1585 -166L1305 -205Q1245 -214 1193.5 -197.0Q1142 -180 1109 -152Q1076 -125 1056.5 -105.5Q1037 -86 1024 -29ZM1059 84Q1059 18 1089.5 -28.5Q1120 -75 1155 -101Q1210 -141 1316 -141Q1342 -141 1418 -130Q1480 -120 1518.0 -115.5Q1556 -111 1569 -108Q1607 -103 1649 -110Q1665 -114 1684.5 -117.5Q1704 -121 1717 -133L1765 -55Q1724 -34 1678 -26Q1602 -13 1545 -20Q1528 -22 1500.5 -30.0Q1473 -38 1426 -45Q1325 -61 1319 -61Q1280 -61 1251.0 -51.0Q1222 -41 1199 -29Q1146 -5 1091 84Z"/>
</g>
</svg>