<svg xmlns="http://www.w3.org/2000/svg" viewBox="0 0 2048 2048">
<g transform="translate(1024.0, 1024.0) scale(1.069551820175569, -1.069551820175569) translate(-1023.7843739757457, -603.0)">
<path fill="#f9f9f9" d="M524 162Q714 210 1028 210Q1336 210 1525 164L1550 311Q1349 364 1024 364Q697 364 499 310ZM463 101 430 288Q429 288 427 292Q422 299 398.5 310.5Q375 322 344 350Q300 387 275.5 410.0Q251 433 231 460Q170 544 163 663Q153 778 256 892Q360 1006 537 999Q603 995 692 967Q721 955 751.5 943.5Q782 932 812 920Q828 912 840 904Q835 925 835 946Q835 1024 890.5 1079.0Q946 1134 1024 1135Q1102 1135 1157.0 1079.5Q1212 1024 1212 947Q1212 931 1208 905Q1222 914 1235 920Q1281 940 1356 967Q1442 996 1511 1000Q1688 1008 1791 893Q1892 779 1885 664Q1877 545 1816 461Q1796 434 1771.0 410.5Q1746 387 1704 351Q1671 323 1648.0 311.5Q1625 300 1621 293Q1620 291 1619.0 290.0Q1618 289 1618 288L1586 100L1652 -147Q1602 -192 1428.0 -221.0Q1254 -250 1026 -250Q794 -250 618.0 -219.5Q442 -189 397 -143ZM1544 -16 1514 99Q1316 143 1024 143Q733 143 535 99L503 -17Q694 39 1025 39Q1354 39 1544 -16ZM1570 -110Q1377 -32 1028 -32Q666 -32 480 -112Q656 -182 1025 -182Q1201 -182 1346.0 -162.5Q1491 -143 1570 -110ZM989 432Q988 471 986.0 509.5Q984 548 971 595Q930 729 847 811Q804 853 715 889Q613 929 522 929Q364 929 288 816Q245 756 245 666Q245 568 293 505Q322 468 367.0 431.0Q412 394 451 364Q626 427 989 432ZM1024 618Q1031 646 1036 657Q1046 696 1059 723Q1065 740 1076.5 762.5Q1088 785 1101 814Q1109 831 1118.0 855.5Q1127 880 1136 904Q1144 924 1144 947Q1144 996 1109.0 1030.5Q1074 1065 1024 1065Q905 1065 905 946Q905 923 913 903Q935 838 947 813Q960 784 971.0 761.5Q982 739 990 722Q1003 689 1012 656Q1014 650 1024 618ZM1058 432Q1230 430 1373.0 411.5Q1516 393 1597 365Q1635 395 1680.0 431.5Q1725 468 1755 506Q1803 567 1803 667Q1803 757 1760 817Q1683 929 1526 929Q1432 929 1333 890Q1246 855 1201 812Q1117 728 1077 596Q1063 549 1060.5 510.5Q1058 472 1058 432ZM1059 1138H988V1269H905Q871 1269 871 1302V1303Q871 1336 905 1336H988V1421Q988 1456 1024 1456Q1059 1456 1059 1421V1336H1145Q1178 1336 1178 1303V1302Q1178 1269 1145 1269L1060 1268Z"/>
</g>
</svg>