<svg xmlns="http://www.w3.org/2000/svg" viewBox="0 0 2048 2048">
<g transform="translate(1024.0, 1024.0) scale(1.0816901408450705, -1.0816901408450705) translate(-1025.0, -623.0)">
<path fill="#f9f9f9" d="M697 938Q710 918 707 896Q697 832 636 842Q618 845 607 854Q603 849 595 832Q584 800 553 810Q522 822 529 855Q574 970 692 1013Q726 1023 737 993Q749 961 719 949Q713 946 708.0 943.5Q703 941 697 938ZM400 461Q371 443 365 413Q366 380 334 377Q299 373 298 407Q302 473 357 512Q383 533 405 508Q427 481 400 461ZM1079 1276Q1236 1266 1370.0 1195.0Q1504 1124 1598 1013Q1664 935 1722.5 825.0Q1781 715 1816 592Q1856 449 1866.5 291.5Q1877 134 1877 0V-218Q1877 -218 1721.5 -218.0Q1566 -218 1318 -218H647Q638 -218 638.5 -169.0Q639 -120 645 -90Q649 -66 664.0 -22.0Q679 22 714 85Q730 117 790.0 178.5Q850 240 928 321Q973 367 998.5 437.0Q1024 507 1020 564Q983 534 939 515Q727 439 632 295Q625 286 587 214Q567 176 553 162Q534 143 498 141Q442 138 411 195Q369 183 336 185Q280 206 255 230Q204 281 188.5 332.0Q173 383 173 442Q173 526 277 664Q399 823 407 906Q407 942 414 987Q420 1018 439 1047Q452 1067 456.5 1074.5Q461 1082 473 1097Q482 1109 488.0 1115.5Q494 1122 503 1133Q514 1146 531 1163Q478 1309 488 1464Q687 1393 822 1241Q855 1354 952 1424Q1032 1368 1079 1276ZM1756 -147Q1755 -147 1758.0 -92.5Q1761 -38 1761 25Q1762 150 1761.0 283.5Q1760 417 1725 550Q1691 678 1650.0 768.5Q1609 859 1561 925Q1489 1033 1365.0 1108.0Q1241 1183 1106 1206Q1115 1157 1114 1110Q1112 1074 1080 1074Q1043 1074 1047 1110Q1050 1242 953 1336Q877 1256 871 1150Q869 1115 835 1119Q803 1120 803 1156Q803 1156 805 1164Q764 1151 719 1127Q690 1107 672 1137Q654 1167 688 1184Q731 1206 753 1217Q667 1305 557 1359Q569 1220 633 1096Q650 1070 625 1050Q597 1028 578 1057Q571 1067 558 1093Q537 1072 530 1062Q523 1053 505.5 1022.0Q488 991 480 971Q471 946 472.5 930.5Q474 915 475 896Q466 837 434.5 785.0Q403 733 354 658Q307 586 282.0 550.0Q257 514 244 458Q235 424 244.0 375.5Q253 327 283 300Q329 253 372 257Q386 257 409.5 268.0Q433 279 446 310Q472 367 489 367Q514 367 516 339Q516 333 500 289Q491 269 476 247Q457 221 459 225Q475 168 512 205Q523 216 537.0 246.0Q551 276 581 327Q616 386 656.0 423.0Q696 460 727 483Q745 496 771.0 513.0Q797 530 841 548Q876 562 918.5 582.5Q961 603 994 635Q1040 680 1065 746Q1078 783 1075 837Q1066 871 1109 871Q1141 871 1145 838Q1145 725 1081 632Q1102 568 1092 492Q1083 431 1049.5 361.5Q1016 292 914 207Q707 35 718 -147Q718 -147 888.5 -147.0Q1059 -147 1209 -147Z"/>
</g>
</svg>