<svg xmlns="http://www.w3.org/2000/svg" viewBox="0 0 2048 2048">
<g transform="translate(1024.0, 1024.0) scale(1.1259621258399513, -1.1259621258399513) translate(-1023.5, -602.5)">
<path fill="#f9f9f9" d="M1024 -148H1515Q1536 -76 1536 -7Q1536 149 1449.5 276.0Q1363 403 1227 463Q1161 468 1161 535Q1161 588 1228 613Q1321 678 1321 785Q1321 862 1269.0 920.0Q1217 978 1143 987Q1083 992 1083 1055Q1083 1083 1105 1107Q1159 1149 1159 1217Q1159 1273 1119.0 1313.0Q1079 1353 1024 1353Q967 1353 927.5 1313.0Q888 1273 888 1217Q888 1150 942 1107Q964 1085 964 1055Q964 992 905 987Q830 978 778.5 920.0Q727 862 727 785Q727 678 820 613Q887 587 887 535Q887 468 820 463Q684 403 598.0 276.0Q512 149 512 -7Q512 -81 533 -148ZM1024 -216H484Q444 -116 444 -7Q444 178 549.0 325.0Q654 472 819 535Q748 568 703.5 634.5Q659 701 659 785Q659 890 729.0 967.0Q799 1044 901 1056Q820 1117 820 1217Q820 1301 879.5 1361.0Q939 1421 1024 1421Q1108 1421 1168.0 1361.0Q1228 1301 1228 1217Q1228 1117 1147 1056Q1249 1044 1319.0 967.0Q1389 890 1389 785Q1389 701 1343.5 634.5Q1298 568 1228 535Q1393 472 1498.0 325.0Q1603 178 1603 -7Q1603 -115 1564 -216Z"/>
</g>
</svg>