<svg xmlns="http://www.w3.org/2000/svg" viewBox="0 0 2048 2048">
<g transform="translate(1024.0, 1024.0) scale(0.9963243243243244, -0.9963243243243244) translate(-1025.0, -617.0)">
<path fill="#f9f9f9" d="M1024 1200Q967 1200 927.5 1240.0Q888 1280 888 1337Q888 1393 927.5 1433.0Q967 1473 1024 1473Q1080 1473 1120.5 1433.0Q1161 1393 1161 1337Q1161 1280 1120.5 1240.0Q1080 1200 1024 1200ZM1024 1270Q1091 1270 1091 1337Q1091 1403 1024 1403Q958 1403 958 1337Q958 1270 1024 1270ZM1533 263Q1340 312 1028 312Q708 312 517 262L532 166Q727 212 1028 212Q1327 212 1516 167ZM1558 323 1623 438Q1575 419 1525 419Q1391 419 1311 528Q1251 478 1177 478Q1081 478 1024 553Q960 483 871 483Q799 483 739 532Q655 425 522 425Q471 425 421 444L491 324Q685 380 1024 380Q1369 380 1558 323ZM1110 562 1025 1051 940 568Q943 570 954 578Q977 623 1024 623Q1075 623 1090 578Q1096 572 1110 562ZM1387 543V1006L1222 552Q1241 559 1254 570Q1274 595 1308 595Q1348 595 1372 560Q1375 556 1379.0 551.5Q1383 547 1387 543ZM825 557 661 1006V549Q664 553 670 559Q690 601 736 601Q774 601 798 569Q825 557 825 557ZM571 501 356 872 411 534Q468 494 522 494Q543 494 571 501ZM1474 496Q1497 489 1525 489Q1586 489 1639 527L1694 873ZM1534 -10 1504 103Q1308 146 1024 146Q743 146 545 103L514 -11Q700 45 1025 45Q1342 45 1534 -10ZM1640 -138Q1591 -181 1420.0 -210.0Q1249 -239 1026 -239Q799 -239 627.0 -209.0Q455 -179 410 -134L473 106L445 263L357 416L272 1038L321 1057L595 595L601 1145L669 1157L878 604L990 1199H1059L1171 606L1378 1157L1447 1145L1453 595L1728 1058L1775 1036L1692 417L1603 264L1575 105ZM1559 -102Q1376 -26 1028 -26Q673 -26 491 -104Q666 -173 1025 -173Q1197 -173 1339.5 -154.0Q1482 -135 1559 -102ZM604 1150Q547 1150 507.0 1189.5Q467 1229 467 1286Q467 1342 507.0 1382.0Q547 1422 604 1422Q660 1422 700.0 1382.0Q740 1342 740 1286Q740 1229 700.0 1189.5Q660 1150 604 1150ZM604 1220Q670 1220 670 1286Q670 1352 604 1352Q537 1352 537 1286Q537 1220 604 1220ZM1444 1220Q1511 1220 1511 1286Q1511 1352 1444 1352Q1378 1352 1378 1286Q1378 1220 1444 1220ZM1444 1150Q1387 1150 1347.5 1189.5Q1308 1229 1308 1286Q1308 1342 1347.5 1382.0Q1387 1422 1444 1422Q1501 1422 1541.0 1382.0Q1581 1342 1581 1286Q1581 1229 1541.0 1189.5Q1501 1150 1444 1150ZM236 1040Q179 1040 139.5 1079.5Q100 1119 100 1176Q100 1232 139.5 1272.5Q179 1313 236 1313Q293 1313 333.0 1272.5Q373 1232 373 1176Q373 1119 333.0 1079.5Q293 1040 236 1040ZM236 1110Q303 1110 303 1176Q303 1243 236 1243Q170 1243 170 1176Q170 1110 236 1110ZM1814 1110Q1880 1110 1880 1176Q1880 1243 1814 1243Q1747 1243 1747 1176Q1747 1110 1814 1110ZM1814 1040Q1757 1040 1717.0 1079.5Q1677 1119 1677 1176Q1677 1232 1717.0 1272.5Q1757 1313 1814 1313Q1870 1313 1910.0 1272.5Q1950 1232 1950 1176Q1950 1119 1910.0 1079.5Q1870 1040 1814 1040Z"/>
</g>
</svg>