<svg xmlns="http://www.w3.org/2000/svg" viewBox="0 0 2048 2048">
<g transform="translate(1024.0, 1024.0) scale(1.1252747252747253, -1.1252747252747253) translate(-1023.5, -603.0)">
<path fill="#f9f9f9" d="M1161 1285H1331V1422H1605V1047L1383 876V398L1553 228V23H1706V-216H341V23H494V228L665 398V876L443 1047V1422H716V1285H887V1422H1161ZM1639 -45H409V-148H1639ZM1484 159H564V23H1484ZM1314 876H734V398H1314ZM1536 1115V1354H1399V1217H1091V1354H956V1217H649V1354H512V1115ZM1459 228 1356 330H693L588 228ZM1349 944 1476 1047H572L700 944Z"/>
</g>
</svg>