<svg xmlns="http://www.w3.org/2000/svg" viewBox="0 0 2048 2048">
<g transform="translate(1024.0, 1024.0) scale(2.2533007334963324, -2.2533007334963324) translate(-409.0, -403.5)">
<path fill="#101010" d="M515 268Q474 274 452 277Q444 277 434.0 277.5Q424 278 419.0 278.5Q414 279 411 279Q380 279 360 275Q334 270 311 269Q287 266 262 242Q261 239 259 229Q262 228 276 228Q301 228 339.0 235.0Q377 242 411 242Q438 242 488 236Q537 230 541 230Q559 230 562 231Q552 247 551 249Q530 267 515 268ZM526 298Q524 310 526 316Q529 323 531 325Q520 327 509 335Q495 344 488 346Q478 349 452 351Q443 351 433.0 351.5Q423 352 418.0 352.5Q413 353 411 353Q376 353 367 352Q348 350 334 346Q317 341 309 335Q298 327 289 325Q290 324 292 319L294 317V315Q295 308 294 298L309 301Q320 307 332 313Q340 316 363 320Q369 320 376.5 320.5Q384 321 387.5 321.5Q391 322 393 322H404Q410 322 411 321Q416 322 428 322Q452 322 458 321Q473 319 488 313Q506 305 514 302ZM352 45Q339 35 332 29Q319 16 300 11Q279 6 261 4Q240 1 212.0 1.0Q184 1 171.0 2.0Q158 3 126 3H101Q87 3 84 4Q74 5 62 10Q49 14 33 35Q15 57 9 63Q0 70 0 81Q0 93 16 103Q17 104 23.5 108.0Q30 112 34 114Q41 118 47 121Q61 127 67 129Q85 131 90 131Q106 131 113.0 130.0Q120 129 138 129Q169 129 180.0 128.0Q191 127 217 127Q237 127 244 128Q251 128 276 132Q292 135 303 141Q312 146 312 158Q312 168 300 168Q295 167 282 167Q274 167 266 173Q255 179 234 186Q210 194 210 210Q210 231 235 253Q259 275 263 284Q266 292 266 300Q266 312 241 336Q216 358 208 378Q200 398 195 420Q189 444 189 474Q189 544 223 587Q256 629 273 645Q296 663 308 670Q325 680 342 688Q360 696 372 696Q372 698 373 699L374 702Q347 718 343 727Q340 734 340 745Q340 766 353 782Q366 797 378 801Q388 804 411 807Q412 807 422.0 804.5Q432 802 441 800Q454 797 467 782Q480 766 480 744Q480 735 477 726Q473 716 451 705L447 701Q446 700 444 698L443 696Q470 690 476 688L478 687Q480 686 483.5 684.0Q487 682 491 680Q514 667 516 666Q548 648 575 613Q602 577 616 545Q629 515 629 474Q629 424 615 388Q600 354 576 334Q552 313 552 299Q552 290 556 283Q560 274 584 252Q608 230 608 210Q608 194 586 187Q563 179 555 173Q546 167 533 167Q528 168 519 168Q506 168 506 160Q506 147 516 141Q525 135 539 133Q564 129 570 129Q602 127 604 127Q634 127 648 128L680 129Q698 129 705.0 130.0Q712 131 728 131Q733 131 751 129Q762 128 775 120Q781 116 786.5 113.0Q792 110 796.0 107.5Q800 105 802 104Q818 94 818 81Q818 70 809 63Q801 56 785 35Q767 14 757 10Q743 4 738 3Q735 2 720 2Q713 3 692 3Q655 3 645 2Q633 2 623.0 1.0Q613 0 600 0Q578 0 554 2Q538 4 521 10Q502 14 488 28Q472 42 466 46Q454 52 443 63Q427 75 412 85ZM428 424V484H484V520H428V580H392V520H332V484H392V424Z"/>
</g>
</svg>