<svg xmlns="http://www.w3.org/2000/svg" viewBox="0 0 2048 2048">
<g transform="translate(1024.0, 1024.0) scale(2.1482517482517482, -2.1482517482517482) translate(-401.0, -429.0)">
<path fill="#101010" d="M376 412V411Q365 455 349 476Q331 491 321 505Q319 507 313.0 513.5Q307 520 303 524Q279 540 267 547Q251 558 223 573Q202 581 180 581Q146 581 131 578Q115 575 88 557Q60 538 52 510Q43 482 43.0 463.0Q43 444 47 432Q49 422 52 411L54 400Q59 381 65 369Q74 350 86 332Q100 308 113 293Q125 280 142 263Q172 273 194 279Q235 289 260 293Q289 298 318 301Q356 303 376 303ZM660 263Q664 266 672 274Q679 281 682 285L689 292Q698 302 716 331Q732 358 740 373Q747 393 750 404L756 437Q759 454 759 464Q759 478 751 510Q742 536 716 556Q689 574 670 578Q650 581 622 581Q594 581 581 574Q564 566 539 550Q508 531 501 524Q489 514 476 499Q473 496 463.5 485.0Q454 474 447 466Q433 445 426 411V412V303Q444 303 486 301Q508 298 558 291Q559 291 565.0 289.5Q571 288 582.0 286.0Q593 284 605 281Q634 273 660 263ZM610 164Q614 164 613 171Q611 177 614 180Q607 194 605 199Q595 203 543 211Q484 219 457 219Q441 219 401 221Q383 220 343.0 218.0Q303 216 285 215Q211 204 202 202Q182 197 182 187L184 185Q185 183 186 182Q188 178 187.0 171.0Q186 164 190 164Q202 166 240 173Q293 183 299 184Q339 186 346 186H371Q377 185 402 185H434Q456 185 462 186Q464 186 468.0 185.5Q472 185 478.5 184.5Q485 184 491 184Q500 183 522 181Q534 179 572 172ZM461 619Q451 633 437 641Q419 649 402 649Q358 649 345 625Q331 599 331 586Q331 578 334 567Q334 566 334.5 563.5Q335 561 336 560Q336 555 337 552L338 547Q344 525 362 500Q380 471 401 445Q402 448 433 488Q460 525 464 547Q465 557 470 588Q470 604 461 619ZM539 114Q547 114 587 106Q620 98 644 91V96Q637 106 642 116Q644 122 637 126Q630 130 610 135Q589 140 562 144L532 149Q511 153 485 154Q476 155 437 155H403H367Q319 155 314 154H312Q310 153 306.0 152.5Q302 152 298 152Q292 151 283.0 149.5Q274 148 271 148Q238 142 202.0 136.0Q166 130 166 116Q167 115 167.5 112.5Q168 110 168 109Q170 104 166 100L162 91Q163 92 215 104Q254 114 267 114L403 116ZM426 785H500V735H425V677Q436 682 454.0 671.0Q472 660 483 648Q493 635 499 577Q500 575 506 569Q516 597 557 612Q601 626 630 626Q657 626 692 615Q721 605 736 596Q750 588 768 570Q787 548 794 523Q802 491 802 455Q802 413 779 365Q776 359 766.0 342.0Q756 325 750 313Q747 310 740.0 300.5Q733 291 726.0 281.0Q719 271 711 261Q677 218 670 209Q667 203 664.0 196.5Q661 190 659.0 186.0Q657 182 656 180Q651 165 651 156Q651 155 651.5 153.5Q652 152 652.5 149.0Q653 146 653 143Q655 135 679 125Q702 115 704 101Q708 73 678 61Q675 60 666.5 56.5Q658 53 652 50Q632 42 626 38Q603 27 576 22Q521 11 503 8Q453 0 402 0Q344 0 298 9Q295 9 286.0 11.0Q277 13 259.5 16.0Q242 19 225 22Q199 28 175 40Q168 42 149 51Q145 53 139.5 55.5Q134 58 130.0 59.5Q126 61 124 62Q96 77 100 101Q102 114 126 125Q151 137 152 147Q155 165 148 179Q148 181 145.0 185.5Q142 190 141 194Q135 204 132 209Q123 231 91 266Q60 300 37 342Q16 380 7 403Q0 421 0 455Q0 493 8 523Q15 550 35 570Q53 588 65 596Q71 600 109 615Q144 626 173 626Q204 626 237 615Q266 604 278 594Q290 582 294 569L296 571Q297 573 299 575Q307 633 317 646Q325 656 346 671Q363 682 374 677V735H300V785H374V858H426ZM345 414V413Q338 448 324 464Q306 482 298 492Q288 506 265 516Q244 531 229 538Q215 545 192.0 545.0Q169 545 162 544Q145 543 122.0 528.0Q99 513 93 490Q86 470 86 454Q86 452 88 436L93 411Q97 393 103 383Q105 377 122 346Q134 329 141 322Q156 305 163 299Q165 299 169.0 300.5Q173 302 181.0 304.0Q189 306 197 308Q204 310 221 314L243 320Q248 321 260 323Q263 324 269.5 324.5Q276 325 279 325Q281 325 284.0 325.5Q287 326 289.0 326.5Q291 327 292 327Q330 329 345 329ZM639 299 660 320Q668 328 682 350Q683 351 684.5 353.5Q686 356 687.5 359.5Q689 363 691 366Q698 379 699 381Q705 393 709 410Q710 414 712 424Q712 426 712.5 430.0Q713 434 714 436Q716 452 716 455Q716 468 710 491Q703 513 682 527Q664 540 647 543Q621 545 610 545Q589 545 581 541Q570 537 546 523Q534 515 527 511Q523 508 518 505L515 503Q505 495 497 484Q485 475 476 462Q466 449 457 413V414V329Q494 329 519 326Q543 322 559 320Q562 319 569.5 317.5Q577 316 581 315Q586 313 592.5 311.5Q599 310 600 310Q607 309 639 299ZM441 601Q435 610 425 614Q415 617 402 617Q393 617 377 615Q368 612 362.0 602.0Q356 592 356 579Q356 564 360 556Q364 541 382 516Q399 492 401 488Q403 494 422 516Q439 541 442 556Q446 571 446 582Q446 586 441 601Z"/>
</g>
</svg>