<svg xmlns="http://www.w3.org/2000/svg" viewBox="0 0 2048 2048">
<g transform="translate(1024.0, 1024.0) scale(2.171024734982332, -2.171024734982332) translate(-423.0, -424.5)">
<path fill="#101010" d="M220 0Q220 70 229 99Q236 128 259 159L373 285Q377 291 402 333Q409 347 421 378Q412 378 409 379Q392 364 340 324Q329 317 294 305Q260 292 245 279Q229 266 216 241Q205 219 190 203L178 191Q175 188 170 184L168 182Q157 174 147 174Q136 174 124 187Q111 199 102 199Q96 199 89 196Q82 192 75 192Q55 192 33 214Q11 238 4 264Q3 277 1 283Q0 286 0 294Q0 339 37 403Q71 466 88 510Q106 560 115 583Q127 616 148 643Q167 668 172 677Q177 685 178 699Q181 720 171 739Q161 755 156 768Q150 779 145 793Q139 806 139 813Q139 824 148 828Q155 832 169 826Q180 818 190 814Q193 812 222 791Q244 773 253 766Q255 765 264 760Q269 757 274 752Q285 744 295 747Q307 750 313 765L321 793Q323 801 325 817Q326 835 333.0 842.0Q340 849 346 849Q358 849 376 815Q392 781 398 774Q406 764 413 752Q424 736 431 731Q437 725 449 723Q452 723 454.5 722.5Q457 722 459.0 721.5Q461 721 462.5 721.0Q464 721 465 721Q474 722 495 722Q502 721 514 720Q547 713 565 703Q603 680 616 672Q644 652 666 630L682 610Q699 589 713 570Q740 531 755 501Q771 468 791 415Q807 371 822 321Q831 280 837 236Q838 226 840 209Q841 195 843 183Q844 176 844 164Q846 118 846 111Q846 103 844 63Q842 39 838 0ZM215 535Q219 541 233 549Q245 556 250 561Q252 562 255.0 565.0Q258 568 260.0 569.0Q262 570 265.0 573.0Q268 576 270 577Q273 581 267 588Q249 607 235 607Q229 607 223 604Q222 604 221.0 603.0Q220 602 219 602L216 601Q213 600 212 599Q208 597 207 596Q196 591 192 585Q185 578 179 567Q172 555 168 535Q164 516 155 496Q156 495 161 495Q173 499 193 513Q196 515 205 524Q213 532 215 535ZM76 296Q83 303 89 314Q95 328 95 347Q95 353 82 349Q68 344 61 334Q54 324 53 314Q51 298 51 297L53 288Q54 285 59 287Q72 292 76 296ZM177 267Q177 272 174 277Q170 281 165.0 281.0Q160 281 153 271L143 256Q138 252 132 242Q126 233 126 225Q126 219 135.0 219.0Q144 219 152 224Q162 230 170 244Q177 257 177 267ZM216 649Q216 646 219.0 646.0Q222 646 229 649L272 675Q279 678 286.0 682.0Q293 686 296 698L290 701H280Q267 701 255 698Q244 695 231 676Q216 656 216 649ZM441 489Q437 471 427 443Q418 420 418 416Q418 412 421 414Q424 415 430 421Q431 422 446 438Q456 448 459 462Q460 466 462 474L464 482Q466 492 466 494Q466 503 458 522Q455 522 453 521L449 520Q446 516 441 489ZM426 698Q438 691 457 685Q465 682 472.5 679.5Q480 677 484.0 675.5Q488 674 489 674Q510 665 530 648L571 616Q591 600 606 582Q620 564 642 526Q664 486 676 458Q688 427 702 385Q714 348 722 292Q731 235 734 216Q737 192 739 177Q740 171 740 144Q740 109 739.0 93.0Q738 77 738 45H787V91V107Q787 153 781.0 216.0Q775 279 769 313Q761 350 745 402Q726 458 715 484Q698 519 676 551Q651 586 632 610Q614 630 587 646Q578 653 565 661Q561 664 555.5 667.5Q550 671 546.5 673.5Q543 676 540 677Q517 689 502 694Q485 697 474 697Q458 697 455 698Z"/>
</g>
</svg>