<svg xmlns="http://www.w3.org/2000/svg" viewBox="0 0 2048 2048">
<g transform="translate(1024.0, 1024.0) scale(2.447808764940239, -2.447808764940239) translate(-278.5, -376.5)">
<path fill="#101010" d="M68 264Q94 294 113 306Q134 317 172 330L174 332Q176 333 178 335Q167 341 141 359Q126 373 118 403Q109 433 109 458Q109 459 111 481Q113 496 128 519Q142 544 158 557Q173 569 190 572Q197 574 206 575Q213 576 221 576Q222 577 224 578L226 580Q225 581 213 586Q205 589 195 594Q184 604 177 622Q171 638 171 657Q171 677 175 686Q178 700 194 716Q211 733 226 743Q239 753 277 753Q314 753 331 744Q347 735 367 713Q386 691 386 656Q386 615 362 594Q354 591 346.5 587.5Q339 584 335.5 582.5Q332 581 331 581Q333 578 336 576L369 573Q385 570 401 557Q418 543 432 515Q446 486 447 478Q448 474 448 458Q448 428 441 403Q433 373 418 361Q401 345 393 342Q390 341 385.0 338.0Q380 335 378 334Q382 331 402 325Q421 318 443 306Q462 295 488 265Q513 233 526 208Q542 177 548 148Q555 121 556 103Q557 97 557 71Q557 49 556.0 39.0Q555 29 555 0H1V35Q0 42 0 68Q0 97 1 104Q3 120 7 139Q18 186 30 209Q46 236 68 264Z"/>
</g>
</svg>