<svg xmlns="http://www.w3.org/2000/svg" viewBox="0 0 2048 2048">
<g transform="translate(1024.0, 1024.0) scale(2.0594413407821226, -2.0594413407821226) translate(-447.5, -423.0)">
<path fill="#101010" d="M511 750 487 732Q483 725 483 714Q483 700 500 644Q517 590 518 580Q521 552 523 498Q524 426 533 426Q536 426 547 447Q557 465 570 519Q585 574 588 586Q593 600 613 629Q632 657 632 674Q632 684 629 692Q626 699 616 708Q605 717 601 730Q596 745 596 757Q596 773 609 795Q621 816 658.0 816.0Q695 816 708.0 794.0Q721 772 721 755Q721 742 720 740Q719 734 714.0 723.0Q709 712 697 705Q684 698 678 682Q672 667 670 654Q667 640 667 622V597Q667 576 668 570Q668 523 667 510V482Q667 477 666.5 471.0Q666 465 665.5 461.0Q665 457 665 454Q665 406 675 406Q682 406 692 421Q703 438 717 468Q729 495 738 511Q748 526 775 553Q803 584 802 591Q800 598 792 609Q783 618 781 627Q778 637 777 642L775 656Q775 672 788 694Q802 717 835 717Q869 717 882.0 695.0Q895 673 895 657Q895 642 889 628Q882 614 865 604Q848 593 840 582Q831 573 826 548L814 464Q812 451 804 393Q800 362 784 339Q774 324 763.0 309.0Q752 294 747.0 286.0Q742 278 740 276Q724 254 720 231Q716 211 714 197Q714 194 713.5 190.0Q713 186 712.5 183.5Q712 181 712.0 178.5Q712 176 712 175Q712 157 716 146Q721 132 731 120Q742 106 742 96Q742 77 735 70Q721 52 715 46Q702 31 675 28Q665 26 622 21Q523 0 448 0Q374 0 273 21Q271 21 261.0 22.5Q251 24 243 25Q222 27 215 28Q192 31 179 47Q166 60 159 72Q153 82 153 96Q153 104 165 121Q177 138 180.0 148.0Q183 158 183 175Q183 176 182.5 179.0Q182 182 181.5 187.5Q181 193 181 198Q179 214 175 233Q171 253 151 282Q141 296 132.0 309.5Q123 323 118.5 330.0Q114 337 113 338Q95 365 90 399Q88 407 87 421Q86 425 85.0 434.0Q84 443 83 448L80 472Q73 521 71 540Q67 568 55 583Q41 599 28 606Q13 615 7 628Q0 641 0.0 657.0Q0 673 13.0 695.0Q26 717 60 717Q94 717 105 699Q115 684 118 674Q120 660 120 656Q120 640 114 624L93 591Q92 587 124 549Q155 512 168 487Q174 475 186 455Q194 440 204 420Q215 406 220 406Q230 406 230 454Q230 508 229 520V546Q229 550 228.5 555.5Q228 561 227.5 564.5Q227 568 227 570V597Q227 617 228 622Q228 629 226 653Q225 665 217 682Q210 697 198 706Q185 713 183 720Q180 728 177.0 738.0Q174 748 174 756Q174 771 188 794Q201 816 237 816Q274 816 287 795Q299 772 299 756Q299 745 294 730Q289 717 279 707Q268 696 266 690Q263 684 263 673Q263 656 282 631Q301 603 316 557Q318 550 354 435Q358 426 362 426Q368 426 370 498Q371 571 375 591Q380 614 395 656Q411 697 411 716Q411 720 409 730Q407 735 397 741Q388 745 381 754Q375 762 375 779Q375 795 382 809Q389 825 407 836Q423 846 447.0 846.0Q471 846 489 837Q506 827 514 807Q520 792 520 778Q520 762 511 750ZM183 293Q183 289 188 287Q193 284 194 277Q196 269 202 269Q218 269 230 273Q231 273 233.0 273.5Q235 274 238.0 275.0Q241 276 244 277Q248 278 258 281Q301 285 343 288Q360 289 448 289Q535 289 552 288Q626 282 635 281L689 269Q695 269 698 277Q699 283 705 287Q710 289 710 293Q710 303 670 312Q632 321 588 327Q549 333 515 335Q461 337 449 337Q375 337 312 328Q260 321 219 312Q183 304 183 293ZM671 194 675 195Q672 205 676.0 209.0Q680 213 680 218Q680 231 638 237Q624 239 609.0 241.0Q594 243 588.0 244.0Q582 245 581 245Q579 245 576.0 245.5Q573 246 568.5 246.5Q564 247 561 247H538Q526 248 499 248H448H390Q368 247 311 241Q307 241 297.0 239.5Q287 238 281 237Q264 236 254 234Q245 233 238 231Q219 227 219 215Q219 212 224 207Q228 203 225 196L228 191L312 203Q364 210 409 210H449H483Q505 210 511 211Q515 211 549 209Q552 208 558.5 207.5Q565 207 568 207Q584 205 587 205Q599 203 627 199Q669 194 671 194ZM586 134Q594 134 634 126Q667 118 691 111V116Q684 126 689 136Q691 142 684 146Q676 150 657 155Q636 160 609 164L579 169Q558 173 532 174Q523 175 484 175H450H414Q366 175 361 174H359Q357 173 353.0 172.5Q349 172 345 172Q339 171 330.0 169.5Q321 168 318 168Q285 162 249.0 156.0Q213 150 213 136Q214 135 214.5 132.5Q215 130 215 129Q217 124 213 120L209 111Q210 112 262 124Q301 134 314 134L450 136Z"/>
</g>
</svg>