<svg xmlns="http://www.w3.org/2000/svg" viewBox="0 0 2048 2048">
<g transform="translate(1024.0, 1024.0) scale(2.2533007334963324, -2.2533007334963324) translate(-409.0, -403.5)">
<path fill="#f9f9f9" d="M310 107Q308 106 290 96Q280 90 267 90H132H107Q89 90 71 88Q60 86 60 78Q60 74 66 66Q88 42 114 42H288Q300 42 327 66Q356 89 364.0 93.0Q372 97 379 109Q384 122 384 141Q384 149 379 149Q372 148 367 146Q361 144 357 147Q346 154 332 134Q318 111 310 107ZM458 92Q471 86 493.0 64.0Q515 42 530 42H704Q718 42 729 48Q739 52 749 64Q758 75 758 78Q758 82 747 87Q735 90 708 90H686H551Q536 90 526 97Q525 97 521.0 99.5Q517 102 515 104L507 108Q500 112 487 134Q473 155 465 150Q457 144 449 147L439 149Q434 149 434 141Q434 121 439 108Q444 97 458 92ZM509 238Q499 239 480 241Q468 242 457 242Q447 243 411 243Q374 243 365 242Q354 242 342 241Q323 239 313 238Q287 235 261 224Q258 219 255 213Q284 196 323 190Q355 183 411 183Q466 183 501 189Q535 194 566 213Q563 218 561 223Q538 235 509 238ZM306 306 296 283Q291 274 279 262L282 263Q284 263 286 264H292Q294 264 305 267Q309 268 316.0 269.5Q323 271 325 271Q342 275 376 275H411H428Q453 275 462 274Q470 274 498 270Q508 267 528 263Q531 262 539 262Q532 268 523 282Q522 286 517 294Q510 305 510 306Q498 310 491 314Q479 320 469 320H440Q417 320 411 321H383Q376 320 353 320Q341 320 333 316Q309 306 306 306ZM583 430Q586 448 586 456V468Q586 499 576 522Q566 544 549 574Q532 602 516 615Q500 630 483 642Q468 654 445 659Q442 659 437.5 660.5Q433 662 424.5 664.5Q416 667 409 669Q368 660 367 659Q350 655 333 643Q326 638 313.0 627.0Q300 616 299 615Q283 602 266 574Q249 544 239 522Q229 499 229 467Q229 446 233 431Q236 414 265 372Q293 333 312 339Q335 346 360 352Q384 354 399 354H412Q430 354 462 352Q482 347 503 339Q523 331 551.0 371.0Q579 411 583 430ZM410 712Q436 712 443 722Q451 733 451 743Q451 757 446 765Q442 772 431 775Q419 777 412 780Q405 780 390 776Q380 773 376 766Q369 759 369 742Q369 734 377.0 723.0Q385 712 410 712ZM428 424H392V484H332V520H392V580H428V520H484V484H428ZM352 45Q339 35 332 29Q319 16 300 11Q279 6 261 4Q240 1 212.0 1.0Q184 1 171.0 2.0Q158 3 126 3H101Q87 3 84 4Q74 5 62 10Q49 14 33 35Q15 57 9 63Q0 70 0 81Q0 93 16 103Q17 104 23.5 108.0Q30 112 34 114Q41 118 47 121Q61 127 67 129Q85 131 90 131Q106 131 113.0 130.0Q120 129 138 129Q169 129 180.0 128.0Q191 127 217 127Q237 127 244 128Q251 128 276 132Q292 135 303 141Q312 146 312 158Q312 168 300 168Q295 167 282 167Q274 167 266 173Q255 179 234 186Q210 194 210 210Q210 231 235 253Q259 275 263 284Q266 292 266 300Q266 312 241 336Q216 358 208 378Q200 398 195 420Q189 444 189 474Q189 544 223 587Q256 629 273 645Q296 663 308 670Q325 680 342 688Q360 696 372 696Q372 698 373 699L374 702Q347 718 343 727Q340 734 340 745Q340 766 353 782Q366 797 378 801Q388 804 411 807Q412 807 422.0 804.5Q432 802 441 800Q454 797 467 782Q480 766 480 744Q480 735 477 726Q473 716 451 705L447 701Q446 700 444 698L443 696Q470 690 476 688L478 687Q480 686 483.5 684.0Q487 682 491 680Q514 667 516 666Q548 648 575 613Q602 577 616 545Q629 515 629 474Q629 424 615 388Q600 354 576 334Q552 313 552 299Q552 290 556 283Q560 274 584 252Q608 230 608 210Q608 194 586 187Q563 179 555 173Q546 167 533 167Q528 168 519 168Q506 168 506 160Q506 147 516 141Q525 135 539 133Q564 129 570 129Q602 127 604 127Q634 127 648 128L680 129Q698 129 705.0 130.0Q712 131 728 131Q733 131 751 129Q762 128 775 120Q781 116 786.5 113.0Q792 110 796.0 107.5Q800 105 802 104Q818 94 818 81Q818 70 809 63Q801 56 785 35Q767 14 757 10Q743 4 738 3Q735 2 720 2Q713 3 692 3Q655 3 645 2Q633 2 623.0 1.0Q613 0 600 0Q578 0 554 2Q538 4 521 10Q502 14 488 28Q472 42 466 46Q454 52 443 63Q427 75 412 85Z"/>
</g>
</svg>