<svg xmlns="http://www.w3.org/2000/svg" viewBox="0 0 2048 2048">
<g transform="translate(1024.0, 1024.0) scale(2.1482517482517482, -2.1482517482517482) translate(-401.0, -429.0)">
<path fill="#f9f9f9" d="M539 106Q517 106 472.0 109.0Q427 112 399 112Q362 112 327.0 108.0Q292 104 261 104Q242 104 202 96Q196 94 179 83Q221 65 278 57Q340 49 401 49Q538 49 622 83Q620 85 619 88Q617 91 614 94Q578 106 539 106ZM376 412V411Q365 455 349 476Q331 491 321 505Q319 507 313.0 513.5Q307 520 303 524Q279 540 267 547Q251 558 223 573Q202 581 180 581Q146 581 131 578Q115 575 88 557Q60 538 52 510Q43 482 43.0 463.0Q43 444 47 432Q49 422 52 411L54 400Q59 381 65 369Q74 350 86 332Q100 308 113 293Q125 280 142 263Q172 273 194 279Q235 289 260 293Q289 298 318 301Q356 303 376 303ZM660 263Q664 266 672 274Q679 281 682 285L689 292Q698 302 716 331Q732 358 740 373Q747 393 750 404L756 437Q759 454 759 464Q759 478 751 510Q742 536 716 556Q689 574 670 578Q650 581 622 581Q594 581 581 574Q564 566 539 550Q508 531 501 524Q489 514 476 499Q473 496 463.5 485.0Q454 474 447 466Q433 445 426 411V412V303Q444 303 486 301Q508 298 558 291Q559 291 565.0 289.5Q571 288 582.0 286.0Q593 284 605 281Q634 273 660 263ZM606 134V138Q595 149 598 152Q602 156 602 160Q602 170 582 175Q556 181 524 185Q477 190 469 190H446Q441 189 422 189H407Q404 190 397 190Q393 189 379 189H365H345H317Q308 188 292 185Q283 181 235 175Q190 168 190 158Q190 156 195 148Q198 144 194 140Q187 133 186 131Q214 135 238 141Q282 151 294 153Q296 154 301.5 154.5Q307 155 310 155Q317 156 326 156Q333 157 362 157H397H448Q476 156 518 149ZM158 227Q158 220 163 215Q164 212 169 206L175 198Q179 191 184 191Q195 191 208 198Q223 204 236 208Q249 211 274 214Q314 216 326 216H362Q370 215 399 215H432Q457 215 464 216Q473 216 513 214Q536 212 564 205Q576 199 590 195Q598 191 611 191Q616 191 621 202Q625 214 628 217Q631 221 631 227Q631 242 588 252Q584 253 572.5 255.5Q561 258 553 259Q521 265 515 266Q479 275 457 277L397 283Q350 278 327 277Q309 275 273 266Q254 262 235.0 258.5Q216 255 206.0 253.0Q196 251 192 250Q158 243 158 227ZM467 602 466 605Q464 608 460.5 614.5Q457 621 454 627Q442 647 402 647Q360 647 347 623Q333 597 333 585Q333 576 336 565Q339 554 342.0 541.0Q345 528 363 502Q370 491 401 449Q409 460 431 489Q457 523 462 548Q464 557 465.0 568.0Q466 579 468 588Q468 600 467 602ZM426 785H500V735H425V677Q436 682 454.0 671.0Q472 660 483 648Q493 635 499 577Q500 575 506 569Q516 597 557 612Q601 626 630 626Q657 626 692 615Q721 605 736 596Q750 588 768 570Q787 548 794 523Q802 491 802 455Q802 413 779 365Q776 359 766.0 342.0Q756 325 750 313Q747 310 740.0 300.5Q733 291 726.0 281.0Q719 271 711 261Q677 218 670 209Q667 203 664.0 196.5Q661 190 659.0 186.0Q657 182 656 180Q651 165 651 156Q651 155 651.5 153.5Q652 152 652.5 149.0Q653 146 653 143Q655 135 679 125Q702 115 704 101Q708 73 678 61Q675 60 666.5 56.5Q658 53 652 50Q632 42 626 38Q603 27 576 22Q521 11 503 8Q453 0 402 0Q344 0 298 9Q295 9 286.0 11.0Q277 13 259.5 16.0Q242 19 225 22Q199 28 175 40Q168 42 149 51Q145 53 139.5 55.5Q134 58 130.0 59.5Q126 61 124 62Q96 77 100 101Q102 114 126 125Q151 137 152 147Q155 165 148 179Q148 181 145.0 185.5Q142 190 141 194Q135 204 132 209Q123 231 91 266Q60 300 37 342Q16 380 7 403Q0 421 0 455Q0 493 8 523Q15 550 35 570Q53 588 65 596Q71 600 109 615Q144 626 173 626Q204 626 237 615Q266 604 278 594Q290 582 294 569L296 571Q297 573 299 575Q307 633 317 646Q325 656 346 671Q363 682 374 677V735H300V785H374V858H426Z"/>
</g>
</svg>