<svg xmlns="http://www.w3.org/2000/svg" viewBox="0 0 2048 2048">
<g transform="translate(1024.0, 1024.0) scale(2.171024734982332, -2.171024734982332) translate(-423.0, -424.5)">
<path fill="#f9f9f9" d="M220 0Q220 70 229 99Q236 128 259 159L373 285Q377 291 402 333Q409 347 421 378Q412 378 409 379Q392 364 340 324Q329 317 294 305Q260 292 245 279Q229 266 216 241Q205 219 190 203L178 191Q175 188 170 184L168 182Q157 174 147 174Q136 174 124 187Q111 199 102 199Q96 199 89 196Q82 192 75 192Q55 192 33 214Q11 238 4 264Q3 277 1 283Q0 286 0 294Q0 339 37 403Q71 466 88 510Q106 560 115 583Q127 616 148 643Q167 668 172 677Q177 685 178 699Q181 720 171 739Q161 755 156 768Q150 779 145 793Q139 806 139 813Q139 824 148 828Q155 832 169 826Q180 818 190 814Q193 812 222 791Q244 773 253 766Q255 765 264 760Q269 757 274 752Q285 744 295 747Q307 750 313 765L321 793Q323 801 325 817Q326 835 333.0 842.0Q340 849 346 849Q358 849 376 815Q392 781 398 774Q406 764 413 752Q424 736 431 731Q437 725 449 723Q452 723 454.5 722.5Q457 722 459.0 721.5Q461 721 462.5 721.0Q464 721 465 721Q474 722 495 722Q502 721 514 720Q547 713 565 703Q603 680 616 672Q644 652 666 630L682 610Q699 589 713 570Q740 531 755 501Q771 468 791 415Q807 371 822 321Q831 280 837 236Q838 226 840 209Q841 195 843 183Q844 176 844 164Q846 118 846 111Q846 103 844 63Q842 39 838 0ZM714 475Q697 511 677 538Q675 541 657 567Q646 584 636 595Q619 616 598 629Q583 636 556 658Q530 678 514 678Q510 678 486 676Q479 676 472 675Q462 674 454 672Q448 672 435 666Q422 660 417 660Q411 660 404 670Q396 679 389 707Q381 735 369.0 747.0Q357 759 352 759Q345 759 333 740Q319 718 315 714Q314 713 298 694Q289 680 279 673Q268 663 263 661Q256 654 250 652Q238 649 226 648Q209 647 191 635Q173 624 157 576Q149 554 143 536Q133 509 132 505Q123 483 84 413Q45 344 45 308Q45 295 50 277Q54 263 60.0 257.0Q66 251 76 249Q89 247 98 254Q101 256 103.5 257.5Q106 259 108.0 260.0Q110 261 111.5 262.0Q113 263 114 264H115Q118 271 133 281Q146 291 157 291Q164 291 169 285Q172 280 163.0 264.0Q154 248 154 240Q162 240 165 241Q205 305 221 321Q231 330 269 344Q306 359 321 368Q328 372 352 390Q359 396 369.5 404.0Q380 412 383 415Q398 428 435.0 479.0Q472 530 479 530Q484 530 484 519Q484 479 481 455L468 390Q458 350 450 315Q439 279 415 252L304 132Q292 116 285 97Q278 76 271 48H793V115V128Q793 166 787 222Q775 308 752 378Q728 447 714 475ZM184 567 191 588Q194 594 207 603Q219 612 243 612Q268 612 268 594Q268 587 260 579Q259 578 241 564Q232 553 225 546Q219 539 215 529Q210 520 198 510Q195 508 192.0 505.5Q189 503 187.0 502.0Q185 501 184 500L182 499Q180 499 179 500L175 501Q175 535 176 540Q177 552 184 567ZM111 356Q115 356 115 351V337Q114 333 109 318Q105 309 98 302Q93 297 79 291Q74 289 73 292Q71 298 71 302Q71 319 79 333Q84 340 94 348Q105 356 111 356ZM206 759Q206 758 204 754L202 750Q213 692 213 687Q213 681 220 681Q226 681 233 684Q239 686 249 693Q258 699 265 710Q272 719 268 722Q265 724 254.5 731.5Q244 739 237 743Q223 753 206 759Z"/>
</g>
</svg>