<svg xmlns="http://www.w3.org/2000/svg" viewBox="0 0 2048 2048">
<g transform="translate(1024.0, 1024.0) scale(2.447808764940239, -2.447808764940239) translate(-278.5, -376.5)">
<path fill="#f9f9f9" d="M68 264Q94 294 113 306Q134 317 172 330L174 332Q176 333 178 335Q167 341 141 359Q126 373 118 403Q109 433 109 458Q109 459 111 481Q113 496 128 519Q142 544 158 557Q173 569 190 572Q197 574 206 575Q213 576 221 576Q222 577 224 578L226 580Q225 581 213 586Q205 589 195 594Q184 604 177 622Q171 638 171 657Q171 677 175 686Q178 700 194 716Q211 733 226 743Q239 753 277 753Q314 753 331 744Q347 735 367 713Q386 691 386 656Q386 615 362 594Q354 591 346.5 587.5Q339 584 335.5 582.5Q332 581 331 581Q333 578 336 576L369 573Q385 570 401 557Q418 543 432 515Q446 486 447 478Q448 474 448 458Q448 428 441 403Q433 373 418 361Q401 345 393 342Q390 341 385.0 338.0Q380 335 378 334Q382 331 402 325Q421 318 443 306Q462 295 488 265Q513 233 526 208Q542 177 548 148Q555 121 556 103Q557 97 557 71Q557 49 556.0 39.0Q555 29 555 0H1V35Q0 42 0 68Q0 97 1 104Q3 120 7 139Q18 186 30 209Q46 236 68 264ZM209 640Q210 636 213 626Q216 619 226 613L238 603L265 576Q234 563 221 554Q220 554 217.0 551.5Q214 549 211 547Q200 540 199 540Q182 527 179 523Q170 512 163 496Q161 491 157.5 482.5Q154 474 153 471Q149 463 149 450Q149 436 155 423Q164 404 171 393Q180 376 193 366Q210 352 221 344Q236 332 244 327L181 297Q150 282 137 272Q118 256 102 236Q83 212 75 192Q66 171 60 143Q54 112 53 100Q52 94 52 68V45H501V68Q501 94 500 100Q499 111 493 142Q489 162 479 191Q469 212 452 234Q432 259 417.0 271.0Q402 283 372 297L309 327Q310 328 315.0 331.0Q320 334 323 336Q331 343 334 344Q348 354 355 361L371 377Q379 386 385 396Q392 408 398.0 422.0Q404 436 404 450Q404 457 399 474Q399 475 398.5 476.5Q398 478 397.0 481.0Q396 484 395 486Q391 492 389 499Q382 513 375 522Q365 532 351 541Q333 552 328 557Q321 561 305 569Q288 576 315 603L339 624Q345 639 345 655Q345 677 329 696Q312 717 279 717Q262 717 247 710Q228 703 220 690Q207 674 207 653Q207 652 207.5 650.5Q208 649 208.5 646.0Q209 643 209 640Z"/>
</g>
</svg>