<svg xmlns="http://www.w3.org/2000/svg" viewBox="0 0 2048 2048">
<g transform="translate(1024.0, 1024.0) scale(2.0594413407821226, -2.0594413407821226) translate(-447.5, -423.0)">
<path fill="#f9f9f9" d="M511 750 487 732Q483 725 483 714Q483 700 500 644Q517 590 518 580Q521 552 523 498Q524 426 533 426Q536 426 547 447Q557 465 570 519Q585 574 588 586Q593 600 613 629Q632 657 632 674Q632 684 629 692Q626 699 616 708Q605 717 601 730Q596 745 596 757Q596 773 609 795Q621 816 658.0 816.0Q695 816 708.0 794.0Q721 772 721 755Q721 742 720 740Q719 734 714.0 723.0Q709 712 697 705Q684 698 678 682Q672 667 670 654Q667 640 667 622V597Q667 576 668 570Q668 523 667 510V482Q667 477 666.5 471.0Q666 465 665.5 461.0Q665 457 665 454Q665 406 675 406Q682 406 692 421Q703 438 717 468Q729 495 738 511Q748 526 775 553Q803 584 802 591Q800 598 792 609Q783 618 781 627Q778 637 777 642L775 656Q775 672 788 694Q802 717 835 717Q869 717 882.0 695.0Q895 673 895 657Q895 642 889 628Q882 614 865 604Q848 593 840 582Q831 573 826 548L814 464Q812 451 804 393Q800 362 784 339Q774 324 763.0 309.0Q752 294 747.0 286.0Q742 278 740 276Q724 254 720 231Q716 211 714 197Q714 194 713.5 190.0Q713 186 712.5 183.5Q712 181 712.0 178.5Q712 176 712 175Q712 157 716 146Q721 132 731 120Q742 106 742 96Q742 77 735 70Q721 52 715 46Q702 31 675 28Q665 26 622 21Q523 0 448 0Q374 0 273 21Q271 21 261.0 22.5Q251 24 243 25Q222 27 215 28Q192 31 179 47Q166 60 159 72Q153 82 153 96Q153 104 165 121Q177 138 180.0 148.0Q183 158 183 175Q183 176 182.5 179.0Q182 182 181.5 187.5Q181 193 181 198Q179 214 175 233Q171 253 151 282Q141 296 132.0 309.5Q123 323 118.5 330.0Q114 337 113 338Q95 365 90 399Q88 407 87 421Q86 425 85.0 434.0Q84 443 83 448L80 472Q73 521 71 540Q67 568 55 583Q41 599 28 606Q13 615 7 628Q0 641 0.0 657.0Q0 673 13.0 695.0Q26 717 60 717Q94 717 105 699Q115 684 118 674Q120 660 120 656Q120 640 114 624L93 591Q92 587 124 549Q155 512 168 487Q174 475 186 455Q194 440 204 420Q215 406 220 406Q230 406 230 454Q230 508 229 520V546Q229 550 228.5 555.5Q228 561 227.5 564.5Q227 568 227 570V597Q227 617 228 622Q228 629 226 653Q225 665 217 682Q210 697 198 706Q185 713 183 720Q180 728 177.0 738.0Q174 748 174 756Q174 771 188 794Q201 816 237 816Q274 816 287 795Q299 772 299 756Q299 745 294 730Q289 717 279 707Q268 696 266 690Q263 684 263 673Q263 656 282 631Q301 603 316 557Q318 550 354 435Q358 426 362 426Q368 426 370 498Q371 571 375 591Q380 614 395 656Q411 697 411 716Q411 720 409 730Q407 735 397 741Q388 745 381 754Q375 762 375 779Q375 795 382 809Q389 825 407 836Q423 846 447.0 846.0Q471 846 489 837Q506 827 514 807Q520 792 520 778Q520 762 511 750ZM631 379Q644 375 644.0 391.0Q644 407 640 427L635 459Q635 481 638 526Q638 543 639 551Q639 565 640 569V575Q640 602 635 602Q632 602 623.0 589.0Q614 576 608 539Q602 505 598 494Q595 485 580 452Q564 421 564 407Q564 391 583 391Q600 391 610 388Q619 384 631 379ZM29 644Q35 638 37 635Q42 629 59 629Q61 629 75 631Q82 633 86 639Q90 643 90 653Q90 664 86 668Q82 675 75 677Q73 678 67 680L61 681H54Q51 680 47 680L43 679Q38 678 33.0 670.0Q28 662 28 651Q28 645 29 644ZM206 744Q212 738 214 735Q218 729 236 729Q238 729 252 731Q259 733 263 739Q267 743 267 753Q267 764 263 768Q259 775 252 777Q250 778 244 780L238 781H231Q228 780 224 780L220 779Q215 778 210.0 770.0Q205 762 205 751Q205 745 206 744ZM422 761Q429 751 449 751Q461 751 467 754Q473 755 478.0 763.0Q483 771 483 777Q483 788 479 795Q475 801 463 805L451 809Q432 806 431 805Q426 803 420 796Q415 788 415 776Q415 768 422 761ZM629 742Q635 736 637 733Q642 727 659 727Q661 727 675 729Q682 731 686 737Q690 741 690 751Q690 762 686 766Q682 773 675 775Q673 776 667 778L661 779H654Q651 778 647 778L643 777Q638 776 633.0 768.0Q628 760 628 749Q628 743 629 742ZM807 644Q813 638 815 635Q819 629 837 629Q839 629 853 631Q860 633 864 639Q868 643 868 653Q868 664 864 668Q860 675 853 677Q851 678 845 680L839 681H832Q829 680 825 680L821 679Q816 678 811.0 670.0Q806 662 806 651Q806 645 807 644ZM183 300Q183 293 187.0 289.0Q191 285 197.0 271.0Q203 257 209 257Q220 257 236 266Q251 275 276 281Q302 286 346 290Q392 293 448 293Q487 293 549 291Q584 288 613 282Q639 276 658 266Q673 257 684 257Q688 257 693 266Q693 267 694.0 268.5Q695 270 696.0 272.0Q697 274 698 276Q703 285 704 287Q710 293 710 300Q710 323 666 338Q621 353 585 362Q538 371 516 373Q491 375 449 379Q398 374 372 373Q352 371 312 362Q280 354 221 334Q183 319 183 300ZM671 190 675 192Q672 203 676 209Q680 213 680 219Q680 232 660 237Q656 238 599 247Q558 252 530 253Q517 254 498 254H447Q388 254 378 253Q350 252 308 245Q257 236 241 233Q219 229 219 216Q219 211 224 206Q228 202 225 193Q226 191 226 190L227 187Q246 187 263 191Q275 193 286.0 195.5Q297 198 303.5 199.5Q310 201 312 201Q338 206 365 207Q374 207 384.5 207.5Q395 208 400.5 208.5Q406 209 409 209H449H483Q505 209 511 210Q538 210 544 209Q552 208 587 203ZM687 131V135Q674 146 677 149Q682 154 682 157Q682 167 659 172Q655 172 646.5 173.5Q638 175 622.5 177.5Q607 180 591 182Q548 188 517 188H480Q473 187 449 187H422Q402 187 397 188Q360 188 334 182Q312 176 262 171Q215 166 215 155Q215 150 220 145Q223 142 217 136L210 128Q216 129 269 138Q300 144 333 150L369 153Q376 154 410 154H449H503Q520 154 586 146ZM111 516Q107 516 105 511Q104 509 104 499Q104 486 118 433Q132 382 133 373Q134 364 142 350Q150 335 161 335Q169 338 171 339Q178 341 185 348Q188 350 193.0 353.5Q198 357 199 358Q206 362 206 367Q206 374 194 387Q190 391 186.5 394.5Q183 398 181 400L179 403Q148 465 139 481Q119 516 111 516ZM604 108Q567 108 513.0 111.0Q459 114 450 114Q389 114 374 113Q373 113 364.5 112.5Q356 112 335.5 110.5Q315 109 295 108Q251 108 215 95L203 83Q251 66 308 61Q366 55 450 55Q532 55 590 61Q645 66 696 83Q688 93 687 94Q642 108 604 108ZM269 597Q265 602 261 601Q258 598 258.0 574.0Q258 550 261 507Q261 491 262 483Q262 469 263 466V459Q263 442 259 422Q258 414 256.5 406.5Q255 399 254.5 395.5Q254 392 254 391Q254 375 267 379Q285 387 287 388Q296 391 315.0 391.0Q334 391 334 407Q334 419 319 452Q302 485 301 491Q297 499 291 539Q284 576 269 597ZM727 335Q741 327 752 344Q762 359 764 374Q766 389 779 435Q792 478 792 497Q792 507 791 509Q789 514 785 514Q773 514 748 462Q738 442 734 433Q731 428 727.5 420.5Q724 413 723 411L717 401Q711 395 707 390L698 381Q690 370 690.0 365.0Q690 360 695 357Q707 351 712 346Q716 344 721.0 340.0Q726 336 727 335ZM491 577Q486 599 479 621Q472 645 447 645Q436 645 428 639Q420 633 413 615Q405 594 403 576Q400 557 400 517Q400 495 393 466Q385 426 385 424Q385 400 406 404Q409 405 420 407Q423 407 427.5 407.5Q432 408 434.5 408.5Q437 409 438 409H441Q442 408 448 408Q451 407 457 407Q474 404 487 404Q505 404 505 424Q505 428 500 470Q494 503 494 511Q495 518 495 535Q495 562 491 577Z"/>
</g>
</svg>