<svg xmlns="http://www.w3.org/2000/svg" viewBox="0 0 2048 2048">
<g transform="translate(1024.0, 1024.0) scale(2.3813953488372093, -2.3813953488372093) translate(-324.5, -387.0)">
<path fill="#f9f9f9" d="M418 726H475V774H595V606L499 513V294L574 219V126H649V0H0V126H75V219L150 294V513L54 606V774H174V726H228V774H417ZM600 81H48V39H600ZM528 183H120V126H528ZM453 495H198V318H453ZM549 639V729H516V684H378V729H267V684H134V729H99V639ZM525 219 462 279H186L123 219ZM465 534 534 603H114L180 534Z"/>
</g>
</svg>