<svg xmlns="http://www.w3.org/2000/svg" viewBox="0 0 2048 2048">
<g transform="translate(1024.0, 1024.0) scale(2.1186206896551725, -2.1186206896551725) translate(-500.0, -494.0)">
<path fill="#101010" d="M439 385Q375 385 375 365Q375 347 431 344Q429 344 500 344Q625 344 625 365Q625 385 561 385ZM439 463Q407 463 391.0 459.5Q375 456 375 443Q375 428 401 426Q434 423 500 423Q566 423 600 426Q625 428 625 443Q625 463 561 463ZM671 409Q671 399 683 363Q687 352 691.5 335.5Q696 319 696 313Q696 270 607 261Q648 246 671 242Q702 237 729 237Q740 237 771.5 238.5Q803 240 802 240Q839 240 865 217Q884 200 905 160Q886 132 868 103Q847 71 818 59Q813 80 770 88Q760 90 708 94Q552 108 500 160Q451 110 351 101Q331 99 292 94Q244 90 231 88Q186 79 182 59Q150 73 121 122Q108 144 95 160Q116 201 135 217Q160 240 198 240Q197 240 228.5 238.5Q260 237 271 237Q330 237 392 261Q304 270 304 313Q304 327 317.0 358.5Q330 390 330 404Q254 498 254 568Q254 650 335 718Q406 778 440 783Q413 815 413 853Q413 890 437.5 909.5Q462 929 500 929Q537 929 562.0 909.0Q587 889 587 853Q587 816 560 783Q583 777 631 744Q691 702 722 650Q746 611 746 568Q746 495 671 409ZM523 525V583H566V630H523V684H477V630H434V583H477V525ZM500 878Q487 878 477.0 869.0Q467 860 467 848Q467 835 477.0 826.0Q487 817 500 817Q531 817 531 848Q531 878 500 878Z"/>
</g>
</svg>