<svg xmlns="http://www.w3.org/2000/svg" viewBox="0 0 2048 2048">
<g transform="translate(1024.0, 1024.0) scale(2.4543275632490014, -2.4543275632490014) translate(-500.5, -469.0)">
<path fill="#101010" d="M201 382Q184 382 171.5 371.0Q159 360 159 343Q159 337 163 330Q179 330 191.5 340.5Q204 351 204 367Q204 372 201 382ZM814 189Q815 235 815 235Q815 439 711 569Q622 682 548 682Q543 682 536 680Q535 680 534 681Q532 681 531 681H529Q512 681 512 668Q512 662 520 655Q587 650 667 559Q769 440 769 219Q769 217 768 211Q768 205 768 202V192Q768 185 768 185Q769 172 776.0 164.0Q783 156 793 156Q801 156 807.0 164.5Q813 173 814 189ZM291 548H292H294Q296 548 297 547H298Q323 547 352.5 572.0Q382 597 382 615Q382 620 378 625Q366 632 353 632Q329 632 305.0 612.5Q281 593 281 569Q281 555 291 548ZM871 100 344 102Q346 161 366.5 200.0Q387 239 422 283Q453 322 464 340Q482 371 486 407Q424 382 388 343Q371 324 362 310Q349 287 321 245Q313 236 303 235Q271 235 271 274Q258 258 242 258Q240 258 218 264Q179 274 160.5 289.5Q142 305 125 342Q132 388 172 472Q193 518 228 589Q266 665 281 720Q283 737 283 753Q283 760 276 820H278H281Q283 820 284 821H286Q342 821 409 784Q416 780 416 779Q452 838 471 838Q502 822 516 802Q527 785 542 736Q551 739 563 739Q666 739 763 610Q876 461 876 205Q876 153 871 100Z"/>
</g>
</svg>