<svg xmlns="http://www.w3.org/2000/svg" viewBox="0 0 2048 2048">
<g transform="translate(1024.0, 1024.0) scale(2.507755102040816, -2.507755102040816) translate(-500.5, -468.5)">
<path fill="#101010" d="M234 101Q232 123 232 159Q232 251 265 316Q300 387 400 437Q367 447 347 481Q329 512 329 549Q329 633 415 668Q393 705 393 739Q393 782 427 810Q458 836 501 836Q544 836 576.0 808.5Q608 781 608 739Q608 705 586 668Q632 650 652.0 618.0Q672 586 672 549Q672 513 653.0 480.0Q634 447 602 437Q702 386 737 315Q769 252 769 159Q769 123 767 101Z"/>
</g>
</svg>