<svg xmlns="http://www.w3.org/2000/svg" viewBox="0 0 2048 2048">
<g transform="translate(1024.0, 1024.0) scale(2.1259515570934258, -2.1259515570934258) translate(-500.0, -496.5)">
<path fill="#f9f9f9" d="M500 431Q437 431 390 436Q375 437 364 439Q372 424 372 408Q372 391 365 377Q386 384 454 388Q475 389 500 389Q599 389 635 377Q627 391 627 408Q627 423 635 439Q577 431 500 431ZM500 884Q484 884 472.5 872.5Q461 861 461 847Q461 831 472.5 820.5Q484 810 500 810Q515 810 527.0 820.5Q539 831 539 847Q539 862 527.0 873.0Q515 884 500 884ZM500 352Q459 352 377 344Q353 339 353 320Q353 304 421 301Q407 302 500 302Q646 302 646 320Q646 343 600 349Q592 350 537 351Q527 351 510 352ZM499 467Q638 467 670 493Q692 510 701 580Q696 642 620 700Q548 755 498 761Q450 755 379 700Q304 642 299 580Q304 543 308 529Q317 500 337 488Q371 467 499 467ZM477 528V584H435V632H477V686H523V632H565V584H523V528ZM498 274Q490 274 465 255Q448 242 431.0 230.0Q414 218 398 216Q361 203 306 198Q298 198 266 196Q218 194 206 192Q166 183 166 158Q171 133 192 133Q197 133 220 137Q249 143 259 143Q319 143 395 161Q475 181 500 228Q515 199 556 179Q604 156 675 148L708 144Q725 143 740 143Q751 143 780 137Q802 133 807 133Q829 133 834 158Q834 183 794 192Q781 194 734 196Q711 197 660 202Q634 205 602 216Q586 219 570 229Q560 234 537 252Q510 274 498 274ZM500 165Q452 115 352 105Q305 101 212 87Q186 81 183 63Q150 77 122 126Q108 149 96 165Q138 244 199 244Q211 244 235.5 242.0Q260 240 272 240Q328 240 392 264Q304 274 304 317Q304 330 316.5 364.5Q329 399 329 415Q254 497 254 570Q254 652 335 720Q406 780 440 783Q413 816 413 854Q413 890 439 911Q462 930 500 930Q537 930 561.5 909.5Q586 889 586 854Q586 816 560 783Q596 779 666 719Q746 652 746 570Q746 498 671 415Q671 399 683.5 364.5Q696 330 696 317Q696 274 607 264Q671 240 727 240Q740 240 764.0 242.0Q788 244 801 244Q862 244 904 165Q885 136 867 107Q846 76 817 63Q813 84 769 92Q759 94 707 99Q551 113 500 165Z"/>
</g>
</svg>