<svg xmlns="http://www.w3.org/2000/svg" viewBox="0 0 2048 2048">
<g transform="translate(1024.0, 1024.0) scale(2.242335766423358, -2.242335766423358) translate(-503.0, -504.0)">
<path fill="#f9f9f9" d="M503 93Q254 93 250 177Q246 269 226 321Q212 356 173 408Q146 444 138 462Q124 490 124 524Q124 571 152.0 609.5Q180 648 224 664Q255 675 280 674Q345 673 403 626L404 625Q404 659 407 682Q407 691 415 705Q425 730 473 763V793L422 823V868H468L484 915H522L538 868H584V823L533 793V763Q578 733 592 705Q599 689 599.5 680.5Q600 672 601.0 653.5Q602 635 602 625L603 626Q660 673 726 674Q770 675 810.5 650.0Q851 625 869 584Q882 556 882 524Q882 471 834 408Q813 380 804 366Q789 344 781 321Q759 267 756 177Q754 93 503 93ZM503 514Q504 516 511 527Q528 551 538.0 570.0Q548 589 553 607Q556 634 556 643Q556 717 504 717Q450 717 450 643Q450 630 453 607Q463 572 495 527Q503 516 503 514ZM837 516Q837 572 799 603Q767 629 726 629Q671 629 609 574Q535 510 526 401Q526 392 572 382Q611 374 703 372Q719 371 732 371H736H754Q759 379 768.5 390.5Q778 402 792 419Q819 458 830 484Q837 503 837 516ZM503 348Q478 337 413 331Q379 329 311 324L274 321Q287 272 291 216Q378 244 503 244Q629 244 716 216Q719 277 732 321L696 324Q661 326 593 331Q557 335 547 336Q521 340 503 348ZM169 516Q169 491 195 449Q208 429 216 419L226 405Q239 391 252 371H274Q326 371 405 379Q481 386 481 401Q471 510 397 574Q336 629 280 629Q263 629 243 622Q200 611 180 567Q169 544 169 516ZM503 138Q565 138 626 146Q677 152 677 162Q677 178 631 185Q564 194 504 194Q443 194 376 185Q329 178 329 162Q329 148 436 140Q467 138 503 138Z"/>
</g>
</svg>