<svg xmlns="http://www.w3.org/2000/svg" viewBox="0 0 2048 2048">
<g transform="translate(1024.0, 1024.0) scale(2.467469879518072, -2.467469879518072) translate(-491.5, -469.5)">
<path fill="#f9f9f9" d="M208 395Q226 395 226 371Q226 340 195 340Q197 340 191 341H187Q182 346 182 360Q182 395 208 395ZM291 548Q281 555 281 569Q281 592 305.0 612.0Q329 632 353 632Q366 632 378 625Q382 620 382 615Q382 594 352.0 570.5Q322 547 298 547H297Q295 548 294 548H292ZM308 782Q313 770 313 759Q313 755 310 739H311Q318 740 342 749Q353 751 364 759Q345 770 337.0 773.0Q329 776 309 782ZM160 353Q165 333 184.0 318.5Q203 304 223 304H226Q231 304 252 318Q262 324 266 324Q267 323 270 323L271 322Q277 322 277 316Q277 314 273.5 305.0Q270 296 270 292Q270 281 287 281Q290 282 318 325Q355 380 406 415Q436 437 475 454Q476 465 484 491Q499 540 524 572Q535 586 544 586Q547 586 551.5 583.0Q556 580 556 570Q556 560 544 528Q525 479 525 456Q525 449 527 440Q527 351 452 254Q403 189 397 146H809Q814 190 814 231Q814 432 715 571Q689 608 653 642Q604 688 574 688Q573 687 572 687H569Q544 690 541 690Q532 690 525 688Q523 688 519 687Q514 687 512.0 687.0Q510 687 506 687Q501 688 499 688Q490 691 484 714Q481 731 473 763Q470 774 461 783Q445 736 368 713Q326 700 311 687Q298 644 229 510Q218 489 181 409Q163 372 160 353ZM860 100H336Q339 155 359 199Q375 232 415 284Q446 324 456 341Q474 372 477 408Q418 382 388.0 351.5Q358 321 333 279Q320 257 313 248Q303 239 293 239Q243 244 238 274Q227 268 213 268Q155 268 118 342Q126 389 165 473Q174 493 194 534Q229 606 238 626Q262 679 273 722Q276 740 276 753Q276 760 268 822H270H273Q275 822 277 822L278 823Q333 823 394 789Q407 781 407 780Q441 839 463 839Q490 825 507 803Q519 784 532 738Q542 740 553 740Q654 740 751 612Q865 463 865 205Q865 153 860 100Z"/>
</g>
</svg>