<svg xmlns="http://www.w3.org/2000/svg" viewBox="0 0 2048 2048">
<g transform="translate(1024.0, 1024.0) scale(2.5043478260869567, -2.5043478260869567) translate(-501.5, -469.0)">
<path fill="#f9f9f9" d="M725 151Q725 257 681 318Q654 356 595 390Q546 419 546 443Q546 452 551.5 457.0Q557 462 571 470Q598 486 609.0 502.0Q620 518 620 548Q620 603 561 638Q545 648 538.5 653.5Q532 659 532 668Q532 691 545 707Q553 719 555.0 724.5Q557 730 557 743Q557 764 539.5 779.0Q522 794 500 794Q479 794 462.0 779.0Q445 764 445 743Q445 724 457.5 707.5Q470 691 470 668Q470 659 463.0 652.5Q456 646 441 638Q383 603 383 548Q383 499 432 470Q442 464 449.0 457.0Q456 450 456 443Q456 419 407 390Q347 354 321 317Q278 256 278 151ZM234 101Q233 124 233 159Q233 251 265 317Q301 388 400 438Q367 448 348 482Q330 512 330 549Q330 634 415 669Q394 706 394 740Q394 783 426.5 810.0Q459 837 502 837Q545 837 577.0 809.5Q609 782 609 740Q609 706 587 669Q673 634 673 549Q673 514 655 482Q634 448 602 438Q702 387 738 316Q770 252 770 159Q770 127 768 101Z"/>
</g>
</svg>