<svg xmlns="http://www.w3.org/2000/svg" viewBox="0 0 2048 2048">
<g transform="translate(1024.0, 1024.0) scale(2.1259515570934258, -2.1259515570934258) translate(-502.5, -499.0)">
<path fill="#f9f9f9" d="M502 376H516Q518 376 523 377Q527 377 530 377Q535 377 575 375Q589 375 637 371Q676 368 699 368Q722 368 722 374Q722 375 721 377V378V379Q721 406 622 421Q556 430 503 430Q450 430 384 421Q286 407 286 379V377Q284 376 284 374Q284 368 307 368Q313 368 370 372Q437 377 475 377Q477 377 482 377Q487 376 489 376ZM706 320Q603 333 503 333Q410 333 345 325Q321 323 301 320Q316 308 316 271Q316 249 308 243Q391 257 503 257Q616 257 698 243Q691 249 691 271Q691 308 706 320ZM503 213Q431 213 361 206Q299 201 299 178Q299 147 503 147Q707 147 707 178Q707 188 691 196Q659 208 582 211Q541 213 503 213ZM503 867Q472 867 472 836Q472 804 503 804Q533 804 533 836Q533 867 503 867ZM503 903Q532 903 552.0 882.5Q572 862 572 833Q572 824 562 801Q551 773 550 767Q545 747 545 713Q545 688 552 635Q557 594 572 532Q639 674 639 746Q639 763 634 784Q632 795 632 800Q632 829 652.5 849.5Q673 870 701 870Q730 870 751.0 849.5Q772 829 772 800Q772 767 750 749Q723 732 717 688Q715 669 715 639Q715 600 721 534Q802 616 802 670Q802 678 798 698Q796 713 796 719Q796 747 816.5 768.0Q837 789 865 789Q894 789 915.0 768.0Q936 747 936 719Q936 668 878 642Q876 606 867 559Q862 530 841 449L833 416Q833 398 793 357Q740 303 740 273Q740 261 752 236Q769 201 770 199Q775 185 775 165Q775 162 774.0 156.5Q773 151 773 148V146L774 145Q774 114 646 102Q590 97 557 96Q520 95 502 95Q499 95 483 96Q464 97 448 97Q333 100 269 117Q231 128 231 145L232 146V148Q232 149 231 152Q231 155 231 157V165Q231 193 250 232Q264 261 264 273Q264 294 243 320Q222 343 182 390Q172 404 172 416Q158 472 144 528Q130 593 127 642Q69 668 69 719Q69 747 90.0 768.0Q111 789 139 789Q168 789 188.5 768.0Q209 747 209 719Q209 714 207 698Q203 678 203 670Q203 616 283 534Q290 600 290 639Q290 698 279 721Q274 731 268 738Q264 742 255 750Q242 758 238 769Q232 777 232 800Q232 829 253.0 849.5Q274 870 303 870Q332 870 352.5 849.5Q373 829 373 800Q373 796 371 784Q366 763 366 746Q366 675 433 532Q460 646 460 713Q460 762 441 808Q433 825 433 833Q433 862 454.0 882.5Q475 903 503 903ZM865 749Q853 749 844.0 740.0Q835 731 835 719Q835 706 844.0 696.5Q853 687 865 687Q896 687 896 719Q896 749 865 749ZM701 829Q689 829 680.0 819.5Q671 810 671 798Q671 785 680.0 775.5Q689 766 701 766Q733 766 733 798Q733 829 701 829ZM303 829Q272 829 272 798Q272 766 303 766Q333 766 333 798Q333 829 303 829ZM139 749Q108 749 108 719Q108 687 139 687Q169 687 169 719Q169 731 160.0 740.0Q151 749 139 749ZM503 669Q499 645 494 624L486 588Q474 539 458 510Q455 504 448.0 495.0Q441 486 439 479Q437 482 427 494Q419 503 407.5 516.5Q396 530 388 544Q358 598 331 678Q333 664 333 642Q333 620 326 549Q325 538 321 516L312 460Q245 499 181 588Q193 525 203 485Q212 450 213 447Q221 422 232 418Q336 477 503 477Q671 477 774 418Q793 424 815 536Q817 546 821 566L825 588Q761 499 695 460L691 479Q673 583 673 631Q673 656 676 678Q649 598 618 544Q606 523 579 494Q569 482 567 479Q561 490 548 510Q543 519 535.5 537.5Q528 556 512 625Q508 646 503 669Z"/>
</g>
</svg>