<svg xmlns="http://www.w3.org/2000/svg" viewBox="0 0 2048 2048">
<g transform="translate(1024.0, 1024.0) scale(2.5145975443383355, -2.5145975443383355) translate(-500.0, -466.5)">
<path fill="#f9f9f9" d="M357 585V363H642V585ZM210 100 186 124V210L314 339V589L204 685V798L240 833H352L374 812V780H410V812L431 833H569L590 812V780H625V812L647 833H760L796 798V685L686 589V339L814 210V124L790 100ZM230 198V150H770V198ZM352 322 270 242H730L648 322ZM452 781V749L434 731H353L334 749V783H264L248 766V696L333 627H667L752 696V766L736 783H666V749L647 731H566L548 749V781Z"/>
</g>
</svg>