<svg xmlns="http://www.w3.org/2000/svg" viewBox="0 0 2048 2048">
<g transform="translate(1024.0, 1024.0) scale(1.3118861209964414, -1.3118861209964414) translate(-977.0, -987.5)">
<path fill="#101010" d="M1379 285Q1379 316 1377 372Q1374 414 1374 452Q1374 480 1372 526Q1369 560 1369 590Q1369 613 1367 655Q1364 685 1364 712Q1364 729 1362 767Q1359 795 1359 814Q1359 836 1353 862Q1351 871 1347.5 887.5Q1344 904 1343 906Q1343 924 1337 946Q1331 970 1328 987Q1328 1006 1319 1028Q1317 1033 1303 1069Q1298 1087 1290 1106Q1281 1129 1278 1140Q1277 1141 1262 1170Q1250 1187 1247 1196L977 1089L952 1165L1201 1282Q1198 1287 1189.5 1303.0Q1181 1319 1176 1329Q1155 1368 1155 1369Q1150 1385 1137 1407Q1125 1425 1115 1445Q1112 1451 1104.5 1463.0Q1097 1475 1094 1479Q1083 1494 1074 1517Q1069 1534 1055 1556Q1038 1578 1028 1598Q1012 1622 1002 1641Q981 1680 977 1690Q788 1357 762 1310Q680 1166 641 1042Q599 913 587 747Q575 580 575 285Z"/>
</g>
</svg>