<svg xmlns="http://www.w3.org/2000/svg" viewBox="0 0 2048 2048">
<g transform="translate(1024.0, 1024.0) scale(1.309090909090909, -1.309090909090909) translate(-484.15972222222223, -704.0)">
<path fill="#101010" d="M560 1028Q560 997 529.0 997.0Q498 997 498 1028Q498 1070 529.0 1070.0Q560 1070 560 1028ZM193 0H968Q968 366 895 667Q821 972 678 1256L634 1408L580 1256Q517 1214 414 1169Q330 1133 219 1078Q123 1029 59 980Q-6 929 1 874Q4 854 7 819Q8 787 21 760Q24 748 55 713Q87 677 104 677Q169 677 221 700Q264 719 335 741Q374 751 387 764Q396 775 443 795Q430 776 404 739Q368 690 318 596Q269 505 232 403Q193 296 193 196Z"/>
</g>
</svg>