<svg xmlns="http://www.w3.org/2000/svg" viewBox="0 0 2048 2048">
<g transform="translate(1024.0, 1024.0) scale(1.5807890222984562, -1.5807890222984562) translate(-294.0, -583.0)">
<path fill="#101010" d="M588 0Q561 102 518 199Q474 299 489 391Q497 458 542 487Q588 515 588 583Q588 653 547 715Q505 776 464 781Q419 784 410 800Q400 814 400 845Q400 874 447 919Q494 963 494 1008Q494 1079 430 1122Q365 1166 291 1166Q222 1166 158 1122Q94 1079 94 1008Q94 963 141 919Q188 874 188 845Q188 814 178 800Q168 784 123 781Q81 776 41 715Q0 653 0 583Q0 515 46 487Q92 457 99 391Q114 299 70 199Q24 94 0 0H291ZM470 370V336H118V370ZM386 839V806H201V839Z"/>
</g>
</svg>