<svg xmlns="http://www.w3.org/2000/svg" viewBox="0 0 2048 2048">
<g transform="translate(1024.0, 1024.0) scale(1.3109530583214795, -1.3109530583214795) translate(-402.0, -703.0)">
<path fill="#f9f9f9" d="M687 781Q693 759 703 740Q711 722 713 698Q719 670 723 657Q728 635 728 617Q742 557 744 529Q744 517 746 491Q746 485 746.5 472.5Q747 460 748 454Q749 374 754 291Q756 236 760 128Q760 115 762 85Q763 70 763 41H41Q41 102 43 228Q45 331 50 415Q57 546 79 650Q93 714 115 777Q134 831 168 903Q220 1005 282 1114Q339 1213 401 1322Q423 1283 429 1277Q446 1248 456 1232Q457 1230 458.5 1226.0Q460 1222 460 1221Q463 1213 464 1211Q469 1199 483.0 1177.0Q497 1155 503 1144Q508 1133 522 1111Q534 1092 540 1079Q545 1064 554 1047Q559 1037 571 1017L327 902L378 752L655 862Q666 842 673 822Q684 788 687 781ZM804 0Q804 32 802 88Q799 130 799 168Q799 196 797 242Q794 277 794 306Q794 329 792 371Q789 401 789 428Q789 445 787 483Q784 510 784 530Q784 552 778 578Q776 587 772.5 603.5Q769 620 768 622Q768 640 762 662Q756 686 753 703Q753 722 744 744Q742 749 728 785Q723 803 715 822Q706 845 703 856Q702 857 687 886Q676 903 672 912L402 805L377 881L626 998Q623 1003 614.5 1019.0Q606 1035 601 1045Q580 1084 580 1085Q575 1101 562 1123Q550 1141 540 1161Q537 1167 529.5 1179.0Q522 1191 519 1195Q508 1210 499 1233Q494 1250 480 1272Q464 1294 453 1314Q437 1338 427 1357Q406 1396 402 1406Q213 1072 187 1026Q105 882 66 758Q24 629 12 463Q0 296 0 0Z"/>
</g>
</svg>