<svg xmlns="http://www.w3.org/2000/svg" viewBox="0 0 2048 2048">
<g transform="translate(1024.0, 1024.0) scale(1.3109530583214795, -1.3109530583214795) translate(-483.15972222222223, -703.0)">
<path fill="#f9f9f9" d="M529 1068Q497 1068 497 1026Q497 995 529 995Q560 995 560 1026Q560 1068 529 1068ZM544 0H966Q966 364 894 666Q820 969 677 1254L633 1406L579 1254Q516 1212 413 1167Q329 1131 218 1076Q125 1029 59 978Q-6 927 1 872Q4 852 7 817Q8 785 21 758Q25 745 55 712Q85 676 104 676Q171 676 221 698Q264 717 335 739Q373 749 386 762Q397 773 443 793Q430 775 404 738Q366 685 317 596Q268 505 231 403Q192 296 192 196V0H367H541H543L540 41H387H233V196Q235 253 249 316Q274 419 323 516Q367 606 429 702Q467 759 499 800Q524 831 574 895L416 825Q392 815 369 799Q350 786 324 778Q272 763 218 740Q166 716 110 716Q84 732 59 773Q49 798 48 823Q47 831 45.0 848.5Q43 866 42 875Q41 885 45 897Q60 928 91 952Q129 979 152 993Q234 1040 314 1076Q369 1101 479 1153Q551 1188 614 1227L630 1275L641 1239L660 1200Q730 1051 779 915Q843 730 878 541Q898 432 907 344Q912 289 920 192Q925 107 925 41H546H541Z"/>
</g>
</svg>