<svg xmlns="http://www.w3.org/2000/svg" viewBox="0 0 2048 2048">
<g transform="translate(1024.0, 1024.0) scale(1.5794344473007713, -1.5794344473007713) translate(-294.0, -583.5)">
<path fill="#f9f9f9" d="M240 840V806H338V840ZM166 370V336H435V370ZM588 0Q564 94 518 199Q474 299 489 391Q497 458 542 487Q588 517 588 584Q588 654 547 716Q506 776 465 781Q420 784 411 800Q401 814 401 845Q401 875 448 919Q494 962 494 1008Q494 1078 430 1123Q365 1167 292 1167Q222 1167 158 1123Q94 1078 94 1008Q94 963 141.0 919.0Q188 875 188 845Q188 814 178 800Q168 784 124 781Q81 776 41 716Q0 654 0 584Q0 517 46.0 487.0Q92 457 99 391Q114 299 70 199Q24 94 0 0H292ZM465 265 468 253Q484 193 505 142Q519 105 545 33H44Q56 72 71 111L101 189Q124 256 133 317Q135 351 135 356Q134 381 128 414L123 432L115 449L107 464L98 477L88 489Q83 494 73.0 506.0Q63 518 58 523Q44 539 36 562Q27 606 46 654Q65 703 98 733Q116 748 128 749Q161 752 188 766Q203 778 213 796Q224 825 219 861Q208 889 184 919Q164 943 154 956Q138 975 129 997Q122 1025 144 1062Q194 1133 292 1134Q339 1133 389 1110Q437 1088 457 1039Q466 1010 456 989Q443 964 424 942Q406 921 389 898Q371 869 368 848Q368 839 369 835V822Q373 785 401 766Q414 757 439 752Q465 748 475 744Q516 717 540 658Q565 600 550 553Q540 532 509 499Q491 477 482 464L473 449L466 432L461 414L457 396Q454 369 454 344Q456 309 462 278Z"/>
</g>
</svg>