<svg xmlns="http://www.w3.org/2000/svg" viewBox="0 0 2048 2048">
<g transform="translate(1024.0, 1024.0) scale(2.1284064665127023, -2.1284064665127023) translate(-500.5, -500.0)">
<path fill="#101010" d="M99 67V200H172Q167 211 167 225Q167 249 184.0 266.5Q201 284 225 284H272L173 655Q167 676 189 685L445 788Q417 813 417 850Q417 885 441.0 909.0Q465 933 500 933Q535 933 559.0 909.0Q583 885 583 850Q583 813 555 788L811 685Q834 676 828 655L729 284H775Q800 284 817.0 267.0Q834 250 834 225Q834 211 828 200H902V67ZM242 200Q225 200 225 183Q225 166 242 166H758Q775 166 775 183Q775 200 758 200ZM533 284V542H634V608H533V708H471V608H367V542H471V284Z"/>
</g>
</svg>