<svg xmlns="http://www.w3.org/2000/svg" viewBox="0 0 2048 2048">
<g transform="translate(1024.0, 1024.0) scale(2.096928327645051, -2.096928327645051) translate(-499.5, -506.5)">
<path fill="#101010" d="M784 284Q833 276 833 225Q833 212 828 200H900V67H99V200H172Q167 211 167 225Q167 249 184.0 266.5Q201 284 225 284H292Q322 395 405 449Q441 480 462 500Q497 535 510 559Q456 525 415 493Q371 459 335 409Q310 374 268 374Q261 374 253 375Q250 381 240 390Q233 387 219 388Q179 410 170 420Q155 437 154 475Q153 521 182 566Q203 599 265 713Q317 809 351 853Q343 889 344 919Q370 905 396 883Q397 884 400 885Q423 894 450 901Q448 909 449 922L450 946Q479 930 508 906Q585 902 667 830Q730 759 763 645Q792 545 792 436Q792 327 784 284ZM376 731 366 714Q358 704 349 697L344 704Q337 728 359 734Q368 736 376 731ZM336 742Q320 719 320 705Q320 686 338 686Q353 686 374 715Q390 737 390 752Q390 771 372 771Q356 771 336 742ZM283 424Q310 465 330 480Q330 499 323 502Q303 511 257 440Q244 421 258 413Q271 406 283 424ZM243 476Q243 496 223 496Q213 496 200.5 485.0Q188 474 188 464Q188 457 194 451Q200 452 210 448Q212 443 216 443Q220 443 229 451Q243 465 243 476ZM242 200Q225 200 225 183Q225 167 242 167H758Q775 167 775 183Q775 200 758 200Z"/>
</g>
</svg>