<svg xmlns="http://www.w3.org/2000/svg" viewBox="0 0 2048 2048">
<g transform="translate(1024.0, 1024.0) scale(2.2560587515299875, -2.2560587515299875) translate(-500.5, -475.5)">
<path fill="#101010" d="M524 852Q556 844 578.0 820.0Q600 796 600 765Q600 717 554 690Q569 593 618 493Q681 364 776 284Q800 284 817.0 266.5Q834 249 834 225Q834 211 828 200H902V67H99V200H172Q167 211 167 225Q167 249 184.0 266.5Q201 284 225 284Q320 364 383 493Q431 591 446 690Q400 716 400 765Q400 797 422.0 820.5Q444 844 476 852Q475 855 475 859Q475 884 500 884Q525 884 525 859Q525 855 524 852ZM242 200Q225 200 225 183Q225 166 242 166H758Q775 166 775 183Q775 200 758 200Z"/>
</g>
</svg>