<svg xmlns="http://www.w3.org/2000/svg" viewBox="0 0 2048 2048">
<g transform="translate(1024.0, 1024.0) scale(2.1210586881472957, -2.1210586881472957) translate(-500.5, -500.0)">
<path fill="#101010" d="M99 67V200H172Q167 211 167 225Q167 249 184.0 266.5Q201 284 225 284L149 491Q139 488 133 488Q105 488 85.5 507.5Q66 527 66 555Q66 583 85.5 603.0Q105 623 133 623Q161 623 180.5 603.0Q200 583 200 555Q200 536 189 520L317 446L446 749Q400 778 400 833Q400 875 429.0 904.0Q458 933 500 933Q542 933 571.5 904.0Q601 875 601 833Q601 778 555 749L683 446L811 520Q801 537 801 555Q801 583 820.5 603.0Q840 623 868 623Q896 623 915.5 603.0Q935 583 935 555Q935 527 915.5 507.5Q896 488 868 488Q861 488 851 491L775 284Q800 284 816.5 267.0Q833 250 833 225Q833 211 828 200H901V67ZM242 200Q225 200 225 183Q225 166 242 166H758Q775 166 775 183Q775 200 758 200Z"/>
</g>
</svg>