<svg xmlns="http://www.w3.org/2000/svg" viewBox="0 0 2048 2048">
<g transform="translate(1024.0, 1024.0) scale(2.1284064665127023, -2.1284064665127023) translate(-501.0, -500.0)">
<path fill="#101010" d="M242 200Q225 200 225 183Q225 167 242 167H758Q775 167 775 183Q775 200 758 200ZM569 933V767H702V933H835V600H720L777 284Q801 284 818.0 266.5Q835 249 835 225Q835 211 829 200H903V67H99V200H172Q167 211 167 225Q167 250 183.5 267.0Q200 284 225 284L281 600H167V933H300V767H433V933ZM333 633Q317 633 317 616Q317 600 333 600H667Q683 600 683 616Q683 633 667 633Z"/>
</g>
</svg>