<svg xmlns="http://www.w3.org/2000/svg" viewBox="0 0 2048 2048">
<g transform="translate(1024.0, 1024.0) scale(2.1284064665127023, -2.1284064665127023) translate(-500.5, -500.0)">
<path fill="#f9f9f9" d="M551 725V625H651V525H551V284H693L788 638Q792 655 774 662L512 768L500 767L488 768L226 662Q216 658 213 651Q211 646 213 638L308 284H450V525H350V625H450V725ZM776 200Q801 200 801 225Q801 250 776 250H225Q200 250 200 225Q200 200 225 200ZM867 100V167H134V100ZM500 801Q551 801 551 850Q551 900 500 900Q450 900 450 850Q450 801 500 801ZM99 67V200H172Q167 211 167 225Q167 249 184.0 266.5Q201 284 225 284H272L173 655Q167 676 189 685L445 788Q417 813 417 850Q417 885 441.0 909.0Q465 933 500 933Q535 933 559.0 909.0Q583 885 583 850Q583 813 555 788L811 685Q834 676 828 655L729 284H775Q800 284 817.0 267.0Q834 250 834 225Q834 211 828 200H902V67ZM516 284V558H617V592H516V692H483V592H383V558H483V284Z"/>
</g>
</svg>