<svg xmlns="http://www.w3.org/2000/svg" viewBox="0 0 2048 2048">
<g transform="translate(1024.0, 1024.0) scale(2.1284064665127023, -2.1284064665127023) translate(-500.5, -500.0)">
<path fill="#f9f9f9" d="M777 200Q802 200 802 225Q802 250 777 250H225Q200 250 200 225Q200 200 225 200ZM868 100V167H134V100ZM550 583Q770 592 903 673L777 284Q801 284 818.0 266.5Q835 249 835 225Q835 211 829 200H903V67H99V200H172Q167 211 167 225Q167 249 184.0 266.5Q201 284 225 284L98 673Q231 592 450 583V600H483V284H516V600H550ZM550 549V284H740L845 606Q714 556 550 549ZM450 549Q286 556 156 606L261 284H450ZM575 933 533 800 667 833V700L533 733L575 600H425L467 733L333 692V842L467 800L425 933ZM500 804 529 900H471ZM500 729 471 633H529ZM462 767 367 796V737ZM538 767 634 737V796ZM500 741Q525 741 525 767Q525 792 500 792Q475 792 475 767Q475 741 500 741Z"/>
</g>
</svg>