<svg xmlns="http://www.w3.org/2000/svg" viewBox="0 0 2048 2048">
<g transform="translate(1024.0, 1024.0) scale(2.096928327645051, -2.096928327645051) translate(-499.5, -506.5)">
<path fill="#f9f9f9" d="M742 284Q753 339 753 436Q753 529 730 621Q703 729 655 789Q615 839 556 861Q560 855 564 851Q578 835 570 827Q564 820 559 820Q553 820 547 828Q531 847 515 867Q496 889 477 900Q481 874 495 844Q497 834 495 827Q491 819 481 823Q473 826 471 832Q461 851 458 869Q413 859 396 848Q389 860 374 866Q375 852 381 837L374 830Q356 797 312 718L308 711Q258 623 211 552Q190 521 188 483Q186 454 199 440Q205 433 236 416Q289 505 313 505Q316 505 318 504Q326 501 326 482Q300 462 265 403Q285 403 292.5 408.5Q300 414 334 455Q381 512 456 560Q501 589 530 615Q556 644 569 644Q580 644 580 633Q580 620 555 593Q537 543 513 510Q491 481 447 445Q364 394 326 284ZM239 460Q226 445 221 455Q220 457 214 456Q211 455 209 455Q207 455 207 456Q201 462 201 468Q201 478 211 488Q228 506 243 492Q256 480 239 460ZM225 250Q200 250 200 225Q200 200 225 200H775Q800 200 800 225Q800 250 775 250ZM784 284Q833 276 833 225Q833 212 828 200H900V67H99V200H172Q167 211 167 225Q167 249 184.0 266.5Q201 284 225 284H292Q322 395 405 449Q441 480 462 500Q497 535 510 559Q456 525 415 493Q371 459 335 409Q310 374 268 374Q261 374 253 375Q250 381 240 390Q233 387 219 388Q179 410 170 420Q155 437 154 475Q153 521 182 566Q203 599 265 713Q317 809 351 853Q343 889 344 919Q370 905 396 883Q397 884 400 885Q423 894 450 901Q448 909 449 922L450 946Q479 930 508 906Q585 902 667 830Q730 759 763 645Q792 545 792 436Q792 327 784 284ZM349 744Q369 773 385 773Q403 773 403 755Q403 740 387 718Q366 689 351 689Q333 689 333 708Q333 721 349 744ZM384 729Q378 733 372 731Q358 727 362 711Q362 711 365 707Q372 711 377 718Q379 720 384 729ZM134 167V100H867V167Z"/>
</g>
</svg>