<svg xmlns="http://www.w3.org/2000/svg" viewBox="0 0 2048 2048">
<g transform="translate(1024.0, 1024.0) scale(2.2560587515299875, -2.2560587515299875) translate(-500.5, -475.5)">
<path fill="#f9f9f9" d="M867 100V167H134V100ZM776 200Q801 200 801 225Q801 250 776 250H225Q200 250 200 225Q200 200 225 200ZM500 705Q526 705 546.0 722.0Q566 739 566 765Q566 790 546.0 807.0Q526 824 500 824Q474 824 454.0 807.5Q434 791 434 765Q434 739 453.5 722.0Q473 705 500 705ZM524 678Q514 675 500 675Q487 675 476 678Q459 571 405.0 465.0Q351 359 274 284H727Q651 358 596 466Q542 571 524 678ZM524 852Q556 844 578.0 820.0Q600 796 600 765Q600 717 554 690Q569 593 618 493Q681 364 776 284Q800 284 817.0 266.5Q834 249 834 225Q834 211 828 200H902V67H99V200H172Q167 211 167 225Q167 249 184.0 266.5Q201 284 225 284Q320 364 383 493Q431 591 446 690Q400 716 400 765Q400 797 422.0 820.5Q444 844 476 852Q475 855 475 859Q475 884 500 884Q525 884 525 859Q525 855 524 852Z"/>
</g>
</svg>