<svg xmlns="http://www.w3.org/2000/svg" viewBox="0 0 2048 2048">
<g transform="translate(1024.0, 1024.0) scale(2.1210586881472957, -2.1210586881472957) translate(-500.5, -500.0)">
<path fill="#f9f9f9" d="M868 522Q901 522 901 555Q901 589 868 589Q834 589 834 555Q834 522 868 522ZM133 522Q166 522 166 555Q166 589 133 589Q99 589 99 555Q99 522 133 522ZM99 67V200H172Q167 211 167 225Q167 249 184.0 266.5Q201 284 225 284L149 491Q139 488 133 488Q105 488 85.5 507.5Q66 527 66 555Q66 583 85.5 603.0Q105 623 133 623Q161 623 180.5 603.0Q200 583 200 555Q200 536 189 520L317 446L446 749Q400 778 400 833Q400 875 429.0 904.0Q458 933 500 933Q542 933 571.5 904.0Q601 875 601 833Q601 778 555 749L683 446L811 520Q801 537 801 555Q801 583 820.5 603.0Q840 623 868 623Q896 623 915.5 603.0Q935 583 935 555Q935 527 915.5 507.5Q896 488 868 488Q861 488 851 491L775 284Q800 284 816.5 267.0Q833 250 833 225Q833 211 828 200H901V67ZM739 284 810 479 666 397 522 736Q513 733 500 733Q487 733 478 736L334 397L191 479L261 284ZM776 200Q801 200 801 225Q801 250 776 250H225Q200 250 200 225Q200 200 225 200ZM867 100V167H134V100ZM500 766Q528 766 547.5 785.5Q567 805 567 833Q567 861 547.5 880.5Q528 900 500 900Q472 900 452.5 880.5Q433 861 433 833Q433 805 452.5 785.5Q472 766 500 766Z"/>
</g>
</svg>