<svg xmlns="http://www.w3.org/2000/svg" viewBox="0 0 2048 2048">
<g transform="translate(1024.0, 1024.0) scale(2.1284064665127023, -2.1284064665127023) translate(-500.0, -500.0)">
<path fill="#f9f9f9" d="M800 633V900H708V733H550V900H450V733H292V900H200V633ZM775 200Q800 200 800 225Q800 250 775 250H225Q200 250 200 225Q200 200 225 200ZM866 100V167H134V100ZM99 67V200H172Q167 211 167 225Q167 250 183.5 267.0Q200 284 225 284L281 600H167V933H325V767H417V933H583V767H675V933H833V600H719L775 284Q799 284 816.0 266.5Q833 249 833 225Q833 211 827 200H901V67ZM739 284 683 600H316L260 284Z"/>
</g>
</svg>