<svg xmlns="http://www.w3.org/2000/svg" viewBox="0 0 2048 2048">
<g transform="translate(1024.0, 1024.0) scale(1.04991989746876, -1.04991989746876) translate(-1023.8333333333334, -1014.78125)">
<path fill="#101010" d="M1024 856Q1021 856 1017.5 858.5Q1014 861 1012 861Q961 859 961 842Q961 816 1024 816Q1088 816 1088 842Q1088 859 1037 861Q1034 861 1030.0 858.5Q1026 856 1024 856ZM1341 1775Q1379 1789 1424.5 1789.5Q1470 1790 1461 1824Q1452 1857 1407 1847Q1359 1837 1323 1824Q1230 1790 1240 1766Q1249 1741 1341 1775ZM1135 1063Q1182 1069 1181 1090Q1179 1112 1124 1107Q1069 1102 1071 1080Q1073 1061 1116 1061Q1109 1064 1109 1072Q1109 1085 1124 1085Q1139 1085 1139 1072Q1138 1067 1135 1063ZM913 1063Q910 1068 910 1072Q910 1085 924 1085Q939 1085 939 1072Q939 1064 932 1061Q975 1061 977 1080Q978 1103 924 1107Q868 1112 867 1090Q866 1069 913 1063ZM1024 1042Q1003 1042 1003 972Q1003 966 1001 962Q988 953 988 940Q988 920 1008 918Q1017 903 1024 903Q1030 903 1040 918Q1060 919 1060 940Q1060 952 1047 962Q1046 966 1046 972Q1046 1042 1024 1042ZM1277 1323Q1282 1335 1283 1337Q1294 1371 1304 1392H744Q751 1375 765 1337Q769 1327 771 1323ZM1233 1190Q1252 1186 1259 1222Q1265 1258 1248 1258H800Q782 1258 789 1222Q796 1186 815 1190ZM1050 621Q1107 621 1143 651Q1126 672 1116 690Q1081 678 1050 678H998Q966 678 933 690Q921 672 905 651Q940 621 998 621ZM320 137V205Q319 217 319 225Q320 233 320 245Q320 392 420 499Q514 601 664 619Q795 635 873 755Q870 756 869 759Q852 784 829 804Q732 889 732 1059Q732 1134 747 1188Q730 1188 730 1223Q702 1330 648 1434Q624 1481 655 1495Q682 1506 707 1466Q753 1452 811 1452Q945 1452 993 1535Q986 1587 1032 1646Q1073 1735 1259 1838Q1307 1864 1353 1884Q1376 1890 1399 1892Q1444 1895 1485 1882Q1540 1865 1544 1826Q1550 1753 1421 1736Q1214 1707 1094 1624Q1057 1584 1057 1552Q1057 1544 1059 1538Q1060 1527 1068 1518Q1122 1452 1240 1452Q1296 1452 1343 1466Q1366 1507 1394 1495Q1424 1481 1401 1434Q1344 1323 1319 1223Q1319 1188 1302 1188Q1317 1134 1317 1059Q1317 888 1220 804Q1198 785 1180 759Q1178 756 1176 752Q1256 635 1384 619Q1533 601 1628 499Q1728 391 1728 245Q1728 233 1728.5 225.0Q1729 217 1728 205V137Z"/>
</g>
</svg>