<svg xmlns="http://www.w3.org/2000/svg" viewBox="0 0 2048 2048">
<g transform="translate(1024.0, 1024.0) scale(1.0297206703910613, -1.0297206703910613) translate(-1024.0, -1011.5)">
<path fill="#101010" d="M1024 1170Q931 1170 931 1263Q931 1357 1024 1357Q1117 1357 1117 1263Q1117 1170 1024 1170ZM1024 666Q1373 666 1553 603Q1554 666 1579 733Q1625 858 1742 936Q1849 1008 1849 1144Q1849 1198 1824 1252Q1780 1348 1680 1384Q1634 1401 1589 1401Q1518 1401 1454 1359Q1203 1195 1098 908Q1058 797 1058 733H990Q990 797 950 909Q845 1195 594 1359Q529 1401 458 1401Q413 1401 368 1385Q268 1348 223 1252Q198 1199 198 1145Q198 1009 306 936Q424 857 469 733Q491 672 495 603Q671 666 1024 666ZM1024 454Q1370 454 1551 392Q1551 406 1550.0 434.0Q1549 462 1549 476Q1411 530 1024 530Q636 530 499 476Q499 462 498 434Q498 406 498 392Q677 454 1024 454ZM1024 205Q1199 205 1392 229Q1570 251 1570 265Q1570 292 1353 310Q1180 325 1024 325Q840 325 651 301Q478 279 478 265Q478 239 695 220Q872 205 1024 205ZM1024 137Q864 137 688 159Q409 194 409 265Q409 281 428 297Q431 380 431 446Q431 553 424 632Q413 684 404 710Q366 813 261 884Q129 973 129 1145Q129 1214 161 1281Q218 1404 344 1450Q402 1471 458 1471Q537 1471 611 1429Q699 1378 794 1280Q800 1364 862 1426L794 1425V1886H1254V1425L1186 1426Q1246 1365 1253 1279Q1348 1377 1437 1429Q1510 1471 1590 1471Q1646 1471 1704 1450Q1830 1404 1887 1281Q1919 1214 1919 1145Q1919 1089 1898 1033Q1865 942 1788 884Q1685 820 1644 710Q1633 681 1624 632Q1617 545 1617 446Q1617 379 1620 297Q1639 281 1639 265Q1639 194 1360 159Q1183 137 1024 137ZM862 1547V1493H916L1024 1604L1132 1493H1187V1547L1076 1656L1187 1769V1818H1138L1024 1707L916 1818H862V1764L973 1656ZM1024 1101Q1091 1101 1138.5 1148.5Q1186 1196 1186 1263Q1186 1330 1138.5 1377.5Q1091 1425 1024 1425Q956 1425 909.0 1378.0Q862 1331 862 1263Q862 1195 909.0 1148.0Q956 1101 1024 1101ZM935 731Q714 725 562 689Q555 715 546 739Q491 889 354 978Q297 1014 277 1073Q250 1146 282.5 1215.5Q315 1285 388 1312Q421 1324 454 1324Q504 1324 550 1295Q797 1141 897 867Q920 801 935 731ZM1114 731Q1127 801 1151 867Q1250 1139 1498 1295Q1544 1324 1594 1324Q1626 1324 1660 1312Q1732 1285 1765.0 1215.0Q1798 1145 1772 1073Q1750 1013 1695 978Q1557 888 1502 739Q1491 709 1486 688Q1338 724 1114 731Z"/>
</g>
</svg>