<svg xmlns="http://www.w3.org/2000/svg" viewBox="0 0 2048 2048">
<g transform="translate(1024.0, 1024.0) scale(1.0919431279620855, -1.0919431279620855) translate(-1031.7065217391305, -981.0)">
<path fill="#101010" d="M792 1548Q727 1491 738 1465Q748 1442 786 1460Q799 1466 807 1476Q826 1507 865 1523Q911 1541 906 1561Q900 1586 838 1570Q808 1562 792 1548ZM474 670Q483 685 506 710Q522 730 549 764Q557 774 549 778Q541 783 518 782Q494 780 481 767Q455 748 431 718Q424 709 419 698Q399 650 429 641Q452 634 474 670ZM688 1524Q685 1571 696 1632Q717 1756 772 1825Q837 1764 879 1648Q883 1636 891 1611Q893 1608 895 1608Q897 1608 900 1611Q922 1736 977 1805Q1041 1741 1083 1627Q1084 1621 1100 1611L1250 1604L1314 1540L1445 1506L1443 1444L1581 1388L1554 1310L1702 1232L1645 1200L1749 1067L1694 1053L1818 894L1749 896L1854 730L1778 751L1838 592L1771 591L1854 416L1785 407L1845 262L1788 243L1833 137H500Q498 147 498 157Q498 278 638 414Q646 422 780 540Q899 645 903 649Q984 725 1007.5 770.5Q1031 816 1040 858Q977 828 891 836Q846 839 804 856Q728 775 655 749Q639 710 615 677Q574 618 516 580Q439 529 390 564Q366 580 360 598Q352 598 328 605Q251 625 223 709Q198 783 219 863Q243 952 310 1003Q425 1112 497 1258Q584 1436 688 1524ZM390 876Q423 915 438 930Q452 946 436 968Q414 995 354 903Q346 873 360 861Q373 850 390 876ZM768 1290Q813 1317 813 1337Q813 1365 764 1356Q671 1339 612 1268Q586 1238 596 1222Q610 1197 672 1228Q708 1188 747 1210Q784 1232 768 1290ZM1163 963Q1241 1065 1251 1191Q1252 1208 1252 1217Q1250 1270 1218 1270Q1185 1270 1185 1218Q1184 1214 1183 1196Q1175 1090 1109 1001Q1071 949 1098 929Q1105 924 1112 924Q1133 924 1163 963ZM1204 886Q1284 958 1314 1054Q1329 1100 1304 1110Q1277 1120 1261 1075Q1260 1071 1254 1057Q1227 990 1172 938Q1136 911 1153 885Q1168 859 1204 886ZM1238 816Q1307 845 1331 892L1338 906Q1352 954 1328 966Q1303 978 1282 934Q1276 923 1276 924Q1256 888 1213 866Q1181 850 1192 825Q1203 801 1238 816ZM1711 226Q1716 310 1716 455Q1716 934 1569 1190Q1559 1218 1534 1258Q1506 1304 1496 1296Q1485 1287 1514 1243Q1526 1214 1533 1192Q1626 990 1626 672Q1626 556 1605 338Q1600 283 1591 226Q1591 214 1652 214Q1711 214 1711 226Z"/>
</g>
</svg>