<svg xmlns="http://www.w3.org/2000/svg" viewBox="0 0 2048 2048">
<g transform="translate(1024.0, 1024.0) scale(1.0893617021276596, -1.0893617021276596) translate(-1024.0, -983.0)">
<path fill="#101010" d="M1024 707Q1105 707 1154 718Q1187 726 1183 755Q1179 781 1145 783Q1107 773 1024 773Q940 773 903 783Q869 782 866 755Q861 726 894 718Q941 707 1024 707ZM1024 1506Q1049 1506 1068 1512Q1098 1519 1092 1551Q1086 1584 1056 1579Q1040 1573 1024 1573Q1008 1573 992 1579Q961 1584 956 1551Q950 1518 980 1512Q1000 1505 1024 1506ZM1138 1552Q1205 1449 1300 1366Q1320 1348 1314 1331Q1308 1313 1280 1313H1190Q1207 1258 1247 1222Q1351 1127 1351 993Q1351 849 1239 757Q1283 706 1338 672Q1472 601 1551.0 471.5Q1630 342 1630 190Q1630 169 1626 137H422Q418 180 418 190Q418 342 496.5 471.5Q575 601 710 672Q764 706 809 757Q697 848 697 993Q697 1127 801 1222Q839 1258 858 1313H768Q740 1313 734 1331Q727 1348 748 1366Q843 1450 910 1552Q862 1600 862 1667Q862 1734 909.5 1781.5Q957 1829 1024 1829Q1091 1829 1138.5 1781.5Q1186 1734 1186 1667Q1186 1602 1138 1552ZM959 1347Q925 1347 925 1312Q925 1278 959 1278H1089Q1123 1278 1124 1312Q1124 1347 1089 1347Z"/>
</g>
</svg>