<svg xmlns="http://www.w3.org/2000/svg" viewBox="0 0 2048 2048">
<g transform="translate(1024.0, 1024.0) scale(1.0716279069767443, -1.0716279069767443) translate(-1024.0, -929.0)">
<path fill="#101010" d="M502 478 588 452 741 566 559 621Q518 591 499 576Q501 527 502 478ZM1024 663Q939 621 853 577L938 534Q981 512 1024 492L1195 577ZM1024 708Q1320 708 1485 669Q1538 656 1553 694Q1557 703 1557 711Q1557 741 1507 757Q1327 817 1024 817Q721 817 541 757Q491 741 491 711Q491 703 495 694Q510 656 563 669Q727 708 1024 708ZM1024 339Q1320 339 1485 300Q1538 287 1553 325Q1557 334 1557 342Q1557 372 1507 389Q1328 448 1024 448Q719 448 541 389Q491 372 491 342Q491 334 495 325Q510 287 563 300Q727 339 1024 339ZM1024 137Q863 137 686 162Q409 202 409 282Q409 298 427 316Q434 382 434 477Q434 645 417 769Q411 786 404 804L391 841Q336 991 266 1131Q164 1131 164 1233Q164 1335 266 1335Q368 1335 368 1233Q368 1204 356 1187Q388 1140 455 1048Q462 1039 480 1014Q551 908 580 911Q633 916 633 1084Q633 1168 620 1292Q533 1305 533 1393Q533 1494 635 1494Q737 1494 737 1393Q737 1344 700 1314Q728 1145 838 951Q860 954 874 954Q922 1015 952 1201Q974 1337 978 1463Q978 1489 984 1526Q922 1550 922 1619Q922 1721 1024 1721Q1126 1721 1126 1619Q1126 1550 1064 1526Q1070 1482 1070 1463Q1073 1336 1095 1201Q1125 1015 1174 954Q1187 954 1210 951Q1320 1148 1348 1314Q1311 1344 1311 1393Q1311 1494 1413 1494Q1515 1494 1515 1393Q1515 1305 1428 1292Q1415 1168 1415 1084Q1415 916 1468 911Q1496 908 1568 1014Q1596 1052 1650 1131Q1667 1159 1692 1187Q1680 1204 1680 1233Q1680 1335 1782 1335Q1884 1335 1884 1233Q1884 1131 1782 1131Q1714 998 1657 841L1631 769Q1614 639 1614 477Q1614 382 1621 316Q1639 300 1639 282Q1639 202 1362 162Q1185 137 1024 137ZM1546 478Q1546 527 1549 576Q1529 591 1489 621L1307 566L1383 509Q1421 480 1460 452Q1502 464 1546 478Z"/>
</g>
</svg>