<svg xmlns="http://www.w3.org/2000/svg" viewBox="0 0 2048 2048">
<g transform="translate(1024.0, 1024.0) scale(1.04991989746876, -1.04991989746876) translate(-1023.8333333333334, -1014.78125)">
<path fill="#f9f9f9" d="M1024 856Q1026 856 1030.0 858.5Q1034 861 1037 861Q1088 859 1088 842Q1088 816 1024 816Q961 816 961 842Q961 859 1012 861Q1014 861 1017.5 858.5Q1021 856 1024 856ZM1259 1256Q1279 1336 1304 1389Q1276 1387 1283 1387Q1262 1385 1242 1385Q1126 1385 1045 1448Q1034 1456 1024 1456Q1012 1456 1004 1448Q923 1385 807 1385Q787 1385 766 1387Q772 1387 745 1389Q771 1331 791 1256ZM1134 1065Q1137 1069 1138 1073Q1138 1085 1124 1085Q1111 1085 1111 1073Q1111 1066 1117 1063Q1078 1063 1076 1080Q1074 1100 1124 1105Q1173 1109 1176 1089Q1176 1070 1134 1065ZM815 1188Q800 1127 800 1055Q800 916 868 857Q895 832 923 793Q958 744 1004 744H1045Q1091 744 1126 793Q1153 832 1181 857Q1249 916 1249 1055Q1249 1127 1234 1188ZM914 1065Q871 1070 872 1089Q873 1110 924 1105Q974 1100 972 1080Q970 1064 931 1063Q937 1066 937 1073Q937 1085 924 1085Q911 1085 911 1073Q911 1068 914 1065ZM1024 1037Q1044 1037 1044 972Q1044 965 1045 963Q1057 956 1057 943Q1057 925 1038 923Q1030 910 1024 910Q1017 910 1010 923Q991 925 991 943Q991 955 1003 963Q1005 966 1005 972Q1005 1037 1024 1037ZM1660 205V267Q1660 369 1573 459Q1496 538 1382 551Q1221 570 1126 708Q1093 678 1045 678H1004Q952 678 922 708Q825 570 666 551Q551 538 475 459Q388 370 388 267V205ZM320 137V205Q319 217 319 225Q320 233 320 245Q320 392 420 499Q514 601 664 619Q795 635 873 755Q870 756 869 759Q852 784 829 804Q732 889 732 1059Q732 1134 747 1188Q730 1188 730 1223Q702 1330 648 1434Q624 1481 655 1495Q682 1506 707 1466Q753 1452 811 1452Q945 1452 993 1535Q986 1587 1032 1646Q1073 1735 1259 1838Q1307 1864 1353 1884Q1376 1890 1399 1892Q1444 1895 1485 1882Q1540 1865 1544 1826Q1550 1753 1421 1736Q1214 1707 1094 1624Q1057 1584 1057 1552Q1057 1544 1059 1538Q1060 1527 1068 1518Q1122 1452 1240 1452Q1296 1452 1343 1466Q1366 1507 1394 1495Q1424 1481 1401 1434Q1344 1323 1319 1223Q1319 1188 1302 1188Q1317 1134 1317 1059Q1317 888 1220 804Q1198 785 1180 759Q1178 756 1176 752Q1256 635 1384 619Q1533 601 1628 499Q1728 391 1728 245Q1728 233 1728.5 225.0Q1729 217 1728 205V137Z"/>
</g>
</svg>