<svg xmlns="http://www.w3.org/2000/svg" viewBox="0 0 2048 2048">
<g transform="translate(1024.0, 1024.0) scale(1.0297206703910613, -1.0297206703910613) translate(-1024.0, -1011.5)">
<path fill="#f9f9f9" d="M1674 883Q1738 953 1738 1053Q1738 1159 1663.0 1234.0Q1588 1309 1482 1309Q1393 1309 1322 1253Q1170 1105 1098 909Q1068 827 1057 769Q1407 765 1569 700Q1571 710 1579 733Q1606 809 1674 883ZM374 883Q443 807 469 733Q476 714 479 700Q640 765 991 769Q978 830 950 909Q878 1104 726 1253Q654 1309 566 1309Q460 1309 385.0 1234.0Q310 1159 310 1053Q310 954 374 883ZM265 964Q241 1035 241 1053Q241 1183 333 1282Q412 1367 549 1367Q572 1367 596 1365Q552 1383 482 1392Q413 1401 368 1385Q267 1348 226 1253Q202 1197 202 1140Q202 1079 227 1020Q235 1001 265 964ZM1024 393Q1369 393 1551 331Q1551 345 1550.0 373.0Q1549 401 1549 415Q1411 468 1024 468Q636 468 499 415Q499 401 498 373Q498 345 498 331Q678 393 1024 393ZM1024 205Q1199 205 1392 229Q1570 251 1570 265Q1570 292 1353 310Q1180 325 1024 325Q840 325 651 301Q478 279 478 265Q478 239 695 220Q872 205 1024 205ZM1024 536Q1371 536 1549 474Q1549 544 1555 640Q1424 701 1024 701Q623 701 493 640Q497 544 499 474Q676 536 1024 536ZM1024 137Q864 137 688 159Q409 194 409 265Q409 281 428 297Q431 380 431 446Q431 553 424 632Q413 684 404 710Q366 813 260 888Q129 1000 129 1145Q129 1214 161 1281Q218 1404 344 1450Q402 1471 458 1471Q537 1471 611 1429Q699 1378 794 1280Q800 1364 862 1426L794 1425V1886H1254V1425L1186 1426Q1246 1364 1254 1280Q1349 1378 1437 1429Q1510 1471 1590 1471Q1646 1471 1704 1450Q1830 1404 1887 1281Q1919 1214 1919 1145Q1919 1000 1788 888Q1682 814 1644 710Q1633 680 1624 632Q1617 545 1617 446Q1617 379 1620 297Q1639 281 1639 265Q1639 194 1360 159Q1183 137 1024 137ZM1024 902 1035 932Q1054 987 1084 1043Q1055 1034 1024 1034Q995 1034 966 1041Q996 978 1013 932ZM1138 1818H909L1024 1703ZM1187 1541V1770L1072 1655ZM910 1493H1139L1024 1608ZM863 1542 976 1656 862 1769ZM1024 1101Q1091 1101 1138.5 1148.5Q1186 1196 1186 1263Q1186 1330 1138.5 1377.5Q1091 1425 1024 1425Q956 1425 909.0 1378.0Q862 1331 862 1263Q862 1195 909.0 1148.0Q956 1101 1024 1101ZM1787 964Q1825 1013 1837.0 1055.0Q1849 1097 1849 1138Q1849 1196 1825 1253Q1783 1349 1685 1385Q1639 1401 1569 1392Q1499 1383 1456 1365Q1480 1367 1502 1367Q1639 1367 1719 1282Q1811 1183 1811 1053Q1811 1033 1787 964Z"/>
</g>
</svg>