<svg xmlns="http://www.w3.org/2000/svg" viewBox="0 0 2048 2048">
<g transform="translate(1024.0, 1024.0) scale(1.0919431279620855, -1.0919431279620855) translate(-1031.7065217391305, -981.0)">
<path fill="#f9f9f9" d="M801 1284Q814 1237 767 1210Q720 1182 688 1218Q629 1200 617 1222Q594 1261 702 1323Q746 1349 784 1356Q822 1362 831 1347Q843 1325 801 1284ZM477 980Q491 961 479 947Q446 912 400 846Q391 826 378 838Q371 843 371 854Q371 877 405 925Q459 1003 477 980ZM825 1586 812 1624Q799 1658 782 1695Q770 1647 766 1619Q763 1603 758 1568Q790 1581 821 1586Q824 1586 825 1586ZM688 1524Q685 1571 696 1632Q717 1756 772 1825Q837 1764 879 1648Q883 1636 891 1611Q893 1608 895 1608Q897 1608 900 1611Q922 1736 977 1805Q1041 1741 1083 1627Q1084 1621 1100 1611L1250 1604L1314 1540L1445 1506L1443 1444L1581 1388L1554 1310L1702 1232L1645 1200L1749 1067L1694 1053L1818 894L1749 896L1854 730L1778 751L1838 592L1771 591L1854 416L1785 407L1845 262L1788 243L1833 137H500Q498 147 498 157Q498 278 638 414Q646 422 780 540Q899 645 903 649Q984 725 1007.5 770.5Q1031 816 1040 858Q977 828 891 836Q846 839 804 856Q728 775 655 749Q639 710 615 677Q574 618 516 580Q439 529 390 564Q366 580 360 598Q352 598 328 605Q251 625 223 709Q198 783 219 863Q243 952 310 1003Q425 1112 497 1258Q584 1436 688 1524ZM1576 1184Q1541 1277 1430 1382Q1326 1482 1227 1526Q1158 1557 1096 1557Q1065 1557 1037 1550Q1030 1564 1016 1603Q1004 1637 987 1675Q963 1581 962 1523Q888 1510 862 1445Q854 1432 843 1424Q805 1398 791 1420Q787 1426 789 1439Q795 1470 831 1518Q776 1506 754 1490Q644 1405 560.0 1233.5Q476 1062 347 944Q302 903 286 845Q272 793 283 743Q297 682 345 670Q380 756 442 814Q456 829 480 831Q504 832 512 827Q519 822 512 810Q491 782 468 745Q444 716 431 691Q427 685 420 670Q409 637 427 621Q447 602 498 650Q532 682 557 717Q584 756 597 791Q699 836 772 902Q763 928 760 951Q751 1003 784 1009Q815 1014 826 963Q830 947 838 916Q883 902 922 902Q1044 902 1131 1000Q1213 1091 1224 1217Q1225 1229 1226 1238Q1226 1290 1259 1290Q1291 1290 1293 1237Q1293 1228 1292 1212Q1280 1059 1173 947Q1288 1010 1334 1140Q1341 1160 1340 1160Q1354 1209 1386 1201Q1417 1193 1404 1142Q1367 990 1225 898Q1358 907 1402 1000Q1402 998 1407 1011Q1427 1062 1455 1051Q1481 1040 1471 986Q1466 974 1465 970Q1426 887 1322 857Q1255 838 1184 838Q1143 838 1100 844Q1066 721 988 646Q907 575 745 433Q612 316 582 205H1717Q1723 289 1723 447Q1723 927 1576 1184Z"/>
</g>
</svg>