<svg xmlns="http://www.w3.org/2000/svg" viewBox="0 0 2048 2048">
<g transform="translate(1024.0, 1024.0) scale(1.0893617021276596, -1.0893617021276596) translate(-1024.0, -983.0)">
<path fill="#f9f9f9" d="M1561 205Q1556 337 1487 444Q1443 513 1337 590Q1219 676 1178 724Q1112 707 1024 707Q935 707 870 724Q829 676 710 590Q605 513 560 444Q490 337 487 205ZM1025 773Q1123 773 1174 792Q1284 862 1284 993Q1284 1096 1205 1170Q1141 1228 1121 1313H927Q906 1228 843 1170Q765 1097 765 993Q765 862 875 792Q924 773 1025 773ZM1082 1516Q1055 1505 1024 1505Q997 1505 968 1515Q914 1439 861 1383H1187Q1127 1444 1082 1516ZM1138 1552Q1205 1449 1300 1366Q1320 1348 1314 1331Q1308 1313 1280 1313H1190Q1207 1258 1247 1222Q1351 1127 1351 993Q1351 849 1239 757Q1283 706 1338 672Q1472 601 1551.0 471.5Q1630 342 1630 190Q1630 169 1626 137H422Q418 180 418 190Q418 342 496.5 471.5Q575 601 710 672Q764 706 809 757Q697 848 697 993Q697 1127 801 1222Q839 1258 858 1313H768Q740 1313 734 1331Q727 1348 748 1366Q843 1450 910 1552Q862 1600 862 1667Q862 1734 909.5 1781.5Q957 1829 1024 1829Q1091 1829 1138.5 1781.5Q1186 1734 1186 1667Q1186 1602 1138 1552ZM1024 1573Q1118 1573 1118 1667Q1118 1762 1024 1762Q930 1762 930 1667Q930 1573 1024 1573Z"/>
</g>
</svg>