<svg xmlns="http://www.w3.org/2000/svg" viewBox="0 0 2048 2048">
<g transform="translate(1024.0, 1024.0) scale(1.0716279069767443, -1.0716279069767443) translate(-1024.0, -929.5)">
<path fill="#f9f9f9" d="M1024 1585Q1058 1585 1058 1619Q1058 1653 1024 1653Q990 1653 990 1619Q990 1585 1024 1585ZM1024 1517Q922 1517 922 1619Q922 1721 1024 1721Q1126 1721 1126 1619Q1126 1517 1024 1517ZM635 1291Q533 1291 533 1393Q533 1494 635 1494Q737 1494 737 1393Q737 1291 635 1291ZM635 1359Q669 1359 669 1393Q669 1427 635 1427Q601 1427 601 1393Q601 1359 635 1359ZM354 1102Q411 983 454 861Q472 870 509 888Q483 918 457 966Q415 1026 354 1102ZM1024 803Q1399 803 1561 720Q1565 749 1570 808Q1558 828 1495 845Q1475 832 1456 836Q1437 839 1421 860Q1337 876 1220 885Q1210 876 1199 875Q1181 874 1164 888Q1096 891 1024 891Q952 891 884 888Q867 874 850 875Q837 876 828 885Q710 876 628 860Q611 839 592 836Q572 832 553 845Q489 828 478 808Q479 786 487 720Q648 803 1024 803ZM783 946Q735 1021 687 1146Q683 1011 660 929Q721 940 783 946ZM1024 959Q1069 959 1114 958Q1058 1072 1024 1281Q988 1071 934 958Q979 959 1024 959ZM1694 1102Q1619 1011 1591 966Q1573 937 1539 888Q1557 878 1594 861Q1635 983 1694 1102ZM1265 946Q1325 941 1389 929Q1364 1010 1361 1146Q1312 1021 1265 946ZM1024 138V205Q1170 205 1328 219Q1570 240 1570 282Q1570 324 1329 345Q1170 359 1024 359Q877 359 719 345Q478 324 478 282Q478 240 720 219Q877 205 1024 205V138Q862 138 686 163Q409 202 409 282Q409 298 427 316Q434 382 434 477Q434 645 417 769Q411 786 404 804L391 841Q336 991 266 1131Q334 1131 360 1195Q412 1132 488 1023Q543 905 580 911Q612 916 623 1022Q627 1068 627 1124Q627 1198 620 1292Q629 1291 635 1291Q671 1291 701 1315Q772 1067 838 951Q860 954 874 954Q940 1038 978 1463L980 1495Q982 1511 984 1526Q1003 1517 1024 1517Q1044 1517 1064 1526L1070 1463Q1106 1038 1174 954Q1187 954 1210 951Q1274 1066 1348 1314Q1376 1291 1413 1291Q1418 1291 1428 1292Q1420 1197 1420 1122Q1420 1067 1424 1022Q1435 916 1468 911Q1504 905 1560 1023Q1607 1097 1688 1195Q1713 1131 1782 1131Q1714 998 1657 841L1631 769Q1614 639 1614 477Q1614 386 1620 316Q1639 300 1639 282Q1639 202 1362 163Q1186 138 1024 138ZM1551 357Q1546 416 1546 477Q1546 567 1554 658Q1553 700 1316 721Q1163 735 1024 735Q878 735 720 720Q492 698 494 658Q502 531 502 477Q502 426 498 357Q677 427 1024 427Q1367 427 1551 357ZM1413 1291Q1311 1291 1311 1393Q1311 1494 1413 1494Q1515 1494 1515 1393Q1515 1291 1413 1291ZM1413 1359Q1447 1359 1447 1393Q1447 1427 1413 1427Q1379 1427 1379 1393Q1379 1359 1413 1359ZM1782 1131Q1680 1131 1680 1233Q1680 1335 1782 1335Q1884 1335 1884 1233Q1884 1131 1782 1131ZM1782 1199Q1816 1199 1816 1233Q1816 1267 1782 1267Q1748 1267 1748 1233Q1748 1199 1782 1199ZM266 1131Q164 1131 164 1233Q164 1335 266 1335Q368 1335 368 1233Q368 1131 266 1131ZM266 1199Q300 1199 300 1233Q300 1267 266 1267Q232 1267 232 1233Q232 1199 266 1199Z"/>
</g>
</svg>