<svg xmlns="http://www.w3.org/2000/svg" viewBox="0 0 2048 2048">
<g transform="translate(1024.0, 1024.0) scale(1.0390078917700112, -1.0390078917700112) translate(-1024.0, -1024.0)">
<path fill="#f9f9f9" d="M649 1433V683H1399V1433ZM564 478V341H1484V478ZM616 614 574 546H1474L1432 614ZM530 273V205H1520V273ZM1161 1911 1169 1792H1314L1322 1911H1554V1570L1468 1433V683L1554 546V341H1587V137H461V341H494V546L580 683V1433L494 1570V1911H725L734 1792H879L887 1911ZM574 1570 616 1503H1432L1474 1570ZM564 1638H1484V1843H1391L1382 1724H1101L1092 1843H956L947 1724H666L657 1843H564Z"/>
</g>
</svg>