<svg xmlns="http://www.w3.org/2000/svg" viewBox="0 0 2048 2048">
<g transform="translate(1024.0, 1024.0) scale(2.2021505376344086, -2.2021505376344086) translate(-418.5, -413.5)">
<path fill="#101010" d="M434 467V483V492V500L437 526L444 558L447 570L450 582Q451 585 452.5 589.0Q454 593 454 595Q455 597 456.5 601.0Q458 605 458 606Q461 614 463 618Q465 620 467.5 625.0Q470 630 471 632Q477 641 483 649Q493 661 499 667Q517 664 535 652Q552 640 568 619Q588 594 599 574Q615 545 624 524L637 478L642 438Q642 398 639 369Q634 336 628 323Q616 290 597 277Q595 276 592.0 275.0Q589 274 588.0 273.0Q587 272 583.5 271.0Q580 270 578 270H562H560H295H293H274Q271 270 263.0 272.0Q255 274 250 276Q242 280 232 293Q224 302 214 321Q207 337 202 367Q197 399 197 434Q197 465 203.0 492.0Q209 519 221 541Q234 564 248 583Q262 603 276 617Q281 622 304 646Q306 648 330 669Q342 678 349 685Q355 691 355 695L353 708L350 721L349 724L344 743V761Q344 774 348 785Q352 796 360 806Q367 816 380 822Q395 827 411 827Q424 827 433 823Q444 818 453 809Q461 801 468 789Q473 780 475 766V761V755Q475 746 473 730Q471 722 465 706L444 662L437 653L433 644L409 600Q403 590 400 579Q396 569 394 559Q392 547 391 542Q390 533 388 527Q388 525 387.5 521.5Q387 518 386 516Q385 513 385 507V467ZM804 0H514Q503 0 494 3Q488 5 478 11L457 37L455 41L447 54L440 65L430 77L421 82L415 80L411 77L403 68L393 56L385 41L383 37Q380 33 371 24Q366 19 356 11Q346 5 339 3Q328 0 317 0H34L0 155H232Q234 155 240 157Q243 159 245 162L249 179L245 180L249 185L250 190Q250 192 251.0 194.0Q252 196 253 198Q254 201 256 205Q257 207 263 211Q269 213 275 213H586Q588 213 592 211Q593 210 595 206L599 193L595 188V184V181L599 176Q599 170 600 168Q600 163 601 162Q601 158 604 157Q606 155 609 155H837Z"/>
</g>
</svg>