<svg xmlns="http://www.w3.org/2000/svg" viewBox="0 0 2048 2048">
<g transform="translate(1024.0, 1024.0) scale(2.2287787182587664, -2.2287787182587664) translate(-365.0, -413.5)">
<path fill="#101010" d="M430 788Q435 775 435 761Q435 752 432 740Q430 732 424 714L402 650Q402 649 401.5 646.5Q401 644 400 643L397 638L393 627L376 588L364 557L350 589Q345 601 345 602Q344 604 341 611Q337 619 336 622Q334 626 333 628L330 639L325 650L304 710Q300 723 298 736Q295 746 295 756V762V768Q296 775 302 789Q306 798 316 808Q324 818 337 822Q350 827 364 827Q381 827 393.0 823.0Q405 819 415 809Q424 800 430 788ZM520 450 518 457 510 470Q508 474 506.0 475.0Q504 476 500 476Q495 476 493 475Q492 475 490.5 474.0Q489 473 488.0 472.0Q487 471 486 471L478 461L476 457L468 434L459 414L452 398L447 384L443 373V361V355V349L445 334Q446 331 449 330Q453 328 455 328Q456 328 460 330Q461 331 463 335L467 350V356V363V368L478 386L492 403L505 418L517 433L519 439L521 445ZM205 439 208 433 217 418 230 403 243 386Q244 385 246.0 382.0Q248 379 249.0 378.0Q250 377 251.0 373.0Q252 369 252 368L254 363V359V354V350L256 334Q257 332 261.0 330.0Q265 328 267 328L271 330Q275 332 276 334L279 349V355V361V368V373L276 384L269 397L263 410L253 432L247 454L245 461L237 471Q236 472 232 474Q231 475 228.5 475.5Q226 476 225 476Q221 476 220.0 475.0Q219 474 216.5 472.5Q214 471 213 470L207 457Q207 453 206 452L205 450L203 445ZM616 278 620 264 623 249 625 235Q625 231 624 228L620 220Q619 217 612 212Q608 209 598 205L467 221H365H270L191 214L159 210L128 207Q122 210 117 215L108 224Q107 225 105 232Q104 234 103.5 238.0Q103 242 103 244L104 254Q104 258 105 261L106 265L107 271L109 276L112 293L114 308Q114 313 112 321Q110 328 106 332Q100 341 99 342Q92 349 87 352L73 364L57 379Q48 386 38 398Q26 410 18.0 422.0Q10 434 5.0 454.0Q0 474 0 493Q0 530 13 560Q25 589 48 614Q70 639 100 653Q128 665 160 665Q186 665 213 660Q234 656 254 644Q268 636 284 624Q296 613 308 598L310 595Q313 591 324 576Q328 569 334 557Q336 554 339.5 548.0Q343 542 344 541Q349 534 352 530L358 524H364H368L373 529L388 556Q391 564 397 574Q400 581 410 595L412 598Q424 611 437 622Q448 632 469 644Q491 656 515 660Q545 665 576 665Q606 665 636 654Q662 643 686 619Q707 596 719 565Q730 532 730 493Q730 477 725 459Q721 443 711 430Q702 416 692 405Q678 389 672 382L659 371L648 358L624 328Q618 318 617 312Q615 300 615 295ZM61 0 59 2 61 26 64 58Q66 74 70 87Q75 102 80 112Q86 126 99 133Q111 139 128 141L164 144L203 148L277 155L365 164Q380 164 388.0 163.0Q396 162 414 162Q423 161 443 159Q448 159 458.0 157.5Q468 156 474 155Q496 155 509 154Q533 152 546 150Q553 149 565.0 147.5Q577 146 582 146Q588 145 597.5 143.5Q607 142 611 142Q625 140 635 132Q645 123 651 107Q651 106 651.5 105.0Q652 104 653.0 101.5Q654 99 655 97Q655 95 656.5 89.5Q658 84 659 81Q659 78 660.5 72.0Q662 66 663 62Q664 55 664 41L665 21L663 3L665 0Z"/>
</g>
</svg>