<svg xmlns="http://www.w3.org/2000/svg" viewBox="0 0 2048 2048">
<g transform="translate(1024.0, 1024.0) scale(2.2953922789539227, -2.2953922789539227) translate(-342.0, -401.5)">
<path fill="#101010" d="M241 394Q232 390 226 388Q222 387 215 385Q204 380 188 376L186 375L165 368L144 361Q142 361 137 358Q135 356 131.5 353.0Q128 350 127 349L116 332L114 329L113 325L99 307Q95 303 92 302Q86 300 82 300L71 301L59 303Q51 305 39 312Q31 315 19 324Q10 332 5 341Q0 349 0 358Q0 380 6 401Q11 419 23 441Q37 467 46 479Q64 501 74 510Q78 514 86 524Q88 526 92.0 531.0Q96 536 98 538Q102 544 105 548Q106 549 107.5 551.0Q109 553 110.5 555.5Q112 558 113 559Q121 575 125.0 590.0Q129 605 129 622Q129 628 131 634L134 643L149 660L163 671L177 684L197 705Q199 709 205 719Q207 722 209.5 728.0Q212 734 213 736L216 747L219 761V763L226 790Q229 796 234 800Q238 803 246 803L265 783L285 762L288 757L292 751Q301 739 312 728Q319 720 333 706Q343 696 359 691Q374 686 389 686Q395 686 407 683Q412 682 422.5 679.0Q433 676 436 675Q450 670 472 658Q478 655 509 633Q530 617 554 589Q574 563 597 526Q607 511 615 489Q625 464 628 447Q631 432 635 400Q638 374 638 345V338V332V313Q638 306 639 303Q639 297 640 295V229Q640 216 636 211Q632 205 623 205H622H621H614L609 206L488 221H384L298 213L224 207L185 204L149 201Q145 201 144 202Q140 202 139 203L137 207Q136 208 136 211L139 222L148 236L161 249L175 261L178 263L181 266L215 281Q227 286 228.0 286.0Q229 286 232.0 288.0Q235 290 237 290Q238 290 241.0 291.5Q244 293 246.0 294.0Q248 295 252.5 297.5Q257 300 259 301Q294 316 320 341Q333 353 341 370Q348 385 348 406L347 416L346 427Q345 428 344.5 430.5Q344 433 344 434L343 438Q343 438 341 444L338 450Q338 451 336.0 454.0Q334 457 334 458Q333 460 330 463H327L324 461L320 458Q307 436 293 424Q279 410 260 402Q258 401 251.0 398.5Q244 396 241 394ZM80 0V2V27L83 59Q84 76 89 89Q94 103 99 115Q106 128 118 135Q130 141 147 143L183 145L222 149L296 155L383 164Q398 164 407 163Q415 162 433 162Q442 161 462 159Q467 159 477.0 157.5Q487 156 493 155Q515 155 528 154Q552 152 565 150Q572 149 584.0 147.5Q596 146 601 146Q607 145 616.5 143.5Q626 142 630 142Q644 140 654 132Q664 123 670 107Q670 106 670.5 105.0Q671 104 672.0 101.5Q673 99 674 97Q674 95 675.5 89.5Q677 84 678 81Q678 78 679.5 72.0Q681 66 682 62Q683 55 683 41L684 21V3V0Z"/>
</g>
</svg>