<svg xmlns="http://www.w3.org/2000/svg" viewBox="0 0 2048 2048">
<g transform="translate(1024.0, 1024.0) scale(3.1240677966101695, -3.1240677966101695) translate(-254.0, -295.0)">
<path fill="#101010" d="M215 583Q232 590 254 590Q275 590 292 583Q308 576 323 561Q338 544 345 529Q352 512 352 491Q352 469 345 454Q337 435 324 422Q310 409 292 401Q273 393 254 393Q233 393 216 400Q197 408 184.0 421.0Q171 434 163 453Q156 470 156 491Q156 513 163 528Q169 544 183 560Q197 575 215 583ZM3 0 0 19V39Q0 57 5 79Q10 99 16 110Q18 113 21.5 118.0Q25 123 26 125Q32 135 34 137Q35 138 38.5 142.0Q42 146 44 148Q47 152 55 160L61 165L69 170Q72 173 78.5 177.5Q85 182 89 184Q99 191 108 194Q120 199 125 203Q128 205 131 208V215V223V252L140 280Q146 294 159 312Q171 327 183 338Q197 351 212 358Q226 365 243 368H248H253H260H267Q283 364 296 358Q308 351 323 338Q336 324 347 311Q354 302 364 280L373 259L377 237V230V223V215V208L397 195Q408 191 418 185Q425 180 441 168L446 164L453 160Q460 154 473 139Q484 125 490 111Q500 95 504.0 78.0Q508 61 508 38V18L505 0Z"/>
</g>
</svg>