<svg xmlns="http://www.w3.org/2000/svg" viewBox="0 0 2048 2048">
<g transform="translate(1024.0, 1024.0) scale(2.2341818181818183, -2.2341818181818183) translate(-412.5, -386.5)">
<path fill="#101010" d="M115 0V2V29Q115 42 116 49Q116 62 117 68Q118 78 123 90Q126 101 132 115Q140 128 150 135Q159 141 174 143L210 146L249 150L323 158L410 161H434Q442 160 460 160Q479 160 489 159Q494 158 504.0 157.0Q514 156 519 155Q542 155 555 154Q579 152 592 150Q599 149 611.0 147.5Q623 146 628 146Q634 145 643.5 143.5Q653 142 657 142Q671 140 681 132Q691 123 697 107Q697 106 697.5 105.0Q698 104 699.0 101.5Q700 99 701 97Q701 95 702.5 89.5Q704 84 705 81Q705 78 706.5 72.0Q708 66 709 62Q710 55 710 41L711 21V3V0ZM695 529 682 549 678 574Q678 588 684 601Q688 612 700.0 624.0Q712 636 723 641Q736 647 751 647Q763 647 778 642Q790 636 801 625Q814 614 819 602Q825 589 825 574Q825 561 820 548Q816 536 806 526Q798 516 785 510Q773 503 759 501L649 201L521 213L412 218L325 215L251 208L212 204L176 201L68 502Q57 502 44 507Q34 511 22.0 523.0Q10 535 6 547Q0 560 0.0 574.0Q0 588 6 601Q10 612 22 624Q32 635 47 642Q60 648 74 648Q86 648 101 643Q115 636 124 627Q135 616 141.0 603.0Q147 590 147 574V571L143 555Q142 552 138 544Q136 542 133.0 537.5Q130 533 129 530L235 410L279 623Q268 623 258 629Q249 633 240 645Q232 655 227 669Q222 682 222 695Q222 711 228 726Q234 739 245 750Q258 761 271 767Q285 773 299 773Q314 773 329 768Q340 763 354 751Q365 740 371 727Q377 712 377 695L376 688V681Q374 673 372 668Q369 660 365 655Q359 647 355.0 643.0Q351 639 341 633L414 422L486 633Q480 638 474 645Q468 653 464 659Q460 668 458 677Q455 686 455 695Q455 711 461 726Q467 740 479 750Q490 761 504.0 767.0Q518 773 533 773Q547 773 562 768Q576 762 587 751Q599 740 605 727Q611 712 611 695Q611 679 607 670Q601 656 596 650Q586 640 580 635Q569 627 557 623L593 410Z"/>
</g>
</svg>