<svg xmlns="http://www.w3.org/2000/svg" viewBox="0 0 2048 2048">
<g transform="translate(1024.0, 1024.0) scale(2.5009497964721845, -2.5009497964721845) translate(-302.0, -368.5)">
<path fill="#101010" d="M225 614 245 729H252L260 733L283 737H308H328H349L359 734L369 733L387 614H440L475 714L495 710L517 707L537 701L559 692L553 591Q552 580 548 562Q542 544 537 536Q532 525 522 514Q508 500 499 493L473 496L446 501L384 508L308 516H289Q285 516 277.5 515.0Q270 514 267 514Q263 514 256.0 513.0Q249 512 245 511Q229 509 222 508Q210 508 203 507Q199 506 191.5 505.5Q184 505 180 505Q172 504 154 500Q144 498 122 494Q107 502 98 510Q87 519 83 529Q78 537 73 553Q67 569 65 578L55 692L78 701L103 708L123 712L141 714L176 614ZM122 439Q126 440 137.0 442.5Q148 445 154 446Q174 449 199 452Q226 456 253 458Q271 459 308 459Q344 459 362 458Q381 457 414 453Q441 450 462 447Q498 439 499 439L534 205L412 221H386H352H323H308H219L145 214L110 210L83 207ZM0 0V2V26L3 58Q5 74 9 87Q14 102 19 112Q25 126 38 133Q48 139 67 141L103 144L144 148L220 155L308 164Q324 164 333 163Q341 162 358 162Q376 160 386 159Q391 158 400.0 157.0Q409 156 414 155Q437 155 449 154Q473 152 485 150Q492 149 504.0 147.5Q516 146 521 146Q527 145 536.5 143.5Q546 142 550 142Q563 141 573 132Q582 124 590 107Q590 106 590.5 105.0Q591 104 592.0 101.5Q593 99 594 97Q594 95 595.5 89.5Q597 84 598 81Q598 78 599.5 72.0Q601 66 602 62Q603 55 603 41L604 21V3V0Z"/>
</g>
</svg>