<svg xmlns="http://www.w3.org/2000/svg" viewBox="0 0 2048 2048">
<g transform="translate(1024.0, 1024.0) scale(2.1482517482517482, -2.1482517482517482) translate(-429.0, -413.5)">
<path fill="#f9f9f9" d="M770 131H545Q532 131 519 136Q507 141 497 149Q486 160 482 170Q476 180 476 193V205L479 216Q481 221 487 233Q492 240 499 251L528 289Q533 294 536 299Q542 309 546 314Q549 318 555 328Q557 330 560.0 335.5Q563 341 564 344Q574 360 578 376Q582 391 582 410Q582 445 575 473Q566 506 556 528Q544 553 524 575Q502 597 476 610Q466 580 461 554Q456 529 454 497L450 410V402V396H377V403Q377 428 378 438V462Q378 466 380 484Q381 492 385 510Q390 531 399 560Q409 590 414 604L438 670Q442 682 447 692Q450 701 450 705V710Q450 718 448 728Q447 735 443 742Q442 748 435 753Q430 757 422 757H418Q416 757 411 754L402 745Q397 740 396 734Q393 726 393 720V699L395 682V678L396 675L398 661L399 648Q399 642 398.0 639.0Q397 636 395 632L384 617L362 598Q358 595 350.0 587.0Q342 579 339 575Q327 563 318 549Q307 531 298 511Q288 488 284 461Q278 433 278 396Q278 377 282 364Q287 346 293 336Q303 318 309 309Q315 299 327 283L344 259L360 235L371 214L375 191Q375 177 370 165Q366 154 356 146Q349 140 335 135Q324 131 309 131H88L100 74H332Q338 74 348 76Q353 77 361 83L382 106L385 109L403 129Q407 133 415 136Q421 139 429 139Q434 139 440 136Q449 130 450 129L471 110L474 106L497 83Q503 77 509 76Q517 74 521 74H757ZM815 0H522Q517 0 507 2Q504 3 493 9Q489 12 481.0 20.0Q473 28 470 33L461 45L453 55L444 61L441 64Q439 65 436 65H429L424 62Q423 61 421.0 60.0Q419 59 418 58Q412 54 408 50L393 34Q388 26 382 21Q374 14 365 10Q356 4 345 3Q333 0 319 0H43L0 205H268H272H277H290Q292 206 293.0 207.0Q294 208 294.0 209.0Q294 210 295 211Q295 216 291 221Q290 222 286.5 226.0Q283 230 280 233L250 271Q240 285 233 298Q224 312 218 330Q212 347 209 368Q205 387 205 413Q205 441 210 469Q214 494 225 517Q239 545 247 558Q261 580 272 594Q281 605 299 623Q311 636 321 645Q334 656 338 661Q344 667 344 671L342 680L339 695L336 713V736Q336 751 344.0 769.0Q352 787 367 799Q382 812 400 820Q417 827 436 827H440H445Q460 825 473 818Q482 812 499 795Q510 783 518 763Q524 745 524 725V710V704Q522 700 521 698L517 686L510 674L529 656L549 639Q579 610 595 590Q615 564 628 538Q639 517 648 480Q655 451 655 411Q655 392 652 374Q646 350 641 339Q631 317 626 308Q623 302 617.0 292.5Q611 283 610 280L578 237Q571 229 569 223Q565 216 565 211L569 207L570 205H588H593H858Z"/>
</g>
</svg>