<svg xmlns="http://www.w3.org/2000/svg" viewBox="0 0 2048 2048">
<g transform="translate(1024.0, 1024.0) scale(2.2287787182587664, -2.2287787182587664) translate(-381.0, -413.5)">
<path fill="#f9f9f9" d="M352 745Q352 733 358 712L374 664L387 712Q391 727 392 731Q393 736 393 745Q393 755 392 759Q390 766 388 767Q385 773 373 773Q366 773 363 772Q358 770 355 767ZM446 787Q451 772 451 760Q451 758 449 744Q443 723 442 720Q439 705 433 690Q425 670 420 659L415 645L409 631L389 587L374 558Q373 560 370.5 564.0Q368 568 367.0 570.0Q366 572 359 585L342 627L335 643L330 660L310 719Q310 723 309 726Q308 728 307.5 732.5Q307 737 307.0 739.0Q307 741 306.5 746.0Q306 751 305 753Q303 759 303 760Q303 773 309 785Q314 798 324 808Q336 818 349 822Q364 827 379 827Q392 827 407 822Q417 818 429 808Q440 798 446 787ZM338 426 315 456 291 492Q283 504 265 526Q250 542 234 554Q218 567 196 575Q175 581 149 581Q136 581 126 578Q114 573 108 567Q98 557 94 551Q86 541 82 532L74 507V488Q74 468 79 446Q84 423 92 409Q100 394 114 377Q137 346 139 343L162 314L183 287L199 256Q203 249 204 242Q205 237 205 226Q216 227 229 231Q243 233 248 234Q256 236 266 237H286H371H415H461Q478 237 487 236Q500 234 511 233H523Q527 232 533 232Q538 232 543 231Q553 229 559 228Q559 240 562 253Q565 264 571 275Q573 279 577.5 286.0Q582 293 585 297Q591 307 599 317L611 332L624 347Q636 360 648 377Q666 405 668 409Q678 425 683 446Q688 468 688 488Q688 514 681 531Q673 549 660 559Q643 571 626 576Q604 581 584 581Q559 581 538 575Q517 568 502 554Q491 545 473 525Q460 508 449 492L427 458L409 429Q405 423 402 420L393 411Q387 407 384 406Q378 404 375 404Q371 404 365 406Q363 406 360.0 407.0Q357 408 355 409ZM623 74Q623 91 616 104Q609 116 595 124Q584 130 562 137Q547 142 520 147L492 155H447H438H431Q428 155 420 158Q414 159 406 164H377H349L303 155H285H270L244 147H236H230Q214 146 199 141Q188 138 170 128Q159 122 150 106Q143 93 143 74ZM68 0Q68 29 69 40V64Q69 74 72 85Q72 87 73.5 95.5Q75 104 76 109Q81 136 96 157Q112 182 135 200V212Q134 216 134 222Q134 226 132 232Q132 234 130.0 237.0Q128 240 128 241Q127 245 124.0 251.5Q121 258 119 261Q111 273 106 278L87 299L68 322Q52 343 46 352Q34 369 24 387Q21 393 15 407Q10 420 7 430Q3 443 2 454Q0 472 0 480V493V507Q5 538 16 563Q30 592 47 612Q67 635 93 647Q118 659 149 659Q178 659 204 653Q230 645 247 633Q271 615 282 606Q295 595 310 575Q313 570 320.0 561.0Q327 552 331 547Q338 537 348 517Q354 505 361.0 498.0Q368 491 374 491Q378 491 382 498Q391 513 393 517Q399 531 409 545Q423 565 431 575Q441 589 460 606Q476 620 496 633Q513 645 541 653Q566 659 599 659Q642 659 672 646Q702 632 722 605Q742 576 752 544Q762 511 762 472Q762 453 757 431Q750 408 741 394Q740 391 736.5 385.0Q733 379 731 376Q728 371 721 361Q718 356 710 346Q706 341 696 329L665 289L641 252L633 230L630 209V204L631 200Q656 179 670 159Q684 138 689 111Q695 77 696 57Q698 19 698 0Z"/>
</g>
</svg>