<svg xmlns="http://www.w3.org/2000/svg" viewBox="0 0 2048 2048">
<g transform="translate(1024.0, 1024.0) scale(2.2953922789539227, -2.2953922789539227) translate(-349.5, -401.5)">
<path fill="#f9f9f9" d="M417 616Q414 618 408.0 621.5Q402 625 399 626Q390 630 379 633Q364 637 359 638Q352 639 339 639L333 641Q328 642 324 647L307 667L305 670L286 694Q281 699 278 701Q273 704 270 704L266 702Q264 689 261 683Q256 672 252 665Q250 662 246.0 657.5Q242 653 240 651Q231 642 227 639L201 617Q195 613 193 610Q188 606 187 601Q182 580 177 568Q173 557 165 539L140 492Q136 485 124 468Q121 465 115.5 457.5Q110 450 107 446Q102 440 94 428Q91 425 83 411L75 395L73 380V374L74 367Q74 362 76 356Q77 350 81 345Q87 336 99 336H107L115 340L123 348L135 362L137 364L141 367L158 378L180 388L215 400L234 405Q238 405 240 406L244 407L253 417L264 431L277 448L302 477Q306 480 318 488Q325 491 335 491H341Q354 491 365 487Q374 483 386 473Q396 464 405 454Q413 444 420 431L426 415V399Q426 375 420 357Q415 341 403 326Q391 312 379 303L352 282L326 269Q322 268 314 264Q308 261 305 258L285 245L284 242Q282 240 281 238L278 229L322 237H356H399H482H494H506Q515 237 522 236L532 234Q542 233 549 232Q556 243 560 257Q565 273 569 294Q570 296 570.5 302.0Q571 308 571 311Q572 318 572 335Q572 353 573 361V380Q573 417 561 453Q548 490 524 521Q499 554 473.0 577.0Q447 600 417 616ZM622 74Q622 90 616 102Q609 113 595 121Q594 122 582 129Q572 133 567 134Q561 135 550 140Q542 143 526 147H523L502 154L483 159L436 164H396H387H379H375H371H331L278 159L255 153L234 147Q212 141 201 137Q180 128 172 123Q161 117 152 103Q145 90 145 74ZM69 0V18L70 38Q70 63 77 87Q79 95 85 113Q88 122 96 138Q106 161 128 180Q148 197 180 211Q180 227 187 240Q194 254 208 264L270 306L276 310L282 314L331 351Q341 359 347 372Q352 384 352 395L349 410Q348 414 344 416Q338 418 334 418L324 415L318 406L310 396L304 386L293 372L278 360L269 357Q264 354 259 352L253 350Q243 347 239 346L207 336Q205 335 200.0 333.5Q195 332 192 332Q182 328 179 325Q173 321 171 318Q167 314 167 308Q167 307 166.5 304.0Q166 301 165 300L164 296L161 290Q155 284 150 281Q149 280 142.5 276.0Q136 272 132 270Q123 265 113 264Q99 262 91 262Q73 262 55 270Q38 278 26 291Q17 303 8 322Q2 335 0 356V362Q0 380 5 400Q10 419 18 434Q20 437 23.5 443.0Q27 449 28 452Q30 455 38 466Q44 476 48 481Q50 484 54.0 488.5Q58 493 60 495L78 517L94 539Q97 543 101 549Q104 554 104 555L108 563Q108 564 109.0 567.0Q110 570 111 571Q114 576 116 581Q118 587 119 589Q119 595 120.0 598.0Q121 601 121 608Q121 616 124 623Q126 628 132 636L161 661L165 664L170 667L202 695Q209 702 214 712Q218 720 218 729L220 743Q220 751 221 755Q221 762 222 766Q222 767 223.5 771.0Q225 775 226 777Q227 783 231 788Q234 793 240 798Q248 802 253 803Q260 799 267 794Q272 789 280 779L309 745Q311 742 316.5 735.0Q322 728 325 725Q332 716 342 707Q354 697 361 693Q373 686 380 685Q383 685 386 684Q392 682 396 681Q398 681 403.5 679.5Q409 678 412 677Q417 675 429 671Q444 667 471 655Q491 645 515 629Q536 614 560 588Q577 570 604 532Q627 500 637 458Q647 417 647 362V342Q646 335 646 322Q646 310 645.0 304.0Q644 298 642 288L630 229L626 219L622 209Q651 189 667 169Q684 148 688 124Q694 93 696 73Q698 37 698 17L699 8L698 0Z"/>
</g>
</svg>