<svg xmlns="http://www.w3.org/2000/svg" viewBox="0 0 2048 2048">
<g transform="translate(1024.0, 1024.0) scale(2.8845070422535213, -2.8845070422535213) translate(-270.0, -319.5)">
<path fill="#f9f9f9" d="M461 74Q461 88 457 100Q454 109 444 123Q439 130 426 143Q412 155 405 160L380 179L360 196Q360 197 358.5 199.0Q357 201 356 203Q356 204 354.5 206.0Q353 208 352 210V224V232V243V253V264V276Q351 280 351 287Q349 293 348 298Q344 306 341 311Q340 313 339.0 316.0Q338 319 337 320Q334 324 331 326L316 341L315 342Q314 343 312.0 345.0Q310 347 308.0 348.5Q306 350 305 352Q302 355 296 363Q286 376 286 397V407V414L294 427L299 434L304 442L319 469Q323 476 325 488Q327 502 327 512Q327 524 324 535Q319 546 313 552Q311 554 308 556Q307 556 304.5 558.0Q302 560 300 560Q299 560 295.0 561.5Q291 563 289 564Q284 565 275 565Q264 565 253 562Q241 557 235 552Q228 545 225 535Q221 526 221 512Q221 503 223 489Q223 486 223.5 480.0Q224 474 225 471Q226 464 230 457Q234 449 236 446L238 442L242 434L248 427L254 414V397Q254 386 251.0 378.0Q248 370 243 363L220 342L218 340L203 326L191 311L180 283V261V251V240V231V223V209L177 203Q176 200 172 196L152 179L127 160Q115 150 108 143Q95 130 89 123Q82 113 77 100Q72 85 72 74ZM0 0Q0 39 7 68Q16 104 27 128Q39 152 62 180Q83 204 110 222Q116 226 120.0 232.0Q124 238 126 246L131 278V283V288V306Q131 313 132.0 316.0Q133 319 135 323L147 338L161 352L162 354L179 375Q185 381 186 385Q188 393 188 397Q188 400 186 408Q185 411 181 419L168 446L152 481Q150 493 149 500Q147 514 147 519Q147 544 157 564Q168 586 185 603Q204 621 227 630Q249 639 274 639Q298 639 321 630Q342 622 362 603Q382 585 392 564Q401 543 401 519Q401 515 399 501Q398 496 394 481Q392 474 386 462Q383 456 377 446L359 419Q359 417 358 415Q356 411 355 408Q355 407 354.5 404.5Q354 402 353 401L352 397Q352 393 354 385Q355 380 360 375L383 354L385 352L401 338L402 336Q404 333 405 331Q406 328 406 323L409 304V280V275V271Q409 267 411 257Q411 255 411.5 250.5Q412 246 413 244Q414 236 419 232Q423 226 429 222Q453 206 476 182Q498 155 511 130Q516 121 524 101Q530 81 532 70Q536 55 538 38Q540 14 540 0Z"/>
</g>
</svg>