<svg xmlns="http://www.w3.org/2000/svg" viewBox="0 0 2048 2048">
<g transform="translate(1024.0, 1024.0) scale(2.2699507389162563, -2.2699507389162563) translate(-406.0, -376.5)">
<path fill="#f9f9f9" d="M525 644Q528 643 536 641Q540 641 548 643Q553 644 558 649Q562 655 563 659Q564 664 566 671Q566 676 564 682Q562 686 559 690Q556 693 550.0 696.0Q544 699 536 699Q532 699 526 697Q522 696 518 692Q516 690 512 684Q510 679 508 671Q508 665 510 659Q511 654 516 649Q520 645 525 644ZM263 644Q266 643 274 641Q278 641 286 643Q291 645 294 649Q304 658 304 671Q304 675 302 681Q300 686 296 690Q294 694 287 697Q279 699 274 699Q270 699 264 697Q261 696 255 692Q252 688 250 684Q248 679 246 671Q246 665 248 659Q249 655 253 649Q259 645 263 644ZM727 541Q731 538 737 538Q740 538 746 540Q749 541 753 545Q755 547 759 553Q762 558 762 564Q762 567 760 573Q759 577 754 580Q753 584 748 587Q742 589 737 589Q728 589 721 582Q718 578 716 574Q716 572 715.0 569.0Q714 566 713 564Q713 561 715.0 555.0Q717 549 719 546Q722 542 727 541ZM64 541Q68 538 73 538Q80 538 84 541Q87 542 91 546Q94 550 96 554Q96 556 97.0 559.5Q98 563 99 564Q99 573 93 579Q91 581 85 585Q81 587 73 589Q64 589 58 582Q54 578 53 574Q50 570 50 564Q50 561 52.0 555.0Q54 549 56 546Q60 542 64 541ZM562 331 525 549 405 336 287 549 248 329 143 436 139 432 224 218 275 229 324 237H358H392H471L557 224L572 220Q578 220 581 219Q582 219 584.5 218.5Q587 218 588 217L667 434L664 436ZM644 74Q644 90 637 103Q630 116 616.0 124.0Q602 132 583 139Q559 148 540 153L517 159L493 164H451H416H408H402H398H359H342H325Q315 162 311 161Q303 159 302 159L279 155L260 151Q244 148 227 142Q216 138 198 128Q185 119 179 106Q172 93 172 74ZM96 0Q96 28 97 39V63Q98 71 100 86Q100 90 101.0 95.0Q102 100 103.0 106.5Q104 113 105 118Q108 135 123 155Q136 174 162 194L69 490Q56 490 42 496Q30 500 20 512Q10 523 6 536Q0 548 0 562Q0 578 6 591Q10 603 22 615Q33 626 46 632Q61 637 73 637Q104 637 125 615Q137 603 142 592Q148 578 148 563L145 546Q144 545 143.0 541.5Q142 538 142 536Q142 535 139.5 531.0Q137 527 135 525L218 440L245 593Q234 597 222 607Q213 614 204 624Q199 631 193 647Q189 656 189 671Q189 687 195.0 702.0Q201 717 213 729Q227 741 241 747Q256 753 274 753Q289 753 306 748Q320 742 334 730Q346 720 354 703Q361 689 361 672Q361 662 358.0 653.0Q355 644 350.0 635.0Q345 626 337 618Q327 608 321 604L405 453L488 601Q482 605 478 609Q474 612 468 618Q467 619 460 631Q456 637 454 645L451 658V670Q451 703 476 728Q488 740 504 747Q519 753 536 753Q551 753 568 748Q582 742 596 730Q610 718 617 703Q623 688 623 672Q623 648 608 625Q600 614 590 607Q581 599 567 594L593 434L672 527L666 545L664 564Q664 578 670 592Q674 602 686 615Q698 627 709 632Q724 637 737 637Q767 637 789 615Q800 604 806 591Q812 577 812 562Q812 549 807 536Q803 524 793 514Q785 504 772 498Q759 491 746 490L651 196Q675 178 691 156Q706 134 710 109Q716 77 717 58Q719 20 719 0Z"/>
</g>
</svg>