<svg xmlns="http://www.w3.org/2000/svg" viewBox="0 0 2048 2048">
<g transform="translate(1024.0, 1024.0) scale(2.5009497964721845, -2.5009497964721845) translate(-303.0, -368.5)">
<path fill="#f9f9f9" d="M370 590 349 639 325 655H303H282L262 639L238 590H176L152 639H148H144H135L125 636L120 634L114 632V628Q114 607 115 599Q115 596 115.5 589.5Q116 583 117 580Q117 574 120 565Q123 554 127 545Q133 526 143 515Q152 503 165 496L240 507L304 511H318H331H345Q348 510 352.0 510.0Q356 510 359 509Q377 509 386 508Q391 507 398.5 505.5Q406 504 409 504L429 501L448 496Q461 505 467 514Q477 528 480 537Q480 540 482.0 544.5Q484 549 484.0 551.0Q484 553 485.0 557.5Q486 562 486 565Q486 567 487.5 572.5Q489 578 490 581Q491 587 491 600V616V632L481 636L469 639H461H452L429 590ZM435 422Q432 422 419 427Q405 431 397 432L353 438L326 440L304 441H279Q271 440 256.0 440.0Q241 440 233 439Q229 438 221.0 436.5Q213 435 210 435Q202 434 188 430Q175 424 171 422L144 221L220 237H309H395H412Q422 235 426 234Q427 234 432.0 232.5Q437 231 440 230Q450 225 462 221ZM530 74Q530 90 524 104Q516 118 504 125Q490 132 471 140Q456 146 429 153L400 160L363 164H334H309H279H268H258H246H231L193 160H186Q183 159 178 159Q175 159 173 158Q172 158 169.0 156.0Q166 154 165 154Q148 151 132 145Q121 140 103 130Q89 121 83 107Q76 94 76 74ZM0 0Q0 24 2 62Q4 90 8 113Q12 137 28 160Q44 184 68 205L101 459L94 466L87 475L70 496L55 521L54 525L53 526L51 533L45 551Q43 557 41 569V610V646L46 685Q61 692 76 697Q96 703 106 705L162 713L183 672H231L245 733L275 737H306H316H326H347L368 734L378 672H424L442 713H452H464L514 703Q526 702 538 697Q543 695 551.5 691.0Q560 687 561 687L565 663V635V617V599L560 568V559Q559 556 559 550L556 544Q555 542 555 539L553 535L545 516L535 501L521 480L505 459L538 205Q561 188 576 166Q591 141 595 117Q601 83 603 61Q606 31 606 0Z"/>
</g>
</svg>